STARTFONT 2.1
COMMENT Font converted from OTF to BDF.
FONT -FreeType-Comfortaa-Medium-R-Normal--16-120-96-96-P-90-ISO10646-1
SIZE 12 96 96
FONTBOUNDINGBOX 34 24 -14 -4
STARTPROPERTIES 19
POINT_SIZE 120
PIXEL_SIZE 16
RESOLUTION_X 96
RESOLUTION_Y 96
FONT_ASCENT 14
FONT_DESCENT 3
AVERAGE_WIDTH 90
SPACING "P"
FOUNDRY "FreeType"
FAMILY_NAME "Comfortaa"
CHARSET_REGISTRY "ISO10646"
CHARSET_ENCODING "1"
WEIGHT_NAME "Medium"
SLANT "R"
SETWIDTH_NAME "Normal"
COPYRIGHT "Copyright 2011 The Comfortaa Project Authors (aajohan@gmail.com), with Reserved Font Name "Comfortaa"."
_TTF_PSNAME "Comfortaa-Regular"
_OTF_FONTFILE "Comfortaa-Regular.ttf"
_GBDFED_INFO "Edited with gbdfed 1.6."
ENDPROPERTIES
CHARS 837
STARTCHAR char0
ENCODING 0
SWIDTH 0 0
DWIDTH 0 0
BBX 0 0 0 0
BITMAP
ENDCHAR
STARTCHAR char13
ENCODING 13
SWIDTH 28 0
DWIDTH 5 0
BBX 0 0 0 0
BITMAP
ENDCHAR
STARTCHAR char32
ENCODING 32
SWIDTH 28 0
DWIDTH 5 0
BBX 0 0 0 0
BITMAP
ENDCHAR
STARTCHAR char33
ENCODING 33
SWIDTH 22 0
DWIDTH 4 0
BBX 2 13 1 0
BITMAP
80
80
80
80
80
80
80
80
80
80
00
80
C0
ENDCHAR
STARTCHAR char34
ENCODING 34
SWIDTH 22 0
DWIDTH 4 0
BBX 3 4 1 9
BITMAP
A0
A0
A0
A0
ENDCHAR
STARTCHAR char35
ENCODING 35
SWIDTH 10 0
DWIDTH 12 0
BBX 10 13 1 0
BITMAP
1080
1100
1100
1100
FFC0
2100
2300
2200
FF80
2200
6200
4200
4600
ENDCHAR
STARTCHAR char36
ENCODING 36
SWIDTH 56 0
DWIDTH 10 0
BBX 8 15 1 -1
BITMAP
10
3C
76
D3
90
D0
70
3C
12
13
11
93
D2
7C
10
ENDCHAR
STARTCHAR char37
ENCODING 37
SWIDTH 21 0
DWIDTH 14 0
BBX 12 13 1 0
BITMAP
7020
C860
84C0
8580
8900
7B00
0600
0CE0
0930
1A10
3210
6330
41E0
ENDCHAR
STARTCHAR char38
ENCODING 38
SWIDTH 10 0
DWIDTH 12 0
BBX 10 13 1 0
BITMAP
3800
4C00
4400
4400
6C00
3800
3800
4C80
8480
8300
8300
C480
7840
ENDCHAR
STARTCHAR char39
ENCODING 39
SWIDTH 16 0
DWIDTH 3 0
BBX 1 3 1 10
BITMAP
80
80
80
ENDCHAR
STARTCHAR char40
ENCODING 40
SWIDTH 22 0
DWIDTH 4 0
BBX 3 17 1 -4
BITMAP
20
60
40
40
C0
80
80
80
80
80
80
80
C0
40
40
60
20
ENDCHAR
STARTCHAR char41
ENCODING 41
SWIDTH 22 0
DWIDTH 4 0
BBX 3 17 0 -4
BITMAP
80
C0
40
60
20
20
20
20
20
20
20
20
20
60
40
C0
80
ENDCHAR
STARTCHAR char42
ENCODING 42
SWIDTH 33 0
DWIDTH 6 0
BBX 5 4 1 9
BITMAP
60
B8
60
F0
ENDCHAR
STARTCHAR char43
ENCODING 43
SWIDTH 50 0
DWIDTH 9 0
BBX 7 8 1 3
BITMAP
10
10
10
10
FE
10
10
10
ENDCHAR
STARTCHAR char44
ENCODING 44
SWIDTH 22 0
DWIDTH 4 0
BBX 2 4 1 -3
BITMAP
C0
C0
40
80
ENDCHAR
STARTCHAR char45
ENCODING 45
SWIDTH 33 0
DWIDTH 6 0
BBX 5 1 1 4
BITMAP
F8
ENDCHAR
STARTCHAR char46
ENCODING 46
SWIDTH 16 0
DWIDTH 3 0
BBX 2 2 1 0
BITMAP
80
C0
ENDCHAR
STARTCHAR char47
ENCODING 47
SWIDTH 44 0
DWIDTH 8 0
BBX 6 14 1 -1
BITMAP
04
0C
08
18
10
10
30
20
60
40
40
C0
80
80
ENDCHAR
STARTCHAR char48
ENCODING 48
SWIDTH 50 0
DWIDTH 9 0
BBX 7 13 1 0
BITMAP
38
44
C6
82
82
82
82
82
82
82
C6
44
38
ENDCHAR
STARTCHAR char49
ENCODING 49
SWIDTH 33 0
DWIDTH 6 0
BBX 3 13 1 0
BITMAP
60
E0
20
20
20
20
20
20
20
20
20
20
20
ENDCHAR
STARTCHAR char50
ENCODING 50
SWIDTH 50 0
DWIDTH 9 0
BBX 8 13 1 0
BITMAP
3C
46
C2
82
82
06
04
08
18
30
60
40
FF
ENDCHAR
STARTCHAR char51
ENCODING 51
SWIDTH 50 0
DWIDTH 9 0
BBX 8 13 1 0
BITMAP
3C
46
C2
82
06
18
06
02
83
83
82
46
3C
ENDCHAR
STARTCHAR char52
ENCODING 52
SWIDTH 56 0
DWIDTH 10 0
BBX 10 13 0 0
BITMAP
0100
0300
0700
0D00
0900
1100
3100
2100
4100
FFC0
0100
0100
0100
ENDCHAR
STARTCHAR char53
ENCODING 53
SWIDTH 56 0
DWIDTH 10 0
BBX 8 13 1 0
BITMAP
7F
40
40
40
40
7C
06
01
81
81
C1
66
3C
ENDCHAR
STARTCHAR char54
ENCODING 54
SWIDTH 50 0
DWIDTH 9 0
BBX 8 13 1 0
BITMAP
0C
08
18
10
20
7C
66
C2
83
83
C2
46
3C
ENDCHAR
STARTCHAR char55
ENCODING 55
SWIDTH 50 0
DWIDTH 9 0
BBX 8 13 1 0
BITMAP
FF
02
06
04
0C
08
08
10
10
30
20
60
40
ENDCHAR
STARTCHAR char56
ENCODING 56
SWIDTH 50 0
DWIDTH 9 0
BBX 7 13 1 0
BITMAP
3C
64
42
42
44
3C
66
C2
82
82
C2
66
3C
ENDCHAR
STARTCHAR char57
ENCODING 57
SWIDTH 50 0
DWIDTH 9 0
BBX 7 13 1 0
BITMAP
38
44
82
82
82
82
C4
7C
08
18
10
20
20
ENDCHAR
STARTCHAR char58
ENCODING 58
SWIDTH 16 0
DWIDTH 3 0
BBX 2 9 0 0
BITMAP
40
C0
00
00
00
00
00
40
40
ENDCHAR
STARTCHAR char59
ENCODING 59
SWIDTH 16 0
DWIDTH 3 0
BBX 2 12 1 -3
BITMAP
80
80
00
00
00
00
00
00
C0
C0
40
80
ENDCHAR
STARTCHAR char60
ENCODING 60
SWIDTH 50 0
DWIDTH 9 0
BBX 7 9 1 1
BITMAP
02
0C
38
60
80
60
38
0C
02
ENDCHAR
STARTCHAR char61
ENCODING 61
SWIDTH 44 0
DWIDTH 8 0
BBX 6 5 1 3
BITMAP
FC
00
00
00
FC
ENDCHAR
STARTCHAR char62
ENCODING 62
SWIDTH 50 0
DWIDTH 9 0
BBX 7 9 1 1
BITMAP
80
E0
30
0C
06
0C
30
E0
80
ENDCHAR
STARTCHAR char63
ENCODING 63
SWIDTH 50 0
DWIDTH 9 0
BBX 7 13 1 0
BITMAP
78
C4
82
82
02
06
0C
18
10
10
00
10
30
ENDCHAR
STARTCHAR char64
ENCODING 64
SWIDTH 44 0
DWIDTH 18 0
BBX 16 17 1 -4
BITMAP
07E0
1838
300C
6004
C3C2
8C62
8833
9811
9811
9811
8833
8C72
C3D2
601C
3000
1830
07E0
ENDCHAR
STARTCHAR char65
ENCODING 65
SWIDTH 4 0
DWIDTH 11 0
BBX 11 13 0 0
BITMAP
0400
0600
0E00
0A00
1900
1100
1180
3080
20C0
7FC0
4040
4060
C020
ENDCHAR
STARTCHAR char66
ENCODING 66
SWIDTH 4 0
DWIDTH 11 0
BBX 8 13 2 0
BITMAP
FC
86
82
83
82
82
FC
83
81
81
81
83
FC
ENDCHAR
STARTCHAR char67
ENCODING 67
SWIDTH 10 0
DWIDTH 12 0
BBX 10 13 1 0
BITMAP
0F80
30C0
6000
4000
C000
8000
8000
8000
C000
4000
6000
30C0
0F80
ENDCHAR
STARTCHAR char68
ENCODING 68
SWIDTH 10 0
DWIDTH 12 0
BBX 9 13 2 0
BITMAP
FC00
8600
8100
8180
8080
8080
8080
8080
8080
8180
8100
8600
FC00
ENDCHAR
STARTCHAR char69
ENCODING 69
SWIDTH 4 0
DWIDTH 11 0
BBX 8 13 2 0
BITMAP
FF
80
80
80
80
80
FC
80
80
80
80
80
FF
ENDCHAR
STARTCHAR char70
ENCODING 70
SWIDTH 56 0
DWIDTH 10 0
BBX 8 13 1 0
BITMAP
FF
80
80
80
80
80
FC
80
80
80
80
80
80
ENDCHAR
STARTCHAR char71
ENCODING 71
SWIDTH 10 0
DWIDTH 12 0
BBX 10 13 1 0
BITMAP
0F80
30C0
6000
4000
C000
8000
83C0
8040
C040
4040
6040
30C0
0F80
ENDCHAR
STARTCHAR char72
ENCODING 72
SWIDTH 21 0
DWIDTH 14 0
BBX 10 13 2 0
BITMAP
8040
8040
8040
8040
8040
8040
FFC0
8040
8040
8040
8040
8040
8040
ENDCHAR
STARTCHAR char73
ENCODING 73
SWIDTH 22 0
DWIDTH 4 0
BBX 1 13 2 0
BITMAP
80
80
80
80
80
80
80
80
80
80
80
80
80
ENDCHAR
STARTCHAR char74
ENCODING 74
SWIDTH 56 0
DWIDTH 10 0
BBX 7 13 1 0
BITMAP
02
02
02
02
02
02
02
02
02
82
82
C4
38
ENDCHAR
STARTCHAR char75
ENCODING 75
SWIDTH 56 0
DWIDTH 10 0
BBX 8 13 2 0
BITMAP
83
86
84
88
90
A0
F0
90
88
8C
86
82
83
ENDCHAR
STARTCHAR char76
ENCODING 76
SWIDTH 56 0
DWIDTH 10 0
BBX 8 13 2 0
BITMAP
80
80
80
80
80
80
80
80
80
80
80
80
FF
ENDCHAR
STARTCHAR char77
ENCODING 77
SWIDTH 32 0
DWIDTH 16 0
BBX 12 13 2 0
BITMAP
8010
8030
C030
C070
E050
A050
B090
9090
9910
8910
8E10
8610
8410
ENDCHAR
STARTCHAR char78
ENCODING 78
SWIDTH 16 0
DWIDTH 13 0
BBX 10 13 2 0
BITMAP
80C0
C0C0
C0C0
A0C0
B0C0
98C0
88C0
84C0
86C0
82C0
81C0
80C0
80C0
ENDCHAR
STARTCHAR char79
ENCODING 79
SWIDTH 27 0
DWIDTH 15 0
BBX 13 13 1 0
BITMAP
0F80
30E0
6030
4010
C010
8018
8008
8018
C010
4010
6030
30E0
0F80
ENDCHAR
STARTCHAR char80
ENCODING 80
SWIDTH 56 0
DWIDTH 10 0
BBX 7 13 2 0
BITMAP
F8
86
82
82
82
82
86
FC
80
80
80
80
80
ENDCHAR
STARTCHAR char81
ENCODING 81
SWIDTH 27 0
DWIDTH 15 0
BBX 13 13 1 0
BITMAP
0F80
30E0
6020
4010
C010
8018
8008
8018
C190
40D0
6070
30F0
0F90
ENDCHAR
STARTCHAR char82
ENCODING 82
SWIDTH 56 0
DWIDTH 10 0
BBX 8 13 2 0
BITMAP
F8
84
82
82
82
82
86
FC
88
8C
84
82
83
ENDCHAR
STARTCHAR char83
ENCODING 83
SWIDTH 4 0
DWIDTH 11 0
BBX 9 13 1 0
BITMAP
3E00
6300
C100
C000
4000
7000
1E00
0300
0100
0180
8100
6300
3E00
ENDCHAR
STARTCHAR char84
ENCODING 84
SWIDTH 56 0
DWIDTH 10 0
BBX 10 13 0 0
BITMAP
FFC0
0400
0400
0400
0400
0400
0400
0400
0400
0400
0400
0400
0400
ENDCHAR
STARTCHAR char85
ENCODING 85
SWIDTH 16 0
DWIDTH 13 0
BBX 10 13 2 0
BITMAP
8080
80C0
80C0
80C0
80C0
80C0
80C0
80C0
80C0
8080
8080
6300
3E00
ENDCHAR
STARTCHAR char86
ENCODING 86
SWIDTH 4 0
DWIDTH 11 0
BBX 11 13 0 0
BITMAP
C020
4020
4040
6040
20C0
3080
1080
1100
1900
0B00
0E00
0600
0400
ENDCHAR
STARTCHAR char87
ENCODING 87
SWIDTH 27 0
DWIDTH 15 0
BBX 15 13 0 0
BITMAP
C106
4104
4284
4284
628C
2288
2448
2448
1450
1450
1830
1830
0820
ENDCHAR
STARTCHAR char88
ENCODING 88
SWIDTH 4 0
DWIDTH 11 0
BBX 10 13 1 0
BITMAP
8080
C080
6100
2300
1600
1C00
0C00
1C00
3200
2300
4100
C080
80C0
ENDCHAR
STARTCHAR char89
ENCODING 89
SWIDTH 56 0
DWIDTH 10 0
BBX 10 13 0 0
BITMAP
8040
C0C0
6080
2180
3100
1200
0A00
0C00
0400
0400
0400
0400
0400
ENDCHAR
STARTCHAR char90
ENCODING 90
SWIDTH 10 0
DWIDTH 12 0
BBX 10 13 1 0
BITMAP
FFC0
0080
0180
0300
0200
0400
0800
1800
1000
2000
4000
C000
FFC0
ENDCHAR
STARTCHAR char91
ENCODING 91
SWIDTH 28 0
DWIDTH 5 0
BBX 4 17 1 -4
BITMAP
F0
80
80
80
80
80
80
80
80
80
80
80
80
80
80
80
F0
ENDCHAR
STARTCHAR char92
ENCODING 92
SWIDTH 44 0
DWIDTH 8 0
BBX 6 14 1 -1
BITMAP
80
80
C0
40
40
20
20
30
10
10
18
08
0C
04
ENDCHAR
STARTCHAR char93
ENCODING 93
SWIDTH 28 0
DWIDTH 5 0
BBX 4 17 0 -4
BITMAP
F0
10
10
10
10
10
10
10
10
10
10
10
10
10
10
10
F0
ENDCHAR
STARTCHAR char94
ENCODING 94
SWIDTH 44 0
DWIDTH 8 0
BBX 6 5 1 8
BITMAP
20
70
58
C8
84
ENDCHAR
STARTCHAR char95
ENCODING 95
SWIDTH 44 0
DWIDTH 8 0
BBX 9 1 -1 -1
BITMAP
FF80
ENDCHAR
STARTCHAR char96
ENCODING 96
SWIDTH 22 0
DWIDTH 4 0
BBX 3 3 1 10
BITMAP
80
C0
60
ENDCHAR
STARTCHAR char97
ENCODING 97
SWIDTH 4 0
DWIDTH 11 0
BBX 9 9 1 0
BITMAP
3E00
6300
C100
8080
8080
8080
C180
6380
3C80
ENDCHAR
STARTCHAR char98
ENCODING 98
SWIDTH 4 0
DWIDTH 11 0
BBX 9 13 1 0
BITMAP
C000
C000
C000
C000
DE00
E300
C080
C080
C080
4080
4080
2300
1E00
ENDCHAR
STARTCHAR char99
ENCODING 99
SWIDTH 56 0
DWIDTH 10 0
BBX 8 9 1 0
BITMAP
3C
63
C0
80
80
80
C0
62
3C
ENDCHAR
STARTCHAR char100
ENCODING 100
SWIDTH 4 0
DWIDTH 11 0
BBX 9 13 1 0
BITMAP
0080
0080
0080
0080
3C80
6280
C180
8080
8080
8080
C100
6300
3E00
ENDCHAR
STARTCHAR char101
ENCODING 101
SWIDTH 56 0
DWIDTH 10 0
BBX 8 9 1 0
BITMAP
3C
62
C1
81
FF
80
C0
63
3C
ENDCHAR
STARTCHAR char102
ENCODING 102
SWIDTH 33 0
DWIDTH 6 0
BBX 6 13 0 0
BITMAP
1C
30
20
20
FC
20
20
20
20
20
20
20
20
ENDCHAR
STARTCHAR char103
ENCODING 103
SWIDTH 4 0
DWIDTH 11 0
BBX 9 13 1 -4
BITMAP
3E00
6300
C100
8080
8080
8080
C180
6280
3C80
0180
C100
6300
3C00
ENDCHAR
STARTCHAR char104
ENCODING 104
SWIDTH 4 0
DWIDTH 11 0
BBX 9 13 1 0
BITMAP
C000
C000
C000
C000
DE00
E300
C100
C180
C180
C180
C180
C180
C180
ENDCHAR
STARTCHAR char105
ENCODING 105
SWIDTH 28 0
DWIDTH 5 0
BBX 2 13 1 0
BITMAP
40
C0
00
00
40
40
40
40
40
40
40
40
40
ENDCHAR
STARTCHAR char106
ENCODING 106
SWIDTH 28 0
DWIDTH 5 0
BBX 5 17 -2 -4
BITMAP
08
18
00
00
08
08
08
08
08
08
08
08
08
08
18
30
E0
ENDCHAR
STARTCHAR char107
ENCODING 107
SWIDTH 50 0
DWIDTH 9 0
BBX 7 13 1 0
BITMAP
C0
C0
C0
C0
C2
C4
C8
D0
F0
D8
CC
C6
C2
ENDCHAR
STARTCHAR char108
ENCODING 108
SWIDTH 28 0
DWIDTH 5 0
BBX 3 13 1 0
BITMAP
80
80
80
80
80
80
80
80
80
80
80
C0
60
ENDCHAR
STARTCHAR char109
ENCODING 109
SWIDTH 27 0
DWIDTH 15 0
BBX 13 9 1 0
BITMAP
FCE0
E710
C218
C208
C208
C208
C208
C208
C208
ENDCHAR
STARTCHAR char110
ENCODING 110
SWIDTH 4 0
DWIDTH 11 0
BBX 9 9 1 0
BITMAP
DE00
E300
C100
C180
C180
C180
C180
C180
C180
ENDCHAR
STARTCHAR char111
ENCODING 111
SWIDTH 4 0
DWIDTH 11 0
BBX 9 9 1 0
BITMAP
3E00
6300
C100
8080
8080
8080
C100
6300
3E00
ENDCHAR
STARTCHAR char112
ENCODING 112
SWIDTH 4 0
DWIDTH 11 0
BBX 9 13 1 -4
BITMAP
1E00
2300
4080
4080
C080
C080
C080
E300
DE00
C000
C000
C000
C000
ENDCHAR
STARTCHAR char113
ENCODING 113
SWIDTH 4 0
DWIDTH 11 0
BBX 9 13 1 -4
BITMAP
3E00
6300
C100
8080
8080
8080
C180
6380
3C80
0080
0080
0080
0080
ENDCHAR
STARTCHAR char114
ENCODING 114
SWIDTH 39 0
DWIDTH 7 0
BBX 6 9 1 0
BITMAP
DC
E0
C0
C0
C0
C0
C0
C0
C0
ENDCHAR
STARTCHAR char115
ENCODING 115
SWIDTH 50 0
DWIDTH 9 0
BBX 7 9 1 0
BITMAP
7C
C6
C0
40
3C
06
02
C6
7C
ENDCHAR
STARTCHAR char116
ENCODING 116
SWIDTH 33 0
DWIDTH 6 0
BBX 6 12 0 0
BITMAP
20
20
20
FC
20
20
20
20
20
20
30
1C
ENDCHAR
STARTCHAR char117
ENCODING 117
SWIDTH 4 0
DWIDTH 11 0
BBX 8 9 1 0
BITMAP
C1
C1
C1
C1
C1
C1
41
63
3D
ENDCHAR
STARTCHAR char118
ENCODING 118
SWIDTH 50 0
DWIDTH 9 0
BBX 9 9 0 0
BITMAP
8180
4100
4100
2200
2200
3400
1400
1C00
0800
ENDCHAR
STARTCHAR char119
ENCODING 119
SWIDTH 10 0
DWIDTH 12 0
BBX 12 9 0 0
BITMAP
8630
4620
4620
4E60
2940
2940
2940
3080
1080
ENDCHAR
STARTCHAR char120
ENCODING 120
SWIDTH 50 0
DWIDTH 9 0
BBX 7 9 1 0
BITMAP
82
C6
6C
28
10
28
4C
C6
82
ENDCHAR
STARTCHAR char121
ENCODING 121
SWIDTH 50 0
DWIDTH 9 0
BBX 9 13 0 -4
BITMAP
8180
4100
4100
2200
2200
1600
1400
1C00
0800
0800
1000
1000
2000
ENDCHAR
STARTCHAR char122
ENCODING 122
SWIDTH 50 0
DWIDTH 9 0
BBX 7 9 1 0
BITMAP
FE
06
0C
08
10
20
60
40
FE
ENDCHAR
STARTCHAR char123
ENCODING 123
SWIDTH 33 0
DWIDTH 6 0
BBX 5 17 1 -4
BITMAP
18
20
20
20
20
20
20
20
C0
60
20
20
20
20
20
20
18
ENDCHAR
STARTCHAR char124
ENCODING 124
SWIDTH 33 0
DWIDTH 6 0
BBX 2 17 2 -4
BITMAP
40
C0
C0
C0
C0
C0
C0
C0
C0
C0
C0
C0
C0
C0
C0
C0
40
ENDCHAR
STARTCHAR char125
ENCODING 125
SWIDTH 33 0
DWIDTH 6 0
BBX 5 17 0 -4
BITMAP
E0
20
20
20
20
20
20
20
18
30
20
20
20
20
20
20
E0
ENDCHAR
STARTCHAR char126
ENCODING 126
SWIDTH 44 0
DWIDTH 8 0
BBX 6 2 1 5
BITMAP
E4
9C
ENDCHAR
STARTCHAR char160
ENCODING 160
SWIDTH 28 0
DWIDTH 5 0
BBX 0 0 0 0
BITMAP
ENDCHAR
STARTCHAR char161
ENCODING 161
SWIDTH 22 0
DWIDTH 4 0
BBX 1 13 2 -4
BITMAP
80
80
00
80
80
80
80
80
80
80
80
80
80
ENDCHAR
STARTCHAR char162
ENCODING 162
SWIDTH 56 0
DWIDTH 10 0
BBX 8 12 1 -1
BITMAP
02
04
3C
67
C8
88
90
90
D0
62
3C
60
ENDCHAR
STARTCHAR char163
ENCODING 163
SWIDTH 44 0
DWIDTH 8 0
BBX 7 13 1 0
BITMAP
38
4C
C4
C0
C0
40
40
F8
40
40
40
42
FE
ENDCHAR
STARTCHAR char164
ENCODING 164
SWIDTH 44 0
DWIDTH 8 0
BBX 6 7 1 2
BITMAP
FC
CC
CC
C4
CC
FC
84
ENDCHAR
STARTCHAR char165
ENCODING 165
SWIDTH 56 0
DWIDTH 10 0
BBX 10 13 0 0
BITMAP
8040
C0C0
6080
2180
3100
1200
0E00
3F00
0400
3F00
0400
0400
0400
ENDCHAR
STARTCHAR char166
ENCODING 166
SWIDTH 22 0
DWIDTH 4 0
BBX 2 18 1 -4
BITMAP
80
C0
C0
C0
C0
C0
80
00
00
00
00
80
C0
C0
C0
C0
C0
80
ENDCHAR
STARTCHAR char167
ENCODING 167
SWIDTH 44 0
DWIDTH 8 0
BBX 6 17 1 -4
BITMAP
70
C8
8C
84
80
C0
70
C8
84
84
8C
78
0C
84
84
C8
78
ENDCHAR
STARTCHAR char168
ENCODING 168
SWIDTH 44 0
DWIDTH 8 0
BBX 5 2 1 10
BITMAP
48
C8
ENDCHAR
STARTCHAR char169
ENCODING 169
SWIDTH 21 0
DWIDTH 14 0
BBX 12 13 1 0
BITMAP
0F00
30C0
6060
CF20
9990
B010
A010
A010
B010
D0B0
4F20
30C0
1F80
ENDCHAR
STARTCHAR char170
ENCODING 170
SWIDTH 44 0
DWIDTH 8 0
BBX 6 6 1 7
BITMAP
78
CC
84
84
8C
7C
ENDCHAR
STARTCHAR char171
ENCODING 171
SWIDTH 44 0
DWIDTH 8 0
BBX 6 9 1 0
BITMAP
24
4C
48
98
90
98
48
4C
64
ENDCHAR
STARTCHAR char172
ENCODING 172
SWIDTH 50 0
DWIDTH 9 0
BBX 7 4 1 5
BITMAP
FE
02
02
02
ENDCHAR
STARTCHAR char173
ENCODING 173
SWIDTH 33 0
DWIDTH 6 0
BBX 5 1 1 4
BITMAP
F8
ENDCHAR
STARTCHAR char174
ENCODING 174
SWIDTH 21 0
DWIDTH 14 0
BBX 12 13 1 0
BITMAP
0F00
30C0
6060
CF20
8910
8890
8910
8F10
8B10
C930
48A0
30C0
1F80
ENDCHAR
STARTCHAR char175
ENCODING 175
SWIDTH 50 0
DWIDTH 9 0
BBX 5 1 2 11
BITMAP
F8
ENDCHAR
STARTCHAR char176
ENCODING 176
SWIDTH 44 0
DWIDTH 8 0
BBX 6 6 1 7
BITMAP
70
C8
84
84
8C
78
ENDCHAR
STARTCHAR char177
ENCODING 177
SWIDTH 50 0
DWIDTH 9 0
BBX 7 10 1 0
BITMAP
10
10
10
FE
10
10
10
10
00
FE
ENDCHAR
STARTCHAR char178
ENCODING 178
SWIDTH 33 0
DWIDTH 6 0
BBX 4 7 1 6
BITMAP
E0
90
90
20
60
C0
F0
ENDCHAR
STARTCHAR char179
ENCODING 179
SWIDTH 33 0
DWIDTH 6 0
BBX 4 7 1 6
BITMAP
E0
90
60
10
90
90
E0
ENDCHAR
STARTCHAR char180
ENCODING 180
SWIDTH 22 0
DWIDTH 4 0
BBX 3 3 1 10
BITMAP
60
C0
80
ENDCHAR
STARTCHAR char181
ENCODING 181
SWIDTH 4 0
DWIDTH 11 0
BBX 8 13 1 -4
BITMAP
C1
C1
C1
C1
C1
C1
C1
E3
DD
C0
C0
C0
C0
ENDCHAR
STARTCHAR char182
ENCODING 182
SWIDTH 50 0
DWIDTH 9 0
BBX 7 13 1 0
BITMAP
7E
F2
F2
F2
F2
72
12
12
12
12
12
12
12
ENDCHAR
STARTCHAR char183
ENCODING 183
SWIDTH 16 0
DWIDTH 3 0
BBX 1 2 1 5
BITMAP
80
80
ENDCHAR
STARTCHAR char184
ENCODING 184
SWIDTH 28 0
DWIDTH 5 0
BBX 5 4 0 -4
BITMAP
20
30
D8
70
ENDCHAR
STARTCHAR char185
ENCODING 185
SWIDTH 22 0
DWIDTH 4 0
BBX 3 6 0 7
BITMAP
60
A0
20
20
20
20
ENDCHAR
STARTCHAR char186
ENCODING 186
SWIDTH 44 0
DWIDTH 8 0
BBX 6 6 1 7
BITMAP
78
C8
84
84
8C
78
ENDCHAR
STARTCHAR char187
ENCODING 187
SWIDTH 44 0
DWIDTH 8 0
BBX 6 9 1 0
BITMAP
90
98
C8
4C
64
4C
C8
98
90
ENDCHAR
STARTCHAR char188
ENCODING 188
SWIDTH 10 0
DWIDTH 12 0
BBX 12 13 0 0
BITMAP
6040
A040
2080
2180
2100
2200
0660
04E0
08E0
0960
13F0
2060
2060
ENDCHAR
STARTCHAR char189
ENCODING 189
SWIDTH 16 0
DWIDTH 13 0
BBX 12 13 0 0
BITMAP
6020
A060
2040
2080
2080
2100
0370
0290
0490
0C30
0820
1040
10F0
ENDCHAR
STARTCHAR char190
ENCODING 190
SWIDTH 16 0
DWIDTH 13 0
BBX 12 13 1 0
BITMAP
E040
90C0
6080
1100
9300
9200
E460
0460
08A0
1120
13F0
2020
6020
ENDCHAR
STARTCHAR char191
ENCODING 191
SWIDTH 50 0
DWIDTH 9 0
BBX 7 13 1 -3
BITMAP
10
30
00
10
10
20
60
C0
80
82
82
C6
7C
ENDCHAR
STARTCHAR char192
ENCODING 192
SWIDTH 4 0
DWIDTH 11 0
BBX 11 17 0 0
BITMAP
1800
0C00
0400
0000
0400
0600
0E00
0A00
1900
1100
1180
3080
20C0
7FC0
4040
4060
C020
ENDCHAR
STARTCHAR char193
ENCODING 193
SWIDTH 4 0
DWIDTH 11 0
BBX 11 17 0 0
BITMAP
0100
0200
0400
0000
0400
0600
0E00
0A00
1900
1100
1180
3080
20C0
7FC0
4040
4060
C020
ENDCHAR
STARTCHAR char194
ENCODING 194
SWIDTH 4 0
DWIDTH 11 0
BBX 11 17 0 0
BITMAP
0400
0E00
1900
0000
0400
0600
0E00
0A00
1900
1100
1180
3080
20C0
7FC0
4040
4060
C020
ENDCHAR
STARTCHAR char195
ENCODING 195
SWIDTH 4 0
DWIDTH 11 0
BBX 11 17 0 0
BITMAP
0D00
1700
0000
0000
0400
0600
0E00
0A00
1900
1100
1180
3080
20C0
7FC0
4040
4060
C020
ENDCHAR
STARTCHAR char196
ENCODING 196
SWIDTH 4 0
DWIDTH 11 0
BBX 11 17 0 0
BITMAP
1900
1B00
0000
0000
0400
0600
0E00
0A00
1900
1100
1180
3080
20C0
7FC0
4040
4060
C020
ENDCHAR
STARTCHAR char197
ENCODING 197
SWIDTH 4 0
DWIDTH 11 0
BBX 11 17 0 0
BITMAP
0E00
0A00
0E00
0000
0400
0600
0E00
0A00
1900
1100
1180
3080
20C0
7FC0
4040
4060
C020
ENDCHAR
STARTCHAR char198
ENCODING 198
SWIDTH 27 0
DWIDTH 15 0
BBX 15 13 0 0
BITMAP
01FE
0100
0300
0700
0500
0D00
09F8
1900
3100
3F00
6100
4100
C1FE
ENDCHAR
STARTCHAR char199
ENCODING 199
SWIDTH 10 0
DWIDTH 12 0
BBX 10 17 1 -4
BITMAP
0F80
30C0
6000
4000
C000
8000
8000
8000
C000
4000
6000
3040
1F80
0600
0300
0900
0F00
ENDCHAR
STARTCHAR char200
ENCODING 200
SWIDTH 4 0
DWIDTH 11 0
BBX 8 17 2 0
BITMAP
20
30
18
00
FF
80
80
80
80
80
FC
80
80
80
80
80
FF
ENDCHAR
STARTCHAR char201
ENCODING 201
SWIDTH 4 0
DWIDTH 11 0
BBX 8 17 2 0
BITMAP
04
0C
18
00
FF
80
80
80
80
80
FC
80
80
80
80
80
FF
ENDCHAR
STARTCHAR char202
ENCODING 202
SWIDTH 4 0
DWIDTH 11 0
BBX 8 17 2 0
BITMAP
08
3C
26
00
FF
80
80
80
80
80
FC
80
80
80
80
80
FF
ENDCHAR
STARTCHAR char203
ENCODING 203
SWIDTH 4 0
DWIDTH 11 0
BBX 8 17 2 0
BITMAP
24
26
00
00
FF
80
80
80
80
80
FC
80
80
80
80
80
FF
ENDCHAR
STARTCHAR char204
ENCODING 204
SWIDTH 22 0
DWIDTH 4 0
BBX 3 17 0 0
BITMAP
80
C0
60
00
20
20
20
20
20
20
20
20
20
20
20
20
20
ENDCHAR
STARTCHAR char205
ENCODING 205
SWIDTH 22 0
DWIDTH 4 0
BBX 4 17 1 0
BITMAP
30
60
C0
00
40
40
40
40
40
40
40
40
40
40
40
40
40
ENDCHAR
STARTCHAR char206
ENCODING 206
SWIDTH 22 0
DWIDTH 4 0
BBX 5 17 0 0
BITMAP
20
70
98
00
20
20
20
20
20
20
20
20
20
20
20
20
20
ENDCHAR
STARTCHAR char207
ENCODING 207
SWIDTH 22 0
DWIDTH 4 0
BBX 5 17 0 0
BITMAP
98
98
00
00
20
20
20
20
20
20
20
20
20
20
20
20
20
ENDCHAR
STARTCHAR char208
ENCODING 208
SWIDTH 10 0
DWIDTH 12 0
BBX 11 13 0 0
BITMAP
3F00
2180
2040
2060
2020
2020
FC20
2020
2020
2060
2040
2180
3F00
ENDCHAR
STARTCHAR char209
ENCODING 209
SWIDTH 16 0
DWIDTH 13 0
BBX 10 16 2 0
BITMAP
3900
2700
0000
80C0
C0C0
C0C0
A0C0
B0C0
98C0
88C0
84C0
86C0
82C0
81C0
80C0
80C0
ENDCHAR
STARTCHAR char210
ENCODING 210
SWIDTH 27 0
DWIDTH 15 0
BBX 13 17 1 0
BITMAP
0800
0400
0200
0000
0F80
30E0
6030
4010
C010
8018
8008
8018
C010
4010
6030
30E0
0F80
ENDCHAR
STARTCHAR char211
ENCODING 211
SWIDTH 27 0
DWIDTH 15 0
BBX 13 17 1 0
BITMAP
0180
0300
0200
0000
0F80
30E0
6030
4010
C010
8018
8008
8018
C010
4010
6030
30E0
0F80
ENDCHAR
STARTCHAR char212
ENCODING 212
SWIDTH 27 0
DWIDTH 15 0
BBX 13 17 1 0
BITMAP
0200
0700
0980
0000
0F80
30E0
6030
4010
C010
8018
8008
8018
C010
4010
6030
30E0
0F80
ENDCHAR
STARTCHAR char213
ENCODING 213
SWIDTH 27 0
DWIDTH 15 0
BBX 13 16 1 0
BITMAP
0E40
1BC0
0000
0F80
30E0
6030
4010
C010
8018
8008
8018
C010
4010
6030
30E0
0F80
ENDCHAR
STARTCHAR char214
ENCODING 214
SWIDTH 27 0
DWIDTH 15 0
BBX 13 17 1 0
BITMAP
0980
0D80
0000
0000
0F80
30E0
6030
4010
C010
8018
8008
8018
C010
4010
6030
30E0
0F80
ENDCHAR
STARTCHAR char215
ENCODING 215
SWIDTH 44 0
DWIDTH 8 0
BBX 6 6 1 3
BITMAP
8C
D8
70
70
D8
8C
ENDCHAR
STARTCHAR char216
ENCODING 216
SWIDTH 21 0
DWIDTH 14 0
BBX 13 13 1 0
BITMAP
0F88
30F0
6020
4050
C090
8118
8208
8418
C810
5010
6030
70E0
8F80
ENDCHAR
STARTCHAR char217
ENCODING 217
SWIDTH 16 0
DWIDTH 13 0
BBX 10 17 2 0
BITMAP
3000
1800
0800
0000
8080
80C0
80C0
80C0
80C0
80C0
80C0
80C0
80C0
8080
8080
6300
3E00
ENDCHAR
STARTCHAR char218
ENCODING 218
SWIDTH 16 0
DWIDTH 13 0
BBX 10 17 2 0
BITMAP
0600
0C00
0800
0000
8080
80C0
80C0
80C0
80C0
80C0
80C0
80C0
80C0
8080
8080
6300
3E00
ENDCHAR
STARTCHAR char219
ENCODING 219
SWIDTH 16 0
DWIDTH 13 0
BBX 10 17 2 0
BITMAP
0800
1C00
3200
0000
8080
80C0
80C0
80C0
80C0
80C0
80C0
80C0
80C0
8080
8080
6300
3E00
ENDCHAR
STARTCHAR char220
ENCODING 220
SWIDTH 16 0
DWIDTH 13 0
BBX 10 17 2 0
BITMAP
3200
3600
0000
0000
8080
80C0
80C0
80C0
80C0
80C0
80C0
80C0
80C0
8080
8080
6300
3E00
ENDCHAR
STARTCHAR char221
ENCODING 221
SWIDTH 56 0
DWIDTH 10 0
BBX 10 17 0 0
BITMAP
0200
0600
0C00
0000
8040
C0C0
6080
2180
3100
1200
0A00
0C00
0400
0400
0400
0400
0400
ENDCHAR
STARTCHAR char222
ENCODING 222
SWIDTH 56 0
DWIDTH 10 0
BBX 7 13 2 0
BITMAP
80
80
F8
86
82
82
82
82
86
FC
80
80
80
ENDCHAR
STARTCHAR char223
ENCODING 223
SWIDTH 50 0
DWIDTH 9 0
BBX 7 13 1 0
BITMAP
78
CC
84
84
8C
88
88
8C
86
82
82
A6
BC
ENDCHAR
STARTCHAR char224
ENCODING 224
SWIDTH 4 0
DWIDTH 11 0
BBX 9 13 1 0
BITMAP
2000
1000
0800
0000
3E00
6300
C100
8080
8080
8080
C180
6380
3C80
ENDCHAR
STARTCHAR char225
ENCODING 225
SWIDTH 4 0
DWIDTH 11 0
BBX 9 13 1 0
BITMAP
0600
0C00
0800
0000
3E00
6300
C100
8080
8080
8080
C180
6380
3C80
ENDCHAR
STARTCHAR char226
ENCODING 226
SWIDTH 4 0
DWIDTH 11 0
BBX 9 13 1 0
BITMAP
0800
1C00
2600
0000
3E00
6300
C100
8080
8080
8080
C180
6380
3C80
ENDCHAR
STARTCHAR char227
ENCODING 227
SWIDTH 4 0
DWIDTH 11 0
BBX 9 12 1 0
BITMAP
3900
6F00
0000
3E00
6300
C100
8080
8080
8080
C180
6380
3C80
ENDCHAR
STARTCHAR char228
ENCODING 228
SWIDTH 4 0
DWIDTH 11 0
BBX 9 13 1 0
BITMAP
2600
3600
0000
0000
3E00
6300
C100
8080
8080
8080
C180
6380
3C80
ENDCHAR
STARTCHAR char229
ENCODING 229
SWIDTH 4 0
DWIDTH 11 0
BBX 9 13 1 0
BITMAP
1C00
1400
1C00
0000
3E00
6300
C100
8080
8080
8080
C180
6380
3C80
ENDCHAR
STARTCHAR char230
ENCODING 230
SWIDTH 44 0
DWIDTH 18 0
BBX 16 9 1 0
BITMAP
3C3C
6346
C183
8081
80FF
8080
C180
63C2
3CBC
ENDCHAR
STARTCHAR char231
ENCODING 231
SWIDTH 56 0
DWIDTH 10 0
BBX 8 13 1 -4
BITMAP
3C
63
C2
80
80
80
C0
42
3E
18
0C
24
3C
ENDCHAR
STARTCHAR char232
ENCODING 232
SWIDTH 56 0
DWIDTH 10 0
BBX 8 13 1 0
BITMAP
20
30
18
00
3C
62
C1
81
FF
80
C0
63
3C
ENDCHAR
STARTCHAR char233
ENCODING 233
SWIDTH 56 0
DWIDTH 10 0
BBX 8 13 1 0
BITMAP
04
0C
18
00
3C
62
C1
81
FF
80
C0
63
3C
ENDCHAR
STARTCHAR char234
ENCODING 234
SWIDTH 56 0
DWIDTH 10 0
BBX 8 13 1 0
BITMAP
08
3C
26
00
3C
62
C1
81
FF
80
C0
63
3C
ENDCHAR
STARTCHAR char235
ENCODING 235
SWIDTH 56 0
DWIDTH 10 0
BBX 8 13 1 0
BITMAP
24
26
00
00
3C
62
C1
81
FF
80
C0
63
3C
ENDCHAR
STARTCHAR char236
ENCODING 236
SWIDTH 28 0
DWIDTH 5 0
BBX 3 13 0 0
BITMAP
80
40
20
00
20
20
20
20
20
20
20
20
20
ENDCHAR
STARTCHAR char237
ENCODING 237
SWIDTH 28 0
DWIDTH 5 0
BBX 3 13 2 0
BITMAP
60
C0
80
00
80
80
80
80
80
80
80
80
80
ENDCHAR
STARTCHAR char238
ENCODING 238
SWIDTH 28 0
DWIDTH 5 0
BBX 5 13 0 0
BITMAP
60
D0
88
00
20
20
20
20
20
20
20
20
20
ENDCHAR
STARTCHAR char239
ENCODING 239
SWIDTH 28 0
DWIDTH 5 0
BBX 5 13 0 0
BITMAP
D8
98
00
00
20
20
20
20
20
20
20
20
20
ENDCHAR
STARTCHAR char240
ENCODING 240
SWIDTH 4 0
DWIDTH 11 0
BBX 9 14 1 0
BITMAP
0800
3800
1C00
1200
0100
3D00
6300
C180
8180
8180
8100
C100
6300
3C00
ENDCHAR
STARTCHAR char241
ENCODING 241
SWIDTH 4 0
DWIDTH 11 0
BBX 9 12 1 0
BITMAP
3900
6F00
0000
DE00
E300
C100
C180
C180
C180
C180
C180
C180
ENDCHAR
STARTCHAR char242
ENCODING 242
SWIDTH 4 0
DWIDTH 11 0
BBX 9 13 1 0
BITMAP
2000
1000
0800
0000
3E00
6300
C100
8080
8080
8080
C100
6300
3E00
ENDCHAR
STARTCHAR char243
ENCODING 243
SWIDTH 4 0
DWIDTH 11 0
BBX 9 13 1 0
BITMAP
0600
0C00
0800
0000
3E00
6300
C100
8080
8080
8080
C100
6300
3E00
ENDCHAR
STARTCHAR char244
ENCODING 244
SWIDTH 4 0
DWIDTH 11 0
BBX 9 13 1 0
BITMAP
0800
1C00
2600
0000
3E00
6300
C100
8080
8080
8080
C100
6300
3E00
ENDCHAR
STARTCHAR char245
ENCODING 245
SWIDTH 4 0
DWIDTH 11 0
BBX 9 12 1 0
BITMAP
3900
6F00
0000
3E00
6300
C100
8080
8080
8080
C100
6300
3E00
ENDCHAR
STARTCHAR char246
ENCODING 246
SWIDTH 4 0
DWIDTH 11 0
BBX 9 13 1 0
BITMAP
2600
3600
0000
0000
3E00
6300
C100
8080
8080
8080
C100
6300
3E00
ENDCHAR
STARTCHAR char247
ENCODING 247
SWIDTH 44 0
DWIDTH 8 0
BBX 6 6 1 3
BITMAP
30
00
FC
00
00
30
ENDCHAR
STARTCHAR char248
ENCODING 248
SWIDTH 4 0
DWIDTH 11 0
BBX 9 9 1 0
BITMAP
1E80
6300
4380
C480
8880
D080
6180
6300
9E00
ENDCHAR
STARTCHAR char249
ENCODING 249
SWIDTH 4 0
DWIDTH 11 0
BBX 8 13 1 0
BITMAP
20
10
08
00
C1
C1
C1
C1
C1
C1
41
63
3D
ENDCHAR
STARTCHAR char250
ENCODING 250
SWIDTH 4 0
DWIDTH 11 0
BBX 8 13 1 0
BITMAP
06
0C
08
00
C1
C1
C1
C1
C1
C1
41
63
3D
ENDCHAR
STARTCHAR char251
ENCODING 251
SWIDTH 4 0
DWIDTH 11 0
BBX 8 13 1 0
BITMAP
08
1C
26
00
C1
C1
C1
C1
C1
C1
41
63
3D
ENDCHAR
STARTCHAR char252
ENCODING 252
SWIDTH 4 0
DWIDTH 11 0
BBX 8 13 1 0
BITMAP
26
36
00
00
C1
C1
C1
C1
C1
C1
41
63
3D
ENDCHAR
STARTCHAR char253
ENCODING 253
SWIDTH 50 0
DWIDTH 9 0
BBX 9 17 0 -4
BITMAP
0600
0C00
0800
0000
8180
4100
4100
2200
2200
1600
1400
1C00
0800
0800
1000
1000
2000
ENDCHAR
STARTCHAR char254
ENCODING 254
SWIDTH 4 0
DWIDTH 11 0
BBX 9 17 1 -4
BITMAP
C000
C000
C000
C000
DE00
E300
C080
C080
C080
C080
C080
E300
DE00
C000
C000
C000
C000
ENDCHAR
STARTCHAR char255
ENCODING 255
SWIDTH 50 0
DWIDTH 9 0
BBX 9 17 0 -4
BITMAP
3600
3600
0000
0000
8180
4100
4100
2200
2200
1600
1400
1C00
0800
0800
1000
1000
2000
ENDCHAR
STARTCHAR char256
ENCODING 256
SWIDTH 4 0
DWIDTH 11 0
BBX 11 16 0 0
BITMAP
1F00
0000
0000
0400
0600
0E00
0A00
1900
1100
1180
3080
20C0
7FC0
4040
4060
C020
ENDCHAR
STARTCHAR char257
ENCODING 257
SWIDTH 4 0
DWIDTH 11 0
BBX 9 12 1 0
BITMAP
3E00
0000
0000
3E00
6300
C100
8080
8080
8080
C180
6380
3C80
ENDCHAR
STARTCHAR char258
ENCODING 258
SWIDTH 4 0
DWIDTH 11 0
BBX 11 16 0 0
BITMAP
1100
0F00
0000
0400
0600
0E00
0A00
1900
1100
1180
3080
20C0
7FC0
4040
4060
C020
ENDCHAR
STARTCHAR char259
ENCODING 259
SWIDTH 4 0
DWIDTH 11 0
BBX 9 12 1 0
BITMAP
2200
1C00
0000
3E00
6300
C100
8080
8080
8080
C180
6380
3C80
ENDCHAR
STARTCHAR char260
ENCODING 260
SWIDTH 4 0
DWIDTH 11 0
BBX 12 17 0 -4
BITMAP
0400
0600
0E00
0A00
1900
1100
1180
3080
20C0
7FC0
4040
4060
C020
0060
0040
00D0
0070
ENDCHAR
STARTCHAR char261
ENCODING 261
SWIDTH 4 0
DWIDTH 11 0
BBX 11 13 1 -4
BITMAP
3E00
6300
C100
8080
8080
8080
C180
6380
3C80
0080
0180
0160
01C0
ENDCHAR
STARTCHAR char262
ENCODING 262
SWIDTH 10 0
DWIDTH 12 0
BBX 10 17 1 0
BITMAP
0100
0300
0600
0000
0F80
30C0
6000
4000
C000
8000
8000
8000
C000
4000
6000
30C0
0F80
ENDCHAR
STARTCHAR char263
ENCODING 263
SWIDTH 56 0
DWIDTH 10 0
BBX 8 13 1 0
BITMAP
04
0C
18
00
3C
63
C0
80
80
80
C0
62
3C
ENDCHAR
STARTCHAR char264
ENCODING 264
SWIDTH 10 0
DWIDTH 12 0
BBX 10 17 1 0
BITMAP
0200
0F00
0980
0000
0F80
30C0
6000
4000
C000
8000
8000
8000
C000
4000
6000
30C0
0F80
ENDCHAR
STARTCHAR char265
ENCODING 265
SWIDTH 56 0
DWIDTH 10 0
BBX 8 13 1 0
BITMAP
08
1C
26
00
3C
63
C0
80
80
80
C0
62
3C
ENDCHAR
STARTCHAR char266
ENCODING 266
SWIDTH 10 0
DWIDTH 12 0
BBX 10 17 1 0
BITMAP
0600
0600
0000
0000
0F80
30C0
6000
4000
C000
8000
8000
8000
C000
4000
6000
30C0
0F80
ENDCHAR
STARTCHAR char267
ENCODING 267
SWIDTH 56 0
DWIDTH 10 0
BBX 8 13 1 0
BITMAP
18
18
00
00
3C
63
C0
80
80
80
C0
62
3C
ENDCHAR
STARTCHAR char268
ENCODING 268
SWIDTH 10 0
DWIDTH 12 0
BBX 10 17 1 0
BITMAP
0880
0F00
0600
0000
0F80
30C0
6000
4000
C000
8000
8000
8000
C000
4000
6000
30C0
0F80
ENDCHAR
STARTCHAR char269
ENCODING 269
SWIDTH 56 0
DWIDTH 10 0
BBX 8 13 1 0
BITMAP
22
34
18
00
3C
63
C0
80
80
80
C0
62
3C
ENDCHAR
STARTCHAR char270
ENCODING 270
SWIDTH 10 0
DWIDTH 12 0
BBX 9 17 2 0
BITMAP
2200
3400
1800
0000
FC00
8600
8100
8180
8080
8080
8080
8080
8080
8180
8100
8600
FC00
ENDCHAR
STARTCHAR char271
ENCODING 271
SWIDTH 16 0
DWIDTH 13 0
BBX 12 13 1 0
BITMAP
00B0
00B0
00A0
00A0
3C80
6280
C180
8080
8080
8080
C100
6300
3E00
ENDCHAR
STARTCHAR char272
ENCODING 272
SWIDTH 10 0
DWIDTH 12 0
BBX 11 13 0 0
BITMAP
3F00
2180
2040
2060
2020
2020
FC20
2020
2020
2060
2040
2180
3F00
ENDCHAR
STARTCHAR char273
ENCODING 273
SWIDTH 4 0
DWIDTH 11 0
BBX 10 13 1 0
BITMAP
0080
0080
0FC0
0080
3C80
6280
C180
8080
8080
8080
C100
6300
3E00
ENDCHAR
STARTCHAR char274
ENCODING 274
SWIDTH 4 0
DWIDTH 11 0
BBX 8 16 2 0
BITMAP
7E
00
00
FF
80
80
80
80
80
FC
80
80
80
80
80
FF
ENDCHAR
STARTCHAR char275
ENCODING 275
SWIDTH 56 0
DWIDTH 10 0
BBX 8 12 1 0
BITMAP
7E
00
00
3C
62
C1
81
FF
80
C0
63
3C
ENDCHAR
STARTCHAR char276
ENCODING 276
SWIDTH 4 0
DWIDTH 11 0
BBX 8 16 2 0
BITMAP
26
3C
00
FF
80
80
80
80
80
FC
80
80
80
80
80
FF
ENDCHAR
STARTCHAR char277
ENCODING 277
SWIDTH 56 0
DWIDTH 10 0
BBX 8 12 1 0
BITMAP
26
3C
00
3C
62
C1
81
FF
80
C0
63
3C
ENDCHAR
STARTCHAR char278
ENCODING 278
SWIDTH 4 0
DWIDTH 11 0
BBX 8 17 2 0
BITMAP
18
18
00
00
FF
80
80
80
80
80
FC
80
80
80
80
80
FF
ENDCHAR
STARTCHAR char279
ENCODING 279
SWIDTH 56 0
DWIDTH 10 0
BBX 8 13 1 0
BITMAP
18
18
00
00
3C
62
C1
81
FF
80
C0
63
3C
ENDCHAR
STARTCHAR char280
ENCODING 280
SWIDTH 4 0
DWIDTH 11 0
BBX 10 17 2 -4
BITMAP
FF00
8000
8000
8000
8000
8000
FC00
8000
8000
8000
8000
8000
FF00
0180
0300
0240
01C0
ENDCHAR
STARTCHAR char281
ENCODING 281
SWIDTH 56 0
DWIDTH 10 0
BBX 8 12 1 -3
BITMAP
3C
62
C1
81
FF
80
C0
63
3E
0C
0A
0E
ENDCHAR
STARTCHAR char282
ENCODING 282
SWIDTH 4 0
DWIDTH 11 0
BBX 8 17 2 0
BITMAP
22
3C
18
00
FF
80
80
80
80
80
FC
80
80
80
80
80
FF
ENDCHAR
STARTCHAR char283
ENCODING 283
SWIDTH 56 0
DWIDTH 10 0
BBX 8 13 1 0
BITMAP
22
3C
18
00
3C
62
C1
81
FF
80
C0
63
3C
ENDCHAR
STARTCHAR char284
ENCODING 284
SWIDTH 10 0
DWIDTH 12 0
BBX 10 17 1 0
BITMAP
0200
0F00
0980
0000
0F80
30C0
6000
4000
C000
8000
83C0
8040
C040
4040
6040
30C0
0F80
ENDCHAR
STARTCHAR char285
ENCODING 285
SWIDTH 4 0
DWIDTH 11 0
BBX 9 17 1 -4
BITMAP
0800
1C00
2600
0000
3E00
6300
C100
8080
8080
8080
C180
6280
3C80
0180
C100
6300
3C00
ENDCHAR
STARTCHAR char286
ENCODING 286
SWIDTH 10 0
DWIDTH 12 0
BBX 10 16 1 0
BITMAP
0980
0F00
0000
0F80
30C0
6000
4000
C000
8000
83C0
8040
C040
4040
6040
30C0
0F80
ENDCHAR
STARTCHAR char287
ENCODING 287
SWIDTH 4 0
DWIDTH 11 0
BBX 9 16 1 -4
BITMAP
2200
1C00
0000
3E00
6300
C100
8080
8080
8080
C180
6280
3C80
0180
C100
6300
3C00
ENDCHAR
STARTCHAR char288
ENCODING 288
SWIDTH 10 0
DWIDTH 12 0
BBX 10 17 1 0
BITMAP
0600
0600
0000
0000
0F80
30C0
6000
4000
C000
8000
83C0
8040
C040
4040
6040
30C0
0F80
ENDCHAR
STARTCHAR char289
ENCODING 289
SWIDTH 4 0
DWIDTH 11 0
BBX 9 17 1 -4
BITMAP
0800
0800
0000
0000
3E00
6300
C100
8080
8080
8080
C180
6280
3C80
0180
C100
6300
3C00
ENDCHAR
STARTCHAR char290
ENCODING 290
SWIDTH 10 0
DWIDTH 12 0
BBX 10 17 1 -4
BITMAP
0F80
30C0
6000
4000
C000
8000
83C0
8040
C040
4040
6040
30C0
0F80
0000
0600
0100
0F00
ENDCHAR
STARTCHAR char291
ENCODING 291
SWIDTH 4 0
DWIDTH 11 0
BBX 9 19 1 -4
BITMAP
0800
0800
1800
0800
0000
0000
3E00
6300
C100
8080
8080
8080
C180
6280
3C80
0180
C100
6300
3C00
ENDCHAR
STARTCHAR char292
ENCODING 292
SWIDTH 21 0
DWIDTH 14 0
BBX 10 17 2 0
BITMAP
0800
1C00
3200
0000
8040
8040
8040
8040
8040
8040
FFC0
8040
8040
8040
8040
8040
8040
ENDCHAR
STARTCHAR char293
ENCODING 293
SWIDTH 4 0
DWIDTH 11 0
BBX 10 17 0 0
BITMAP
2000
F000
9800
0000
6000
6000
6000
6000
6F00
7180
6080
60C0
60C0
60C0
60C0
60C0
60C0
ENDCHAR
STARTCHAR char294
ENCODING 294
SWIDTH 21 0
DWIDTH 14 0
BBX 13 13 0 0
BITMAP
2010
2010
FFF8
2010
2010
2010
3FF0
2010
2010
2010
2010
2010
2010
ENDCHAR
STARTCHAR char295
ENCODING 295
SWIDTH 4 0
DWIDTH 11 0
BBX 10 13 0 0
BITMAP
6000
6000
FC00
6000
6F00
7180
6080
60C0
60C0
60C0
60C0
60C0
60C0
ENDCHAR
STARTCHAR char296
ENCODING 296
SWIDTH 22 0
DWIDTH 4 0
BBX 5 17 0 0
BITMAP
C8
B0
00
00
20
20
20
20
20
20
20
20
20
20
20
20
20
ENDCHAR
STARTCHAR char297
ENCODING 297
SWIDTH 28 0
DWIDTH 5 0
BBX 5 13 0 0
BITMAP
C8
B0
00
00
20
20
20
20
20
20
20
20
20
ENDCHAR
STARTCHAR char298
ENCODING 298
SWIDTH 22 0
DWIDTH 4 0
BBX 5 16 0 0
BITMAP
F8
00
00
20
20
20
20
20
20
20
20
20
20
20
20
20
ENDCHAR
STARTCHAR char299
ENCODING 299
SWIDTH 28 0
DWIDTH 5 0
BBX 4 12 0 0
BITMAP
F0
00
00
20
20
20
20
20
20
20
20
20
ENDCHAR
STARTCHAR char300
ENCODING 300
SWIDTH 22 0
DWIDTH 4 0
BBX 5 16 0 0
BITMAP
98
F0
00
20
20
20
20
20
20
20
20
20
20
20
20
20
ENDCHAR
STARTCHAR char301
ENCODING 301
SWIDTH 28 0
DWIDTH 5 0
BBX 5 13 0 0
BITMAP
88
90
70
00
20
20
20
20
20
20
20
20
20
ENDCHAR
STARTCHAR char302
ENCODING 302
SWIDTH 22 0
DWIDTH 4 0
BBX 4 17 0 -4
BITMAP
20
20
20
20
20
20
20
20
20
20
20
20
20
60
40
D0
70
ENDCHAR
STARTCHAR char303
ENCODING 303
SWIDTH 28 0
DWIDTH 5 0
BBX 4 17 0 -4
BITMAP
60
20
00
00
20
20
20
20
20
20
20
20
20
20
40
D0
70
ENDCHAR
STARTCHAR char304
ENCODING 304
SWIDTH 22 0
DWIDTH 4 0
BBX 2 17 1 0
BITMAP
40
C0
00
00
40
40
40
40
40
40
40
40
40
40
40
40
40
ENDCHAR
STARTCHAR char305
ENCODING 305
SWIDTH 28 0
DWIDTH 5 0
BBX 1 9 2 0
BITMAP
80
80
80
80
80
80
80
80
80
ENDCHAR
STARTCHAR char306
ENCODING 306
SWIDTH 56 0
DWIDTH 10 0
BBX 7 13 2 0
BITMAP
86
86
86
86
86
86
86
86
06
86
84
CC
78
ENDCHAR
STARTCHAR char307
ENCODING 307
SWIDTH 50 0
DWIDTH 9 0
BBX 7 17 1 -4
BITMAP
46
C6
00
00
44
44
44
44
44
44
44
44
44
04
04
0C
38
ENDCHAR
STARTCHAR char308
ENCODING 308
SWIDTH 56 0
DWIDTH 10 0
BBX 9 17 1 0
BITMAP
0200
0700
0C80
0000
0200
0200
0200
0200
0200
0200
0200
0200
0200
8200
8200
C400
3800
ENDCHAR
STARTCHAR char309
ENCODING 309
SWIDTH 28 0
DWIDTH 5 0
BBX 6 17 -2 -4
BITMAP
18
3C
24
00
08
08
08
08
08
08
08
08
08
08
18
30
E0
ENDCHAR
STARTCHAR char310
ENCODING 310
SWIDTH 56 0
DWIDTH 10 0
BBX 8 17 2 -4
BITMAP
83
86
84
88
90
A0
F0
90
88
8C
86
82
83
00
18
08
78
ENDCHAR
STARTCHAR char311
ENCODING 311
SWIDTH 50 0
DWIDTH 9 0
BBX 7 17 1 -4
BITMAP
C0
C0
C0
C0
C2
C4
C8
D0
F0
D8
CC
C6
C2
00
18
04
38
ENDCHAR
STARTCHAR char312
ENCODING 312
SWIDTH 50 0
DWIDTH 9 0
BBX 7 9 1 0
BITMAP
C2
C4
C8
F0
F0
C8
CC
C6
C2
ENDCHAR
STARTCHAR char313
ENCODING 313
SWIDTH 56 0
DWIDTH 10 0
BBX 9 17 1 0
BITMAP
3000
6000
C000
0000
4000
4000
4000
4000
4000
4000
4000
4000
4000
4000
4000
4000
7F80
ENDCHAR
STARTCHAR char314
ENCODING 314
SWIDTH 28 0
DWIDTH 5 0
BBX 3 16 1 0
BITMAP
20
60
C0
80
00
80
80
80
80
80
80
80
80
80
C0
60
ENDCHAR
STARTCHAR char315
ENCODING 315
SWIDTH 56 0
DWIDTH 10 0
BBX 8 17 2 -4
BITMAP
80
80
80
80
80
80
80
80
80
80
80
80
FF
00
38
08
78
ENDCHAR
STARTCHAR char316
ENCODING 316
SWIDTH 28 0
DWIDTH 5 0
BBX 4 17 1 -4
BITMAP
80
80
80
80
80
80
80
80
80
80
80
C0
60
00
30
10
F0
ENDCHAR
STARTCHAR char317
ENCODING 317
SWIDTH 56 0
DWIDTH 10 0
BBX 8 13 2 0
BITMAP
8C
84
8C
88
80
80
80
80
80
80
80
80
FF
ENDCHAR
STARTCHAR char318
ENCODING 318
SWIDTH 33 0
DWIDTH 6 0
BBX 5 13 1 0
BITMAP
98
88
98
90
80
80
80
80
80
80
80
C0
60
ENDCHAR
STARTCHAR char319
ENCODING 319
SWIDTH 50 0
DWIDTH 9 0
BBX 8 13 2 0
BITMAP
80
80
80
80
80
80
8C
8C
80
80
80
80
FF
ENDCHAR
STARTCHAR char320
ENCODING 320
SWIDTH 33 0
DWIDTH 6 0
BBX 5 13 1 0
BITMAP
80
80
80
80
80
80
90
98
80
80
80
C0
60
ENDCHAR
STARTCHAR char321
ENCODING 321
SWIDTH 4 0
DWIDTH 11 0
BBX 10 13 0 0
BITMAP
2000
2000
2000
2400
2800
3000
2000
6000
A000
2000
2000
2000
3FC0
ENDCHAR
STARTCHAR char322
ENCODING 322
SWIDTH 33 0
DWIDTH 6 0
BBX 5 13 0 0
BITMAP
20
20
20
20
28
30
20
60
E0
20
20
20
30
ENDCHAR
STARTCHAR char323
ENCODING 323
SWIDTH 16 0
DWIDTH 13 0
BBX 10 17 2 0
BITMAP
0600
0C00
0800
0000
80C0
C0C0
C0C0
A0C0
B0C0
98C0
88C0
84C0
86C0
82C0
81C0
80C0
80C0
ENDCHAR
STARTCHAR char324
ENCODING 324
SWIDTH 4 0
DWIDTH 11 0
BBX 9 13 1 0
BITMAP
0600
0C00
0800
0000
DE00
E300
C100
C180
C180
C180
C180
C180
C180
ENDCHAR
STARTCHAR char325
ENCODING 325
SWIDTH 16 0
DWIDTH 13 0
BBX 10 17 2 -4
BITMAP
80C0
C0C0
C0C0
A0C0
B0C0
98C0
88C0
84C0
86C0
82C0
81C0
80C0
80C0
0000
0C00
0200
1C00
ENDCHAR
STARTCHAR char326
ENCODING 326
SWIDTH 4 0
DWIDTH 11 0
BBX 9 13 1 -4
BITMAP
DE00
E300
C100
C180
C180
C180
C180
C180
C180
0000
0C00
0400
1C00
ENDCHAR
STARTCHAR char327
ENCODING 327
SWIDTH 16 0
DWIDTH 13 0
BBX 10 17 2 0
BITMAP
2200
3600
0C00
0000
80C0
C0C0
C0C0
A0C0
B0C0
98C0
88C0
84C0
86C0
82C0
81C0
80C0
80C0
ENDCHAR
STARTCHAR char328
ENCODING 328
SWIDTH 4 0
DWIDTH 11 0
BBX 9 13 1 0
BITMAP
2200
3600
0800
0000
DE00
E300
C100
C180
C180
C180
C180
C180
C180
ENDCHAR
STARTCHAR char330
ENCODING 330
SWIDTH 4 0
DWIDTH 11 0
BBX 8 13 2 0
BITMAP
BC
C6
83
81
81
81
81
81
81
81
81
A2
9E
ENDCHAR
STARTCHAR char331
ENCODING 331
SWIDTH 4 0
DWIDTH 11 0
BBX 9 12 1 -3
BITMAP
DE00
E300
C100
C180
C180
C180
C180
C180
C100
0100
2300
1E00
ENDCHAR
STARTCHAR char332
ENCODING 332
SWIDTH 27 0
DWIDTH 15 0
BBX 13 16 1 0
BITMAP
0F80
0000
0000
0F80
30E0
6030
4010
C010
8018
8008
8018
C010
4010
6030
30E0
0F80
ENDCHAR
STARTCHAR char333
ENCODING 333
SWIDTH 4 0
DWIDTH 11 0
BBX 9 12 1 0
BITMAP
3E00
0000
0000
3E00
6300
C100
8080
8080
8080
C100
6300
3E00
ENDCHAR
STARTCHAR char334
ENCODING 334
SWIDTH 27 0
DWIDTH 15 0
BBX 13 16 1 0
BITMAP
0880
0F00
0000
0F80
30E0
6030
4010
C010
8018
8008
8018
C010
4010
6030
30E0
0F80
ENDCHAR
STARTCHAR char335
ENCODING 335
SWIDTH 4 0
DWIDTH 11 0
BBX 9 12 1 0
BITMAP
2200
1C00
0000
3E00
6300
C100
8080
8080
8080
C100
6300
3E00
ENDCHAR
STARTCHAR char336
ENCODING 336
SWIDTH 27 0
DWIDTH 15 0
BBX 13 18 1 0
BITMAP
0480
0680
0580
0500
0000
0F80
30E0
6030
4010
C010
8018
8008
8018
C010
4010
6030
30E0
0F80
ENDCHAR
STARTCHAR char337
ENCODING 337
SWIDTH 4 0
DWIDTH 11 0
BBX 9 14 1 0
BITMAP
1200
1A00
1600
1400
0000
3E00
6300
C100
8080
8080
8080
C100
6300
3E00
ENDCHAR
STARTCHAR char338
ENCODING 338
SWIDTH 44 0
DWIDTH 18 0
BBX 17 13 1 0
BITMAP
0FFF80
304000
604000
404000
C04000
804000
807E00
804000
C04000
404000
604000
304000
0FFF80
ENDCHAR
STARTCHAR char339
ENCODING 339
SWIDTH 44 0
DWIDTH 18 0
BBX 16 9 1 0
BITMAP
3C3C
6346
C182
8081
80FF
8080
C180
6342
3E3C
ENDCHAR
STARTCHAR char340
ENCODING 340
SWIDTH 56 0
DWIDTH 10 0
BBX 8 17 2 0
BITMAP
08
18
30
00
F8
84
82
82
82
82
86
FC
88
8C
84
82
83
ENDCHAR
STARTCHAR char341
ENCODING 341
SWIDTH 39 0
DWIDTH 7 0
BBX 6 13 1 0
BITMAP
08
18
30
00
DC
E0
C0
C0
C0
C0
C0
C0
C0
ENDCHAR
STARTCHAR char342
ENCODING 342
SWIDTH 56 0
DWIDTH 10 0
BBX 8 17 2 -4
BITMAP
F8
84
82
82
82
82
86
FC
88
8C
84
82
83
00
38
08
78
ENDCHAR
STARTCHAR char343
ENCODING 343
SWIDTH 39 0
DWIDTH 7 0
BBX 7 13 0 -4
BITMAP
6E
70
60
60
60
60
60
60
60
00
70
10
F0
ENDCHAR
STARTCHAR char344
ENCODING 344
SWIDTH 56 0
DWIDTH 10 0
BBX 8 17 2 0
BITMAP
44
68
30
00
F8
84
82
82
82
82
86
FC
88
8C
84
82
83
ENDCHAR
STARTCHAR char345
ENCODING 345
SWIDTH 39 0
DWIDTH 7 0
BBX 6 13 1 0
BITMAP
44
78
30
00
DC
E0
C0
C0
C0
C0
C0
C0
C0
ENDCHAR
STARTCHAR char346
ENCODING 346
SWIDTH 4 0
DWIDTH 11 0
BBX 9 17 1 0
BITMAP
0600
0C00
0800
0000
3E00
6300
C100
C000
4000
7000
1E00
0300
0100
0180
8100
6300
3E00
ENDCHAR
STARTCHAR char347
ENCODING 347
SWIDTH 50 0
DWIDTH 9 0
BBX 7 13 1 0
BITMAP
0C
18
10
00
7C
C6
C0
40
3C
06
02
C6
7C
ENDCHAR
STARTCHAR char348
ENCODING 348
SWIDTH 4 0
DWIDTH 11 0
BBX 9 17 1 0
BITMAP
0800
1C00
2600
0000
3E00
6300
C100
C000
4000
7000
1E00
0300
0100
0180
8100
6300
3E00
ENDCHAR
STARTCHAR char349
ENCODING 349
SWIDTH 50 0
DWIDTH 9 0
BBX 7 13 1 0
BITMAP
10
38
4C
00
7C
C6
C0
40
3C
06
02
C6
7C
ENDCHAR
STARTCHAR char350
ENCODING 350
SWIDTH 4 0
DWIDTH 11 0
BBX 9 17 1 -4
BITMAP
3E00
6300
C100
C000
4000
7000
1E00
0300
0100
0180
8100
C300
3E00
0800
0C00
2400
1C00
ENDCHAR
STARTCHAR char351
ENCODING 351
SWIDTH 50 0
DWIDTH 9 0
BBX 7 13 1 -4
BITMAP
7C
46
C0
40
3C
06
02
86
7C
10
18
6C
38
ENDCHAR
STARTCHAR char352
ENCODING 352
SWIDTH 4 0
DWIDTH 11 0
BBX 9 17 1 0
BITMAP
2200
3600
1800
0000
3E00
6300
C100
C000
4000
7000
1E00
0300
0100
0180
8100
6300
3E00
ENDCHAR
STARTCHAR char353
ENCODING 353
SWIDTH 50 0
DWIDTH 9 0
BBX 7 13 1 0
BITMAP
44
6C
10
00
7C
C6
C0
40
3C
06
02
C6
7C
ENDCHAR
STARTCHAR char354
ENCODING 354
SWIDTH 56 0
DWIDTH 10 0
BBX 10 17 0 -4
BITMAP
FFC0
0400
0400
0400
0400
0400
0400
0400
0400
0400
0400
0400
0400
0400
0600
1200
0E00
ENDCHAR
STARTCHAR char355
ENCODING 355
SWIDTH 33 0
DWIDTH 6 0
BBX 6 16 0 -4
BITMAP
20
20
20
FC
20
20
20
20
20
20
30
1C
10
0C
2C
38
ENDCHAR
STARTCHAR char356
ENCODING 356
SWIDTH 56 0
DWIDTH 10 0
BBX 10 17 0 0
BITMAP
1100
1B00
0C00
0000
FFC0
0400
0400
0400
0400
0400
0400
0400
0400
0400
0400
0400
0400
ENDCHAR
STARTCHAR char357
ENCODING 357
SWIDTH 33 0
DWIDTH 6 0
BBX 6 14 0 0
BITMAP
0C
04
2C
28
20
FC
20
20
20
20
20
20
30
1C
ENDCHAR
STARTCHAR char358
ENCODING 358
SWIDTH 56 0
DWIDTH 10 0
BBX 10 13 0 0
BITMAP
FFC0
0400
0400
0400
0400
0400
3F00
0400
0400
0400
0400
0400
0400
ENDCHAR
STARTCHAR char359
ENCODING 359
SWIDTH 33 0
DWIDTH 6 0
BBX 6 12 0 0
BITMAP
20
20
20
FC
20
20
F8
20
20
20
30
1C
ENDCHAR
STARTCHAR char360
ENCODING 360
SWIDTH 16 0
DWIDTH 13 0
BBX 10 16 2 0
BITMAP
3900
2700
0000
8080
80C0
80C0
80C0
80C0
80C0
80C0
80C0
80C0
8080
8080
6300
3E00
ENDCHAR
STARTCHAR char361
ENCODING 361
SWIDTH 4 0
DWIDTH 11 0
BBX 8 12 1 0
BITMAP
39
6F
00
C1
C1
C1
C1
C1
C1
41
63
3D
ENDCHAR
STARTCHAR char362
ENCODING 362
SWIDTH 16 0
DWIDTH 13 0
BBX 10 16 2 0
BITMAP
3E00
0000
0000
8080
80C0
80C0
80C0
80C0
80C0
80C0
80C0
80C0
8080
8080
6300
3E00
ENDCHAR
STARTCHAR char363
ENCODING 363
SWIDTH 4 0
DWIDTH 11 0
BBX 8 12 1 0
BITMAP
3E
00
00
C1
C1
C1
C1
C1
C1
41
63
3D
ENDCHAR
STARTCHAR char364
ENCODING 364
SWIDTH 16 0
DWIDTH 13 0
BBX 10 16 2 0
BITMAP
2200
1C00
0000
8080
80C0
80C0
80C0
80C0
80C0
80C0
80C0
80C0
8080
8080
6300
3E00
ENDCHAR
STARTCHAR char365
ENCODING 365
SWIDTH 4 0
DWIDTH 11 0
BBX 8 12 1 0
BITMAP
22
1C
00
C1
C1
C1
C1
C1
C1
41
63
3D
ENDCHAR
STARTCHAR char366
ENCODING 366
SWIDTH 16 0
DWIDTH 13 0
BBX 10 17 2 0
BITMAP
1C00
1400
1C00
0000
8080
80C0
80C0
80C0
80C0
80C0
80C0
80C0
80C0
8080
8080
6300
3E00
ENDCHAR
STARTCHAR char367
ENCODING 367
SWIDTH 4 0
DWIDTH 11 0
BBX 8 13 1 0
BITMAP
1C
14
1C
00
C1
C1
C1
C1
C1
C1
41
63
3D
ENDCHAR
STARTCHAR char368
ENCODING 368
SWIDTH 16 0
DWIDTH 13 0
BBX 10 18 2 0
BITMAP
0A00
1A00
1200
1400
0000
8080
80C0
80C0
80C0
80C0
80C0
80C0
80C0
80C0
8080
8080
6300
3E00
ENDCHAR
STARTCHAR char369
ENCODING 369
SWIDTH 4 0
DWIDTH 11 0
BBX 8 14 1 0
BITMAP
12
1A
16
14
00
C1
C1
C1
C1
C1
C1
41
63
3D
ENDCHAR
STARTCHAR char370
ENCODING 370
SWIDTH 16 0
DWIDTH 13 0
BBX 10 17 2 -4
BITMAP
8080
80C0
80C0
80C0
80C0
80C0
80C0
80C0
80C0
8080
8080
6380
3F00
0600
0C00
0D00
0600
ENDCHAR
STARTCHAR char371
ENCODING 371
SWIDTH 4 0
DWIDTH 11 0
BBX 10 13 1 -4
BITMAP
C100
C100
C100
C100
C100
C100
4100
6300
3D00
0100
0300
02C0
0380
ENDCHAR
STARTCHAR char372
ENCODING 372
SWIDTH 27 0
DWIDTH 15 0
BBX 15 17 0 0
BITMAP
0100
0380
06C0
0000
C106
4104
4284
4284
628C
2288
2448
2448
1450
1450
1830
1830
0820
ENDCHAR
STARTCHAR char373
ENCODING 373
SWIDTH 10 0
DWIDTH 12 0
BBX 12 13 0 0
BITMAP
0400
0F00
1900
0000
8630
4620
4620
4E60
2940
2940
2940
3080
1080
ENDCHAR
STARTCHAR char374
ENCODING 374
SWIDTH 56 0
DWIDTH 10 0
BBX 10 17 0 0
BITMAP
0400
0E00
1300
0000
8040
C0C0
6080
2180
3100
1200
0A00
0C00
0400
0400
0400
0400
0400
ENDCHAR
STARTCHAR char375
ENCODING 375
SWIDTH 50 0
DWIDTH 9 0
BBX 9 17 0 -4
BITMAP
0800
1C00
3600
0000
8180
4100
4100
2200
2200
1600
1400
1C00
0800
0800
1000
1000
2000
ENDCHAR
STARTCHAR char376
ENCODING 376
SWIDTH 56 0
DWIDTH 10 0
BBX 10 17 0 0
BITMAP
1300
1300
0000
0000
8040
C0C0
6080
2180
3100
1200
0A00
0C00
0400
0400
0400
0400
0400
ENDCHAR
STARTCHAR char377
ENCODING 377
SWIDTH 10 0
DWIDTH 12 0
BBX 10 17 1 0
BITMAP
0200
0400
0800
0000
FFC0
0080
0180
0300
0200
0400
0800
1800
1000
2000
4000
C000
FFC0
ENDCHAR
STARTCHAR char378
ENCODING 378
SWIDTH 50 0
DWIDTH 9 0
BBX 7 13 1 0
BITMAP
0C
18
10
00
FE
06
0C
08
10
20
60
40
FE
ENDCHAR
STARTCHAR char379
ENCODING 379
SWIDTH 10 0
DWIDTH 12 0
BBX 10 17 1 0
BITMAP
0800
0C00
0000
0000
FFC0
0080
0180
0300
0200
0400
0800
1800
1000
2000
4000
C000
FFC0
ENDCHAR
STARTCHAR char380
ENCODING 380
SWIDTH 50 0
DWIDTH 9 0
BBX 7 13 1 0
BITMAP
10
10
00
00
FE
06
0C
08
10
20
60
40
FE
ENDCHAR
STARTCHAR char381
ENCODING 381
SWIDTH 10 0
DWIDTH 12 0
BBX 10 17 1 0
BITMAP
2200
1600
0C00
0000
FFC0
0080
0180
0300
0200
0400
0800
1800
1000
2000
4000
C000
FFC0
ENDCHAR
STARTCHAR char382
ENCODING 382
SWIDTH 50 0
DWIDTH 9 0
BBX 7 13 1 0
BITMAP
44
6C
10
00
FE
06
0C
08
10
20
60
40
FE
ENDCHAR
STARTCHAR char383
ENCODING 383
SWIDTH 28 0
DWIDTH 5 0
BBX 4 13 1 0
BITMAP
70
40
80
80
80
80
80
80
80
80
80
80
80
ENDCHAR
STARTCHAR char399
ENCODING 399
SWIDTH 16 0
DWIDTH 13 0
BBX 11 13 1 0
BITMAP
1F00
6180
0040
0060
0020
0020
FFE0
8020
8020
C020
6040
31C0
1F00
ENDCHAR
STARTCHAR char402
ENCODING 402
SWIDTH 44 0
DWIDTH 8 0
BBX 8 17 0 -4
BITMAP
07
08
18
10
10
3E
10
10
10
10
10
10
10
10
10
30
E0
ENDCHAR
STARTCHAR char416
ENCODING 416
SWIDTH 27 0
DWIDTH 15 0
BBX 13 14 1 0
BITMAP
0010
0F90
30E0
6020
4010
C010
8018
8008
8018
C010
4010
6030
30E0
0F80
ENDCHAR
STARTCHAR char417
ENCODING 417
SWIDTH 4 0
DWIDTH 11 0
BBX 9 11 1 0
BITMAP
0080
0080
3F80
6300
C100
8080
8080
8080
C100
6300
3E00
ENDCHAR
STARTCHAR char431
ENCODING 431
SWIDTH 16 0
DWIDTH 13 0
BBX 11 15 2 0
BITMAP
0020
0020
80E0
80C0
80C0
80C0
80C0
80C0
80C0
80C0
80C0
8080
8080
6300
3E00
ENDCHAR
STARTCHAR char432
ENCODING 432
SWIDTH 4 0
DWIDTH 11 0
BBX 10 11 1 0
BITMAP
0040
0040
C1C0
C100
C100
C100
C100
C100
4100
6300
3D00
ENDCHAR
STARTCHAR char486
ENCODING 486
SWIDTH 10 0
DWIDTH 12 0
BBX 10 17 1 0
BITMAP
0880
0F00
0600
0000
0F80
30C0
6000
4000
C000
8000
83C0
8040
C040
4040
6040
30C0
0F80
ENDCHAR
STARTCHAR char487
ENCODING 487
SWIDTH 4 0
DWIDTH 11 0
BBX 9 17 1 -4
BITMAP
2200
3600
0800
0000
3E00
6300
C100
8080
8080
8080
C180
6280
3C80
0180
C100
6300
3C00
ENDCHAR
STARTCHAR char490
ENCODING 490
SWIDTH 27 0
DWIDTH 15 0
BBX 13 17 1 -4
BITMAP
0F80
30E0
6020
4010
C010
8018
8008
8018
C018
4010
6030
30E0
0F80
0200
0400
0D00
0700
ENDCHAR
STARTCHAR char491
ENCODING 491
SWIDTH 4 0
DWIDTH 11 0
BBX 9 13 1 -4
BITMAP
3E00
6300
C100
8080
8080
8080
C180
6300
3E00
0400
0C00
0900
0600
ENDCHAR
STARTCHAR char506
ENCODING 506
SWIDTH 4 0
DWIDTH 11 0
BBX 11 20 0 0
BITMAP
0100
0200
0400
0E00
0A00
0E00
0000
0400
0600
0E00
0A00
1900
1100
1180
3080
20C0
7FC0
4040
4060
C020
ENDCHAR
STARTCHAR char507
ENCODING 507
SWIDTH 4 0
DWIDTH 11 0
BBX 9 16 1 0
BITMAP
0600
0C00
0800
1C00
1400
1C00
0000
3E00
6300
C100
8080
8080
8080
C180
6380
3C80
ENDCHAR
STARTCHAR char508
ENCODING 508
SWIDTH 27 0
DWIDTH 15 0
BBX 15 17 0 0
BITMAP
0030
0060
0040
0000
01FE
0100
0300
0700
0500
0D00
09F8
1900
3100
3F00
6100
4100
C1FE
ENDCHAR
STARTCHAR char509
ENCODING 509
SWIDTH 44 0
DWIDTH 18 0
BBX 16 13 1 0
BITMAP
0040
00C0
0180
0000
3C3C
6346
C183
8081
80FF
8080
C180
63C2
3CBC
ENDCHAR
STARTCHAR char510
ENCODING 510
SWIDTH 21 0
DWIDTH 14 0
BBX 13 17 1 0
BITMAP
0180
0300
0200
0000
0F88
30F0
6020
4050
C090
8118
8208
8418
C810
5010
6030
70E0
8F80
ENDCHAR
STARTCHAR char511
ENCODING 511
SWIDTH 4 0
DWIDTH 11 0
BBX 9 13 1 0
BITMAP
0200
0400
0800
0000
1E80
6300
4380
C480
8880
D080
6180
6300
9E00
ENDCHAR
STARTCHAR char512
ENCODING 512
SWIDTH 4 0
DWIDTH 11 0
BBX 11 18 0 0
BITMAP
0A00
1A00
0B00
0900
0000
0400
0600
0E00
0A00
1900
1100
1180
3080
20C0
7FC0
4040
4060
C020
ENDCHAR
STARTCHAR char513
ENCODING 513
SWIDTH 4 0
DWIDTH 11 0
BBX 9 14 1 0
BITMAP
2400
3400
1400
1200
0000
3E00
6300
C100
8080
8080
8080
C180
6380
3C80
ENDCHAR
STARTCHAR char514
ENCODING 514
SWIDTH 4 0
DWIDTH 11 0
BBX 11 17 0 0
BITMAP
0E00
1900
1100
0000
0400
0600
0E00
0A00
1900
1100
1180
3080
20C0
7FC0
4040
4060
C020
ENDCHAR
STARTCHAR char515
ENCODING 515
SWIDTH 4 0
DWIDTH 11 0
BBX 9 13 1 0
BITMAP
1C00
2600
2200
0000
3E00
6300
C100
8080
8080
8080
C180
6380
3C80
ENDCHAR
STARTCHAR char516
ENCODING 516
SWIDTH 4 0
DWIDTH 11 0
BBX 8 18 2 0
BITMAP
28
2C
34
14
00
FF
80
80
80
80
80
FC
80
80
80
80
80
FF
ENDCHAR
STARTCHAR char517
ENCODING 517
SWIDTH 56 0
DWIDTH 10 0
BBX 8 14 1 0
BITMAP
28
2C
34
14
00
3C
62
C1
81
FF
80
C0
63
3C
ENDCHAR
STARTCHAR char518
ENCODING 518
SWIDTH 4 0
DWIDTH 11 0
BBX 8 17 2 0
BITMAP
3C
26
24
00
FF
80
80
80
80
80
FC
80
80
80
80
80
FF
ENDCHAR
STARTCHAR char519
ENCODING 519
SWIDTH 56 0
DWIDTH 10 0
BBX 8 13 1 0
BITMAP
3C
26
24
00
3C
62
C1
81
FF
80
C0
63
3C
ENDCHAR
STARTCHAR char520
ENCODING 520
SWIDTH 22 0
DWIDTH 4 0
BBX 4 18 0 0
BITMAP
90
B0
50
50
00
20
20
20
20
20
20
20
20
20
20
20
20
20
ENDCHAR
STARTCHAR char521
ENCODING 521
SWIDTH 28 0
DWIDTH 5 0
BBX 4 14 0 0
BITMAP
90
D0
50
50
00
20
20
20
20
20
20
20
20
20
ENDCHAR
STARTCHAR char522
ENCODING 522
SWIDTH 22 0
DWIDTH 4 0
BBX 5 17 0 0
BITMAP
70
98
88
00
20
20
20
20
20
20
20
20
20
20
20
20
20
ENDCHAR
STARTCHAR char523
ENCODING 523
SWIDTH 28 0
DWIDTH 5 0
BBX 5 13 0 0
BITMAP
70
98
88
00
20
20
20
20
20
20
20
20
20
ENDCHAR
STARTCHAR char524
ENCODING 524
SWIDTH 27 0
DWIDTH 15 0
BBX 13 18 1 0
BITMAP
0900
0D00
0500
0480
0000
0F80
30E0
6030
4010
C010
8018
8008
8018
C010
4010
6030
30E0
0F80
ENDCHAR
STARTCHAR char525
ENCODING 525
SWIDTH 4 0
DWIDTH 11 0
BBX 9 14 1 0
BITMAP
2400
3400
1400
1200
0000
3E00
6300
C100
8080
8080
8080
C100
6300
3E00
ENDCHAR
STARTCHAR char526
ENCODING 526
SWIDTH 27 0
DWIDTH 15 0
BBX 13 17 1 0
BITMAP
0700
0980
0880
0000
0F80
30E0
6030
4010
C010
8018
8008
8018
C010
4010
6030
30E0
0F80
ENDCHAR
STARTCHAR char527
ENCODING 527
SWIDTH 4 0
DWIDTH 11 0
BBX 9 13 1 0
BITMAP
1C00
2600
2200
0000
3E00
6300
C100
8080
8080
8080
C100
6300
3E00
ENDCHAR
STARTCHAR char528
ENCODING 528
SWIDTH 56 0
DWIDTH 10 0
BBX 8 18 2 0
BITMAP
48
58
68
28
00
F8
84
82
82
82
82
86
FC
88
8C
84
82
83
ENDCHAR
STARTCHAR char529
ENCODING 529
SWIDTH 39 0
DWIDTH 7 0
BBX 6 14 1 0
BITMAP
50
58
68
28
00
DC
E0
C0
C0
C0
C0
C0
C0
C0
ENDCHAR
STARTCHAR char530
ENCODING 530
SWIDTH 56 0
DWIDTH 10 0
BBX 8 17 2 0
BITMAP
78
4C
44
00
F8
84
82
82
82
82
86
FC
88
8C
84
82
83
ENDCHAR
STARTCHAR char531
ENCODING 531
SWIDTH 39 0
DWIDTH 7 0
BBX 6 13 1 0
BITMAP
78
4C
48
00
DC
E0
C0
C0
C0
C0
C0
C0
C0
ENDCHAR
STARTCHAR char532
ENCODING 532
SWIDTH 16 0
DWIDTH 13 0
BBX 10 18 2 0
BITMAP
1400
3400
1400
1200
0000
8080
80C0
80C0
80C0
80C0
80C0
80C0
80C0
80C0
8080
8080
6300
3E00
ENDCHAR
STARTCHAR char533
ENCODING 533
SWIDTH 4 0
DWIDTH 11 0
BBX 8 14 1 0
BITMAP
24
34
14
12
00
C1
C1
C1
C1
C1
C1
41
63
3D
ENDCHAR
STARTCHAR char534
ENCODING 534
SWIDTH 16 0
DWIDTH 13 0
BBX 10 17 2 0
BITMAP
1C00
3200
2200
0000
8080
80C0
80C0
80C0
80C0
80C0
80C0
80C0
80C0
8080
8080
6300
3E00
ENDCHAR
STARTCHAR char535
ENCODING 535
SWIDTH 4 0
DWIDTH 11 0
BBX 8 13 1 0
BITMAP
1C
26
22
00
C1
C1
C1
C1
C1
C1
41
63
3D
ENDCHAR
STARTCHAR char536
ENCODING 536
SWIDTH 4 0
DWIDTH 11 0
BBX 9 17 1 -4
BITMAP
3E00
6300
C100
C000
4000
7000
1E00
0300
0100
0180
8100
6300
3E00
0000
0C00
0400
3C00
ENDCHAR
STARTCHAR char537
ENCODING 537
SWIDTH 50 0
DWIDTH 9 0
BBX 7 13 1 -4
BITMAP
7C
C6
C0
40
3C
06
02
C6
7C
00
18
04
38
ENDCHAR
STARTCHAR char538
ENCODING 538
SWIDTH 56 0
DWIDTH 10 0
BBX 10 17 0 -4
BITMAP
FFC0
0400
0400
0400
0400
0400
0400
0400
0400
0400
0400
0400
0400
0000
0600
0200
1E00
ENDCHAR
STARTCHAR char539
ENCODING 539
SWIDTH 33 0
DWIDTH 6 0
BBX 6 16 0 -4
BITMAP
20
20
20
FC
20
20
20
20
20
20
30
1C
00
18
04
38
ENDCHAR
STARTCHAR char554
ENCODING 554
SWIDTH 27 0
DWIDTH 15 0
BBX 13 19 1 0
BITMAP
0F80
0000
0980
0D80
0000
0000
0F80
30E0
6030
4010
C010
8018
8008
8018
C010
4010
6030
30E0
0F80
ENDCHAR
STARTCHAR char555
ENCODING 555
SWIDTH 4 0
DWIDTH 11 0
BBX 9 15 1 0
BITMAP
3E00
0000
2600
3600
0000
0000
3E00
6300
C100
8080
8080
8080
C100
6300
3E00
ENDCHAR
STARTCHAR char556
ENCODING 556
SWIDTH 27 0
DWIDTH 15 0
BBX 13 18 1 0
BITMAP
0F80
0000
0E40
1BC0
0000
0F80
30E0
6030
4010
C010
8018
8008
8018
C010
4010
6030
30E0
0F80
ENDCHAR
STARTCHAR char557
ENCODING 557
SWIDTH 4 0
DWIDTH 11 0
BBX 9 15 1 0
BITMAP
3E00
0000
0000
3900
6F00
0000
3E00
6300
C100
8080
8080
8080
C100
6300
3E00
ENDCHAR
STARTCHAR char560
ENCODING 560
SWIDTH 27 0
DWIDTH 15 0
BBX 13 18 1 0
BITMAP
0F80
0200
0600
0000
0000
0F80
30E0
6030
4010
C010
8018
8008
8018
C010
4010
6030
30E0
0F80
ENDCHAR
STARTCHAR char561
ENCODING 561
SWIDTH 4 0
DWIDTH 11 0
BBX 9 15 1 0
BITMAP
3E00
0000
0800
0800
0000
0000
3E00
6300
C100
8080
8080
8080
C100
6300
3E00
ENDCHAR
STARTCHAR char562
ENCODING 562
SWIDTH 56 0
DWIDTH 10 0
BBX 10 16 0 0
BITMAP
3F00
0000
0000
8040
C0C0
6080
2180
3100
1200
0A00
0C00
0400
0400
0400
0400
0400
ENDCHAR
STARTCHAR char563
ENCODING 563
SWIDTH 50 0
DWIDTH 9 0
BBX 9 16 0 -4
BITMAP
3E00
0000
0000
8180
4100
4100
2200
2200
1600
1400
1C00
0800
0800
1000
1000
2000
ENDCHAR
STARTCHAR char567
ENCODING 567
SWIDTH 28 0
DWIDTH 5 0
BBX 5 13 -2 -4
BITMAP
08
08
08
08
08
08
08
08
08
08
18
30
E0
ENDCHAR
STARTCHAR char601
ENCODING 601
SWIDTH 56 0
DWIDTH 10 0
BBX 8 9 1 0
BITMAP
7C
C6
02
01
FF
81
82
46
3C
ENDCHAR
STARTCHAR char700
ENCODING 700
SWIDTH 16 0
DWIDTH 3 0
BBX 2 4 -1 9
BITMAP
C0
C0
C0
80
ENDCHAR
STARTCHAR char710
ENCODING 710
SWIDTH 33 0
DWIDTH 6 0
BBX 5 3 1 10
BITMAP
20
F0
98
ENDCHAR
STARTCHAR char711
ENCODING 711
SWIDTH 33 0
DWIDTH 6 0
BBX 5 3 1 10
BITMAP
88
F0
60
ENDCHAR
STARTCHAR char713
ENCODING 713
SWIDTH 33 0
DWIDTH 6 0
BBX 5 1 1 10
BITMAP
F8
ENDCHAR
STARTCHAR char728
ENCODING 728
SWIDTH 33 0
DWIDTH 6 0
BBX 5 2 1 10
BITMAP
98
F0
ENDCHAR
STARTCHAR char729
ENCODING 729
SWIDTH 16 0
DWIDTH 3 0
BBX 1 2 1 10
BITMAP
80
80
ENDCHAR
STARTCHAR char730
ENCODING 730
SWIDTH 22 0
DWIDTH 4 0
BBX 3 3 1 10
BITMAP
C0
A0
C0
ENDCHAR
STARTCHAR char731
ENCODING 731
SWIDTH 28 0
DWIDTH 5 0
BBX 3 4 1 -4
BITMAP
40
C0
A0
E0
ENDCHAR
STARTCHAR char732
ENCODING 732
SWIDTH 44 0
DWIDTH 8 0
BBX 6 2 1 10
BITMAP
E4
9C
ENDCHAR
STARTCHAR char733
ENCODING 733
SWIDTH 33 0
DWIDTH 6 0
BBX 4 4 1 9
BITMAP
90
D0
A0
A0
ENDCHAR
STARTCHAR char768
ENCODING 768
SWIDTH 0 0
DWIDTH 0 0
BBX 3 3 -4 10
BITMAP
C0
60
20
ENDCHAR
STARTCHAR char769
ENCODING 769
SWIDTH 0 0
DWIDTH 0 0
BBX 3 3 -4 10
BITMAP
20
60
C0
ENDCHAR
STARTCHAR char770
ENCODING 770
SWIDTH 0 0
DWIDTH 0 0
BBX 5 3 -6 10
BITMAP
20
78
C8
ENDCHAR
STARTCHAR char771
ENCODING 771
SWIDTH 0 0
DWIDTH 0 0
BBX 7 2 -7 10
BITMAP
76
9C
ENDCHAR
STARTCHAR char772
ENCODING 772
SWIDTH 0 0
DWIDTH 0 0
BBX 5 1 -7 11
BITMAP
F8
ENDCHAR
STARTCHAR char774
ENCODING 774
SWIDTH 0 0
DWIDTH 0 0
BBX 5 2 -6 10
BITMAP
C8
78
ENDCHAR
STARTCHAR char775
ENCODING 775
SWIDTH 0 0
DWIDTH 0 0
BBX 2 2 -3 11
BITMAP
80
C0
ENDCHAR
STARTCHAR char776
ENCODING 776
SWIDTH 0 0
DWIDTH 0 0
BBX 5 2 -6 11
BITMAP
90
98
ENDCHAR
STARTCHAR char777
ENCODING 777
SWIDTH 0 0
DWIDTH 0 0
BBX 3 4 -4 10
BITMAP
E0
A0
20
40
ENDCHAR
STARTCHAR char778
ENCODING 778
SWIDTH 0 0
DWIDTH 0 0
BBX 3 3 -4 10
BITMAP
60
A0
E0
ENDCHAR
STARTCHAR char779
ENCODING 779
SWIDTH 0 0
DWIDTH 0 0
BBX 4 4 -5 10
BITMAP
50
50
90
A0
ENDCHAR
STARTCHAR char780
ENCODING 780
SWIDTH 0 0
DWIDTH 0 0
BBX 5 3 -6 10
BITMAP
88
58
30
ENDCHAR
STARTCHAR char783
ENCODING 783
SWIDTH 0 0
DWIDTH 0 0
BBX 4 4 -5 10
BITMAP
90
B0
50
50
ENDCHAR
STARTCHAR char785
ENCODING 785
SWIDTH 0 0
DWIDTH 0 0
BBX 5 3 -6 10
BITMAP
70
C8
88
ENDCHAR
STARTCHAR char786
ENCODING 786
SWIDTH 0 0
DWIDTH 0 0
BBX 2 4 -3 11
BITMAP
40
80
C0
C0
ENDCHAR
STARTCHAR char795
ENCODING 795
SWIDTH 0 0
DWIDTH 0 0
BBX 2 3 -3 8
BITMAP
40
40
C0
ENDCHAR
STARTCHAR char803
ENCODING 803
SWIDTH 0 0
DWIDTH 0 0
BBX 2 2 -3 -3
BITMAP
40
C0
ENDCHAR
STARTCHAR char804
ENCODING 804
SWIDTH 0 0
DWIDTH 0 0
BBX 5 2 -6 -3
BITMAP
C8
D8
ENDCHAR
STARTCHAR char806
ENCODING 806
SWIDTH 0 0
DWIDTH 0 0
BBX 4 3 -4 -4
BITMAP
60
10
E0
ENDCHAR
STARTCHAR char807
ENCODING 807
SWIDTH 0 0
DWIDTH 0 0
BBX 5 4 -5 -4
BITMAP
20
30
D8
70
ENDCHAR
STARTCHAR char808
ENCODING 808
SWIDTH 0 0
DWIDTH 0 0
BBX 3 4 -4 -4
BITMAP
40
C0
A0
E0
ENDCHAR
STARTCHAR char814
ENCODING 814
SWIDTH 0 0
DWIDTH 0 0
BBX 5 2 -6 -4
BITMAP
C8
78
ENDCHAR
STARTCHAR char817
ENCODING 817
SWIDTH 0 0
DWIDTH 0 0
BBX 5 1 -6 -2
BITMAP
F8
ENDCHAR
STARTCHAR char821
ENCODING 821
SWIDTH 0 0
DWIDTH 0 0
BBX 6 1 -7 5
BITMAP
FC
ENDCHAR
STARTCHAR char822
ENCODING 822
SWIDTH 0 0
DWIDTH 0 0
BBX 13 1 -14 5
BITMAP
FFF8
ENDCHAR
STARTCHAR char900
ENCODING 900
SWIDTH 22 0
DWIDTH 4 0
BBX 3 3 1 11
BITMAP
60
C0
80
ENDCHAR
STARTCHAR char901
ENCODING 901
SWIDTH 44 0
DWIDTH 8 0
BBX 6 3 1 10
BITMAP
18
B4
20
ENDCHAR
STARTCHAR char902
ENCODING 902
SWIDTH 4 0
DWIDTH 11 0
BBX 11 13 0 0
BITMAP
2400
6600
CE00
0B00
1900
1100
1180
3080
20C0
7FC0
4040
4060
C020
ENDCHAR
STARTCHAR char903
ENCODING 903
SWIDTH 16 0
DWIDTH 3 0
BBX 1 2 1 7
BITMAP
80
80
ENDCHAR
STARTCHAR char904
ENCODING 904
SWIDTH 16 0
DWIDTH 13 0
BBX 13 13 0 0
BITMAP
2FF8
4800
8800
0800
0800
0800
0FE0
0800
0800
0800
0800
0800
0FF8
ENDCHAR
STARTCHAR char905
ENCODING 905
SWIDTH 32 0
DWIDTH 16 0
BBX 14 13 0 0
BITMAP
2804
4804
8804
0804
0804
0804
0FFC
0804
0804
0804
0804
0804
0804
ENDCHAR
STARTCHAR char906
ENCODING 906
SWIDTH 39 0
DWIDTH 7 0
BBX 5 13 0 0
BITMAP
28
48
88
08
08
08
08
08
08
08
08
08
08
ENDCHAR
STARTCHAR char908
ENCODING 908
SWIDTH 27 0
DWIDTH 15 0
BBX 15 13 0 0
BITMAP
23E0
4C30
9808
300C
2004
2004
2006
2004
2004
300C
1808
0C30
03E0
ENDCHAR
STARTCHAR char910
ENCODING 910
SWIDTH 21 0
DWIDTH 14 0
BBX 14 13 0 0
BITMAP
380C
4808
8C18
0410
0220
0360
0140
01C0
0080
0080
0080
0080
0080
ENDCHAR
STARTCHAR char911
ENCODING 911
SWIDTH 27 0
DWIDTH 15 0
BBX 14 13 0 0
BITMAP
23E0
6C30
D818
100C
3004
2004
2004
2004
2004
3004
100C
0818
3E7C
ENDCHAR
STARTCHAR char912
ENCODING 912
SWIDTH 28 0
DWIDTH 5 0
BBX 7 13 -1 0
BITMAP
18
D6
20
00
10
10
10
10
10
10
10
10
10
ENDCHAR
STARTCHAR char913
ENCODING 913
SWIDTH 4 0
DWIDTH 11 0
BBX 11 13 0 0
BITMAP
0400
0600
0E00
0A00
1900
1100
1180
3080
20C0
7FC0
4040
4060
C020
ENDCHAR
STARTCHAR char914
ENCODING 914
SWIDTH 4 0
DWIDTH 11 0
BBX 8 13 2 0
BITMAP
FC
86
82
83
82
82
FC
83
81
81
81
83
FC
ENDCHAR
STARTCHAR char915
ENCODING 915
SWIDTH 56 0
DWIDTH 10 0
BBX 8 13 1 0
BITMAP
FF
80
80
80
80
80
80
80
80
80
80
80
80
ENDCHAR
STARTCHAR char916
ENCODING 916
SWIDTH 4 0
DWIDTH 11 0
BBX 11 13 0 0
BITMAP
0400
0600
0E00
0B00
1B00
1100
1180
3080
20C0
6040
4040
4060
FFE0
ENDCHAR
STARTCHAR char917
ENCODING 917
SWIDTH 4 0
DWIDTH 11 0
BBX 8 13 2 0
BITMAP
FF
80
80
80
80
80
FC
80
80
80
80
80
FF
ENDCHAR
STARTCHAR char918
ENCODING 918
SWIDTH 10 0
DWIDTH 12 0
BBX 10 13 1 0
BITMAP
FFC0
0080
0180
0300
0200
0400
0800
1800
1000
2000
4000
C000
FFC0
ENDCHAR
STARTCHAR char919
ENCODING 919
SWIDTH 21 0
DWIDTH 14 0
BBX 10 13 2 0
BITMAP
8040
8040
8040
8040
8040
8040
FFC0
8040
8040
8040
8040
8040
8040
ENDCHAR
STARTCHAR char920
ENCODING 920
SWIDTH 27 0
DWIDTH 15 0
BBX 13 13 1 0
BITMAP
0F80
30E0
6030
4010
C010
8018
9FC8
8018
C010
4010
6030
30E0
0F80
ENDCHAR
STARTCHAR char921
ENCODING 921
SWIDTH 22 0
DWIDTH 4 0
BBX 1 13 2 0
BITMAP
80
80
80
80
80
80
80
80
80
80
80
80
80
ENDCHAR
STARTCHAR char922
ENCODING 922
SWIDTH 56 0
DWIDTH 10 0
BBX 8 13 2 0
BITMAP
83
86
84
88
90
A0
F0
90
88
8C
86
82
83
ENDCHAR
STARTCHAR char923
ENCODING 923
SWIDTH 4 0
DWIDTH 11 0
BBX 11 13 0 0
BITMAP
0400
0600
0E00
0B00
1900
1100
1180
3080
20C0
6040
4040
4060
C020
ENDCHAR
STARTCHAR char924
ENCODING 924
SWIDTH 32 0
DWIDTH 16 0
BBX 12 13 2 0
BITMAP
8010
8030
C030
C070
E050
A050
B090
9090
9910
8910
8E10
8610
8410
ENDCHAR
STARTCHAR char925
ENCODING 925
SWIDTH 16 0
DWIDTH 13 0
BBX 10 13 2 0
BITMAP
80C0
C0C0
C0C0
A0C0
B0C0
98C0
88C0
84C0
86C0
82C0
81C0
80C0
80C0
ENDCHAR
STARTCHAR char926
ENCODING 926
SWIDTH 56 0
DWIDTH 10 0
BBX 8 13 1 0
BITMAP
FF
00
00
00
00
00
FF
00
00
00
00
00
FF
ENDCHAR
STARTCHAR char927
ENCODING 927
SWIDTH 27 0
DWIDTH 15 0
BBX 13 13 1 0
BITMAP
0F80
30E0
6030
4010
C010
8018
8008
8018
C010
4010
6030
30E0
0F80
ENDCHAR
STARTCHAR char928
ENCODING 928
SWIDTH 4 0
DWIDTH 11 0
BBX 9 13 1 0
BITMAP
FF80
8080
8080
8080
8080
8080
8080
8080
8080
8080
8080
8080
8080
ENDCHAR
STARTCHAR char929
ENCODING 929
SWIDTH 56 0
DWIDTH 10 0
BBX 7 13 2 0
BITMAP
F8
86
82
82
82
82
86
FC
80
80
80
80
80
ENDCHAR
STARTCHAR char931
ENCODING 931
SWIDTH 56 0
DWIDTH 10 0
BBX 8 13 1 0
BITMAP
FF
C0
60
20
30
18
08
18
30
20
60
C0
FF
ENDCHAR
STARTCHAR char932
ENCODING 932
SWIDTH 56 0
DWIDTH 10 0
BBX 10 13 0 0
BITMAP
FFC0
0400
0400
0400
0400
0400
0400
0400
0400
0400
0400
0400
0400
ENDCHAR
STARTCHAR char933
ENCODING 933
SWIDTH 56 0
DWIDTH 10 0
BBX 10 13 0 0
BITMAP
8040
C0C0
6080
2180
3100
1200
0A00
0C00
0400
0400
0400
0400
0400
ENDCHAR
STARTCHAR char934
ENCODING 934
SWIDTH 21 0
DWIDTH 14 0
BBX 12 13 1 0
BITMAP
0400
0600
3FC0
6460
C420
8430
8410
8430
C420
6460
3FC0
0E00
0400
ENDCHAR
STARTCHAR char935
ENCODING 935
SWIDTH 4 0
DWIDTH 11 0
BBX 10 13 1 0
BITMAP
8080
C080
6100
2300
1600
1C00
0C00
1C00
3200
2300
4100
C080
80C0
ENDCHAR
STARTCHAR char936
ENCODING 936
SWIDTH 4 0
DWIDTH 11 0
BBX 10 13 1 0
BITMAP
88C0
88C0
88C0
88C0
88C0
8880
C980
6B00
3E00
0800
0800
0800
0800
ENDCHAR
STARTCHAR char937
ENCODING 937
SWIDTH 21 0
DWIDTH 14 0
BBX 12 13 1 0
BITMAP
0F80
30C0
6020
4030
C010
8010
8010
8010
8010
C010
4030
2060
F9F0
ENDCHAR
STARTCHAR char938
ENCODING 938
SWIDTH 22 0
DWIDTH 4 0
BBX 5 17 0 0
BITMAP
98
98
00
00
20
20
20
20
20
20
20
20
20
20
20
20
20
ENDCHAR
STARTCHAR char939
ENCODING 939
SWIDTH 56 0
DWIDTH 10 0
BBX 10 17 0 0
BITMAP
1300
1300
0000
0000
8040
C0C0
6080
2180
3100
1200
0A00
0C00
0400
0400
0400
0400
0400
ENDCHAR
STARTCHAR char940
ENCODING 940
SWIDTH 4 0
DWIDTH 11 0
BBX 10 14 1 0
BITMAP
0400
0800
1000
0000
0000
3CC0
6680
8180
8180
8180
8180
8180
6680
3CC0
ENDCHAR
STARTCHAR char941
ENCODING 941
SWIDTH 39 0
DWIDTH 7 0
BBX 5 14 1 0
BITMAP
10
20
40
00
00
70
88
80
80
E0
80
80
88
70
ENDCHAR
STARTCHAR char942
ENCODING 942
SWIDTH 4 0
DWIDTH 11 0
BBX 9 18 1 -4
BITMAP
0400
0C00
1800
0000
0000
DE00
E300
C100
C180
C180
C180
C180
C180
C180
0180
0180
0180
0180
ENDCHAR
STARTCHAR char943
ENCODING 943
SWIDTH 28 0
DWIDTH 5 0
BBX 3 14 1 0
BITMAP
60
C0
80
00
00
40
40
40
40
40
40
40
40
40
ENDCHAR
STARTCHAR char944
ENCODING 944
SWIDTH 50 0
DWIDTH 9 0
BBX 8 13 1 0
BITMAP
08
5A
10
00
81
83
83
83
83
83
82
46
3C
ENDCHAR
STARTCHAR char945
ENCODING 945
SWIDTH 4 0
DWIDTH 11 0
BBX 10 9 1 0
BITMAP
3CC0
6680
8180
8180
8180
8180
8180
6680
3CC0
ENDCHAR
STARTCHAR char946
ENCODING 946
SWIDTH 50 0
DWIDTH 9 0
BBX 7 17 1 -4
BITMAP
70
C8
84
84
8C
B8
84
82
82
82
82
C4
F8
80
80
80
80
ENDCHAR
STARTCHAR char947
ENCODING 947
SWIDTH 50 0
DWIDTH 9 0
BBX 8 13 1 -4
BITMAP
81
82
C2
46
64
2C
28
18
10
10
10
10
10
ENDCHAR
STARTCHAR char948
ENCODING 948
SWIDTH 56 0
DWIDTH 10 0
BBX 8 13 1 0
BITMAP
FF
60
30
18
3C
66
C3
81
81
81
81
66
3C
ENDCHAR
STARTCHAR char949
ENCODING 949
SWIDTH 39 0
DWIDTH 7 0
BBX 5 9 1 0
BITMAP
70
88
80
80
E0
80
80
88
70
ENDCHAR
STARTCHAR char950
ENCODING 950
SWIDTH 50 0
DWIDTH 9 0
BBX 7 17 1 -4
BITMAP
FE
0E
18
30
60
C0
80
80
80
80
C0
60
3C
02
02
06
0C
ENDCHAR
STARTCHAR char951
ENCODING 951
SWIDTH 4 0
DWIDTH 11 0
BBX 9 13 1 -4
BITMAP
DE00
E300
C100
C180
C180
C180
C180
C180
C180
0180
0180
0180
0180
ENDCHAR
STARTCHAR char952
ENCODING 952
SWIDTH 50 0
DWIDTH 9 0
BBX 7 13 1 0
BITMAP
38
4C
C6
82
82
82
FE
82
82
82
C6
4C
38
ENDCHAR
STARTCHAR char953
ENCODING 953
SWIDTH 28 0
DWIDTH 5 0
BBX 1 9 2 0
BITMAP
80
80
80
80
80
80
80
80
80
ENDCHAR
STARTCHAR char954
ENCODING 954
SWIDTH 50 0
DWIDTH 9 0
BBX 7 9 1 0
BITMAP
82
8C
98
E0
F0
98
8C
86
82
ENDCHAR
STARTCHAR char955
ENCODING 955
SWIDTH 50 0
DWIDTH 9 0
BBX 7 13 1 0
BITMAP
40
60
20
30
10
30
38
28
4C
44
C4
86
82
ENDCHAR
STARTCHAR char956
ENCODING 956
SWIDTH 4 0
DWIDTH 11 0
BBX 8 13 1 -4
BITMAP
C1
C1
C1
C1
C1
C1
C1
E3
FD
C0
C0
C0
80
ENDCHAR
STARTCHAR char957
ENCODING 957
SWIDTH 50 0
DWIDTH 9 0
BBX 9 9 0 0
BITMAP
8180
4100
4100
2200
2200
3400
1400
1C00
0800
ENDCHAR
STARTCHAR char958
ENCODING 958
SWIDTH 44 0
DWIDTH 8 0
BBX 6 17 1 -4
BITMAP
38
40
C0
80
C0
78
C0
80
80
80
80
C0
38
04
04
0C
18
ENDCHAR
STARTCHAR char959
ENCODING 959
SWIDTH 4 0
DWIDTH 11 0
BBX 9 9 1 0
BITMAP
3E00
6300
C100
8080
8080
8080
C100
6300
3E00
ENDCHAR
STARTCHAR char960
ENCODING 960
SWIDTH 56 0
DWIDTH 10 0
BBX 8 9 1 0
BITMAP
FF
42
42
42
42
42
42
42
42
ENDCHAR
STARTCHAR char961
ENCODING 961
SWIDTH 4 0
DWIDTH 11 0
BBX 9 13 1 -4
BITMAP
1E00
2300
4080
4080
C080
C080
C080
E300
DE00
C000
C000
C000
C000
ENDCHAR
STARTCHAR char962
ENCODING 962
SWIDTH 44 0
DWIDTH 8 0
BBX 7 13 1 -4
BITMAP
3C
66
C0
80
80
80
C0
60
3C
04
06
04
18
ENDCHAR
STARTCHAR char963
ENCODING 963
SWIDTH 4 0
DWIDTH 11 0
BBX 9 9 1 0
BITMAP
3F80
6300
C100
8080
8080
8080
C100
6300
3E00
ENDCHAR
STARTCHAR char964
ENCODING 964
SWIDTH 50 0
DWIDTH 9 0
BBX 7 9 1 0
BITMAP
FE
10
10
10
10
10
10
10
10
ENDCHAR
STARTCHAR char965
ENCODING 965
SWIDTH 50 0
DWIDTH 9 0
BBX 8 9 1 0
BITMAP
81
83
83
83
83
83
82
46
3C
ENDCHAR
STARTCHAR char966
ENCODING 966
SWIDTH 56 0
DWIDTH 10 0
BBX 8 13 1 -4
BITMAP
6C
DA
99
99
99
99
DB
7E
3C
18
18
18
18
ENDCHAR
STARTCHAR char967
ENCODING 967
SWIDTH 50 0
DWIDTH 9 0
BBX 7 13 1 -4
BITMAP
82
86
C4
4C
28
38
10
38
28
6C
44
86
82
ENDCHAR
STARTCHAR char968
ENCODING 968
SWIDTH 4 0
DWIDTH 11 0
BBX 10 13 1 -4
BITMAP
88C0
88C0
88C0
88C0
88C0
8880
C980
6B00
3E00
0800
0800
0800
0800
ENDCHAR
STARTCHAR char969
ENCODING 969
SWIDTH 4 0
DWIDTH 11 0
BBX 10 9 1 0
BITMAP
4100
C180
8880
8880
88C0
88C0
88C0
DC80
7700
ENDCHAR
STARTCHAR char970
ENCODING 970
SWIDTH 28 0
DWIDTH 5 0
BBX 5 13 0 0
BITMAP
98
D8
00
00
20
20
20
20
20
20
20
20
20
ENDCHAR
STARTCHAR char971
ENCODING 971
SWIDTH 50 0
DWIDTH 9 0
BBX 8 13 1 0
BITMAP
64
6C
00
00
81
83
83
83
83
83
82
46
3C
ENDCHAR
STARTCHAR char972
ENCODING 972
SWIDTH 4 0
DWIDTH 11 0
BBX 9 14 1 0
BITMAP
0400
0800
1000
0000
0000
3E00
6300
C100
8080
8080
8080
C100
6300
3E00
ENDCHAR
STARTCHAR char973
ENCODING 973
SWIDTH 50 0
DWIDTH 9 0
BBX 8 14 1 0
BITMAP
08
18
30
00
00
81
83
83
83
83
83
82
46
3C
ENDCHAR
STARTCHAR char974
ENCODING 974
SWIDTH 4 0
DWIDTH 11 0
BBX 10 14 1 0
BITMAP
0400
0800
1000
0000
0000
4100
C180
8880
8880
88C0
88C0
88C0
DC80
7700
ENDCHAR
STARTCHAR char1024
ENCODING 1024
SWIDTH 4 0
DWIDTH 11 0
BBX 8 17 2 0
BITMAP
20
30
18
00
FF
80
80
80
80
80
FC
80
80
80
80
80
FF
ENDCHAR
STARTCHAR char1025
ENCODING 1025
SWIDTH 4 0
DWIDTH 11 0
BBX 8 17 2 0
BITMAP
24
26
00
00
FF
80
80
80
80
80
FC
80
80
80
80
80
FF
ENDCHAR
STARTCHAR char1026
ENCODING 1026
SWIDTH 16 0
DWIDTH 13 0
BBX 12 13 0 0
BITMAP
FFC0
1800
1800
1800
1FC0
1C60
1820
1830
1830
1830
1820
1860
1980
ENDCHAR
STARTCHAR char1027
ENCODING 1027
SWIDTH 56 0
DWIDTH 10 0
BBX 8 17 2 0
BITMAP
0C
18
10
00
FF
80
80
80
80
80
80
80
80
80
80
80
80
ENDCHAR
STARTCHAR char1028
ENCODING 1028
SWIDTH 10 0
DWIDTH 12 0
BBX 10 13 1 0
BITMAP
0F80
30C0
6000
4000
C000
8000
FF00
8000
C000
4000
6000
30C0
0F80
ENDCHAR
STARTCHAR char1029
ENCODING 1029
SWIDTH 4 0
DWIDTH 11 0
BBX 9 13 1 0
BITMAP
3E00
6300
C100
C000
4000
7000
1E00
0300
0100
0180
8100
6300
3E00
ENDCHAR
STARTCHAR char1030
ENCODING 1030
SWIDTH 22 0
DWIDTH 4 0
BBX 1 13 2 0
BITMAP
80
80
80
80
80
80
80
80
80
80
80
80
80
ENDCHAR
STARTCHAR char1031
ENCODING 1031
SWIDTH 22 0
DWIDTH 4 0
BBX 5 17 0 0
BITMAP
98
98
00
00
20
20
20
20
20
20
20
20
20
20
20
20
20
ENDCHAR
STARTCHAR char1032
ENCODING 1032
SWIDTH 56 0
DWIDTH 10 0
BBX 7 13 1 0
BITMAP
02
02
02
02
02
02
02
02
02
82
82
C4
38
ENDCHAR
STARTCHAR char1033
ENCODING 1033
SWIDTH 32 0
DWIDTH 16 0
BBX 16 13 0 0
BITMAP
0400
0600
0E00
0B00
1900
11FC
1186
3082
20C3
6043
4042
4066
C03C
ENDCHAR
STARTCHAR char1034
ENCODING 1034
SWIDTH 49 0
DWIDTH 19 0
BBX 16 13 2 0
BITMAP
8080
8080
8080
8080
8080
80FC
FF86
8083
8081
8081
8083
8086
80FC
ENDCHAR
STARTCHAR char1035
ENCODING 1035
SWIDTH 21 0
DWIDTH 14 0
BBX 13 13 0 0
BITMAP
FFC0
0800
0800
0800
0800
0BC0
0C30
0810
0810
0818
0818
0818
0818
ENDCHAR
STARTCHAR char1036
ENCODING 1036
SWIDTH 4 0
DWIDTH 11 0
BBX 9 17 2 0
BITMAP
0C00
1800
1000
0000
8100
8300
8600
8400
8800
9800
F000
9800
8800
8400
8200
8300
8180
ENDCHAR
STARTCHAR char1037
ENCODING 1037
SWIDTH 21 0
DWIDTH 14 0
BBX 10 17 2 0
BITMAP
3000
1800
0800
0000
8040
80C0
8140
8340
8240
8440
8840
9840
9040
A040
C040
C040
8040
ENDCHAR
STARTCHAR char1038
ENCODING 1038
SWIDTH 4 0
DWIDTH 11 0
BBX 11 17 0 0
BITMAP
1100
1100
0F00
0000
8060
C040
40C0
2080
2180
1100
1900
0A00
0E00
0400
0400
0800
7800
ENDCHAR
STARTCHAR char1039
ENCODING 1039
SWIDTH 16 0
DWIDTH 13 0
BBX 9 16 2 -3
BITMAP
8080
8080
8080
8080
8080
8080
8080
8080
8080
8080
8080
8080
FF80
0800
0800
0800
ENDCHAR
STARTCHAR char1040
ENCODING 1040
SWIDTH 4 0
DWIDTH 11 0
BBX 11 13 0 0
BITMAP
0400
0600
0E00
0A00
1900
1100
1180
3080
20C0
7FC0
4040
4060
C020
ENDCHAR
STARTCHAR char1041
ENCODING 1041
SWIDTH 10 0
DWIDTH 12 0
BBX 9 13 2 0
BITMAP
FF00
8000
8000
8000
8000
FE00
8300
8100
8180
8180
8100
8300
FE00
ENDCHAR
STARTCHAR char1042
ENCODING 1042
SWIDTH 4 0
DWIDTH 11 0
BBX 8 13 2 0
BITMAP
FC
86
82
83
82
82
FC
83
81
81
81
83
FC
ENDCHAR
STARTCHAR char1043
ENCODING 1043
SWIDTH 56 0
DWIDTH 10 0
BBX 8 13 2 0
BITMAP
FF
80
80
80
80
80
80
80
80
80
80
80
80
ENDCHAR
STARTCHAR char1044
ENCODING 1044
SWIDTH 16 0
DWIDTH 13 0
BBX 13 16 0 -3
BITMAP
0200
0300
0700
0500
0C80
0880
08C0
1840
1040
3020
2020
2030
FFF8
C008
C008
C008
ENDCHAR
STARTCHAR char1045
ENCODING 1045
SWIDTH 4 0
DWIDTH 11 0
BBX 8 13 2 0
BITMAP
FF
80
80
80
80
80
FC
80
80
80
80
80
FF
ENDCHAR
STARTCHAR char1046
ENCODING 1046
SWIDTH 32 0
DWIDTH 16 0
BBX 16 13 0 0
BITMAP
4083
6082
3084
108C
1888
0C90
07F0
0C90
1888
108C
2086
6082
C081
ENDCHAR
STARTCHAR char1047
ENCODING 1047
SWIDTH 56 0
DWIDTH 10 0
BBX 8 13 1 0
BITMAP
3C
46
83
03
03
02
1C
02
01
01
81
C3
7C
ENDCHAR
STARTCHAR char1048
ENCODING 1048
SWIDTH 21 0
DWIDTH 14 0
BBX 10 13 2 0
BITMAP
8040
80C0
8140
8340
8240
8440
8840
9840
9040
A040
C040
C040
8040
ENDCHAR
STARTCHAR char1049
ENCODING 1049
SWIDTH 21 0
DWIDTH 14 0
BBX 10 17 2 0
BITMAP
2300
2200
1E00
0000
8040
80C0
8140
8340
8240
8440
8840
9840
9040
A040
C040
C040
8040
ENDCHAR
STARTCHAR char1050
ENCODING 1050
SWIDTH 4 0
DWIDTH 11 0
BBX 9 13 2 0
BITMAP
8100
8300
8600
8400
8800
9800
F000
9800
8800
8400
8200
8300
8180
ENDCHAR
STARTCHAR char1051
ENCODING 1051
SWIDTH 4 0
DWIDTH 11 0
BBX 11 13 0 0
BITMAP
0400
0600
0E00
0B00
1900
1100
1180
3080
20C0
6040
4040
4060
C020
ENDCHAR
STARTCHAR char1052
ENCODING 1052
SWIDTH 32 0
DWIDTH 16 0
BBX 12 13 2 0
BITMAP
8010
8030
C030
C070
E050
A050
B090
9090
9910
8910
8E10
8610
8410
ENDCHAR
STARTCHAR char1053
ENCODING 1053
SWIDTH 21 0
DWIDTH 14 0
BBX 10 13 2 0
BITMAP
8040
8040
8040
8040
8040
8040
FFC0
8040
8040
8040
8040
8040
8040
ENDCHAR
STARTCHAR char1054
ENCODING 1054
SWIDTH 27 0
DWIDTH 15 0
BBX 13 13 1 0
BITMAP
0F80
30E0
6030
4010
C010
8018
8008
8018
C010
4010
6030
30E0
0F80
ENDCHAR
STARTCHAR char1055
ENCODING 1055
SWIDTH 16 0
DWIDTH 13 0
BBX 9 13 2 0
BITMAP
FF80
8080
8080
8080
8080
8080
8080
8080
8080
8080
8080
8080
8080
ENDCHAR
STARTCHAR char1056
ENCODING 1056
SWIDTH 56 0
DWIDTH 10 0
BBX 7 13 2 0
BITMAP
F8
86
82
82
82
82
86
FC
80
80
80
80
80
ENDCHAR
STARTCHAR char1057
ENCODING 1057
SWIDTH 10 0
DWIDTH 12 0
BBX 10 13 1 0
BITMAP
0F80
30C0
6000
4000
C000
8000
8000
8000
C000
4000
6000
30C0
0F80
ENDCHAR
STARTCHAR char1058
ENCODING 1058
SWIDTH 56 0
DWIDTH 10 0
BBX 10 13 0 0
BITMAP
FFC0
0400
0400
0400
0400
0400
0400
0400
0400
0400
0400
0400
0400
ENDCHAR
STARTCHAR char1059
ENCODING 1059
SWIDTH 4 0
DWIDTH 11 0
BBX 11 13 0 0
BITMAP
8060
C040
40C0
2080
2180
1100
1900
0A00
0E00
0400
0400
0800
7800
ENDCHAR
STARTCHAR char1060
ENCODING 1060
SWIDTH 21 0
DWIDTH 14 0
BBX 12 13 1 0
BITMAP
0400
0600
3FC0
6460
C420
8430
8410
8430
C420
6460
3FC0
0E00
0400
ENDCHAR
STARTCHAR char1061
ENCODING 1061
SWIDTH 4 0
DWIDTH 11 0
BBX 10 13 1 0
BITMAP
8080
C080
6100
2300
1600
1C00
0C00
1C00
3200
2300
4100
C080
80C0
ENDCHAR
STARTCHAR char1062
ENCODING 1062
SWIDTH 21 0
DWIDTH 14 0
BBX 11 16 2 -3
BITMAP
8080
8080
8080
8080
8080
8080
8080
8080
8080
8080
8080
8080
FFE0
0020
0020
0020
ENDCHAR
STARTCHAR char1063
ENCODING 1063
SWIDTH 10 0
DWIDTH 12 0
BBX 10 13 1 0
BITMAP
80C0
80C0
80C0
80C0
C0C0
C0C0
40C0
61C0
3EC0
00C0
00C0
00C0
00C0
ENDCHAR
STARTCHAR char1064
ENCODING 1064
SWIDTH 38 0
DWIDTH 17 0
BBX 14 13 2 0
BITMAP
8208
820C
820C
820C
820C
820C
820C
820C
820C
820C
820C
820C
FFF8
ENDCHAR
STARTCHAR char1065
ENCODING 1065
SWIDTH 44 0
DWIDTH 18 0
BBX 15 16 2 -3
BITMAP
8208
820C
820C
820C
820C
820C
820C
820C
820C
820C
820C
820C
FFFE
0002
0002
0002
ENDCHAR
STARTCHAR char1066
ENCODING 1066
SWIDTH 21 0
DWIDTH 14 0
BBX 13 13 0 0
BITMAP
F800
0800
0800
0800
0800
0FE0
0830
0810
0818
0818
0810
0830
0FE0
ENDCHAR
STARTCHAR char1067
ENCODING 1067
SWIDTH 27 0
DWIDTH 15 0
BBX 11 13 2 0
BITMAP
8020
8020
8020
8020
8020
FC20
8620
8320
8120
8120
8320
8620
FC20
ENDCHAR
STARTCHAR char1068
ENCODING 1068
SWIDTH 4 0
DWIDTH 11 0
BBX 8 13 2 0
BITMAP
80
80
80
80
80
FC
83
81
81
81
81
83
FC
ENDCHAR
STARTCHAR char1069
ENCODING 1069
SWIDTH 10 0
DWIDTH 12 0
BBX 10 13 1 0
BITMAP
3E00
C300
0180
00C0
0040
0040
1FC0
0040
0040
00C0
0080
C300
3E00
ENDCHAR
STARTCHAR char1070
ENCODING 1070
SWIDTH 49 0
DWIDTH 19 0
BBX 16 13 2 0
BITMAP
81F0
831C
8406
8802
8803
9801
F801
9803
8803
8802
8406
871C
81F0
ENDCHAR
STARTCHAR char1071
ENCODING 1071
SWIDTH 4 0
DWIDTH 11 0
BBX 9 13 1 0
BITMAP
3F80
6180
4180
8180
8180
C180
6180
3F80
1180
2180
6180
4180
C180
ENDCHAR
STARTCHAR char1072
ENCODING 1072
SWIDTH 4 0
DWIDTH 11 0
BBX 9 9 1 0
BITMAP
3E00
6300
C100
8080
8080
8080
C180
6380
3C80
ENDCHAR
STARTCHAR char1073
ENCODING 1073
SWIDTH 4 0
DWIDTH 11 0
BBX 9 14 1 0
BITMAP
0100
0700
1800
2000
4000
5C00
A300
C100
8180
8180
8180
C100
6300
3C00
ENDCHAR
STARTCHAR char1074
ENCODING 1074
SWIDTH 56 0
DWIDTH 10 0
BBX 8 9 1 0
BITMAP
FE
C2
C3
C2
FC
C3
C1
C3
FE
ENDCHAR
STARTCHAR char1075
ENCODING 1075
SWIDTH 44 0
DWIDTH 8 0
BBX 7 9 1 0
BITMAP
78
CC
04
0C
78
C0
80
86
78
ENDCHAR
STARTCHAR char1076
ENCODING 1076
SWIDTH 4 0
DWIDTH 11 0
BBX 9 13 1 -4
BITMAP
3E00
6300
C100
8080
8080
8080
C180
6280
3C80
0180
C100
6300
3C00
ENDCHAR
STARTCHAR char1077
ENCODING 1077
SWIDTH 56 0
DWIDTH 10 0
BBX 8 9 1 0
BITMAP
3C
62
C1
81
FF
80
C0
63
3C
ENDCHAR
STARTCHAR char1078
ENCODING 1078
SWIDTH 16 0
DWIDTH 13 0
BBX 11 9 1 0
BITMAP
8420
C440
44C0
2480
3F00
2480
44C0
C440
8420
ENDCHAR
STARTCHAR char1079
ENCODING 1079
SWIDTH 44 0
DWIDTH 8 0
BBX 7 9 1 0
BITMAP
78
CC
04
04
38
04
06
C4
78
ENDCHAR
STARTCHAR char1080
ENCODING 1080
SWIDTH 4 0
DWIDTH 11 0
BBX 8 9 1 0
BITMAP
C1
C1
C1
C1
C1
C1
41
63
3D
ENDCHAR
STARTCHAR char1081
ENCODING 1081
SWIDTH 4 0
DWIDTH 11 0
BBX 8 13 1 0
BITMAP
22
22
3C
00
C1
C1
C1
C1
C1
C1
41
63
3D
ENDCHAR
STARTCHAR char1082
ENCODING 1082
SWIDTH 50 0
DWIDTH 9 0
BBX 7 9 1 0
BITMAP
C2
C6
CC
C8
F0
D8
CC
C6
C2
ENDCHAR
STARTCHAR char1083
ENCODING 1083
SWIDTH 50 0
DWIDTH 9 0
BBX 8 9 1 0
BITMAP
10
18
38
2C
64
46
C2
82
81
ENDCHAR
STARTCHAR char1084
ENCODING 1084
SWIDTH 16 0
DWIDTH 13 0
BBX 10 9 1 0
BITMAP
C040
C0C0
E1C0
F140
D240
CE40
C440
C040
C040
ENDCHAR
STARTCHAR char1085
ENCODING 1085
SWIDTH 4 0
DWIDTH 11 0
BBX 9 9 1 0
BITMAP
C180
C180
C180
C180
FF80
C180
C180
C180
C180
ENDCHAR
STARTCHAR char1086
ENCODING 1086
SWIDTH 4 0
DWIDTH 11 0
BBX 9 9 1 0
BITMAP
3E00
6300
C100
8080
8080
8080
C100
6300
3E00
ENDCHAR
STARTCHAR char1087
ENCODING 1087
SWIDTH 4 0
DWIDTH 11 0
BBX 9 9 1 0
BITMAP
DE00
E300
C100
C180
C180
C180
C180
C180
C180
ENDCHAR
STARTCHAR char1088
ENCODING 1088
SWIDTH 4 0
DWIDTH 11 0
BBX 9 13 1 -4
BITMAP
1E00
2300
4080
4080
C080
C080
C080
E300
DE00
C000
C000
C000
C000
ENDCHAR
STARTCHAR char1089
ENCODING 1089
SWIDTH 56 0
DWIDTH 10 0
BBX 8 9 1 0
BITMAP
3C
63
C0
80
80
80
C0
62
3C
ENDCHAR
STARTCHAR char1090
ENCODING 1090
SWIDTH 27 0
DWIDTH 15 0
BBX 13 9 1 0
BITMAP
FCE0
E710
C218
C208
C208
C208
C208
C208
C208
ENDCHAR
STARTCHAR char1091
ENCODING 1091
SWIDTH 50 0
DWIDTH 9 0
BBX 8 13 0 -4
BITMAP
81
41
43
22
22
14
14
1C
08
18
10
30
E0
ENDCHAR
STARTCHAR char1092
ENCODING 1092
SWIDTH 10 0
DWIDTH 12 0
BBX 10 17 1 -4
BITMAP
0C00
0C00
0C00
0C00
3F00
6D80
CCC0
8C40
8C40
8C40
CCC0
6D80
3F00
0C00
0C00
0C00
0C00
ENDCHAR
STARTCHAR char1093
ENCODING 1093
SWIDTH 50 0
DWIDTH 9 0
BBX 7 9 1 0
BITMAP
82
C6
6C
28
10
28
4C
C6
82
ENDCHAR
STARTCHAR char1094
ENCODING 1094
SWIDTH 4 0
DWIDTH 11 0
BBX 10 12 1 -3
BITMAP
C100
C100
C100
C100
C100
C100
4100
6300
3DC0
0040
0040
0040
ENDCHAR
STARTCHAR char1095
ENCODING 1095
SWIDTH 50 0
DWIDTH 9 0
BBX 7 9 1 0
BITMAP
82
82
82
82
C6
7A
02
02
02
ENDCHAR
STARTCHAR char1096
ENCODING 1096
SWIDTH 27 0
DWIDTH 15 0
BBX 13 9 1 0
BITMAP
C218
C218
C218
C218
C218
C218
C218
4738
39F8
ENDCHAR
STARTCHAR char1097
ENCODING 1097
SWIDTH 32 0
DWIDTH 16 0
BBX 14 12 1 -3
BITMAP
C218
C218
C218
C218
C218
C218
C218
4718
39EC
0004
0004
0004
ENDCHAR
STARTCHAR char1098
ENCODING 1098
SWIDTH 4 0
DWIDTH 11 0
BBX 10 9 0 0
BITMAP
F000
1000
1000
1F80
10C0
1040
1040
08C0
0780
ENDCHAR
STARTCHAR char1099
ENCODING 1099
SWIDTH 10 0
DWIDTH 12 0
BBX 10 9 1 0
BITMAP
C040
C040
C040
FC40
C640
C240
4240
6640
3C40
ENDCHAR
STARTCHAR char1100
ENCODING 1100
SWIDTH 50 0
DWIDTH 9 0
BBX 8 9 1 0
BITMAP
C0
C0
C0
FC
C2
C1
41
62
3C
ENDCHAR
STARTCHAR char1101
ENCODING 1101
SWIDTH 56 0
DWIDTH 10 0
BBX 8 9 1 0
BITMAP
78
C6
82
02
3F
02
02
C6
78
ENDCHAR
STARTCHAR char1102
ENCODING 1102
SWIDTH 21 0
DWIDTH 14 0
BBX 12 9 1 0
BITMAP
C3C0
C460
C810
C810
F810
C810
C810
CC60
C3C0
ENDCHAR
STARTCHAR char1103
ENCODING 1103
SWIDTH 50 0
DWIDTH 9 0
BBX 7 9 1 0
BITMAP
3E
42
C2
C2
42
7E
22
42
82
ENDCHAR
STARTCHAR char1104
ENCODING 1104
SWIDTH 56 0
DWIDTH 10 0
BBX 8 13 1 0
BITMAP
20
30
18
00
3C
62
C1
81
FF
80
C0
63
3C
ENDCHAR
STARTCHAR char1105
ENCODING 1105
SWIDTH 56 0
DWIDTH 10 0
BBX 8 13 1 0
BITMAP
26
26
00
00
3C
62
C1
81
FF
80
C0
63
3C
ENDCHAR
STARTCHAR char1106
ENCODING 1106
SWIDTH 4 0
DWIDTH 11 0
BBX 10 17 0 -4
BITMAP
2000
2000
FE00
2000
2000
2F00
3180
20C0
2040
2040
2040
2040
2040
00C0
0080
0180
0300
ENDCHAR
STARTCHAR char1107
ENCODING 1107
SWIDTH 44 0
DWIDTH 8 0
BBX 7 13 1 0
BITMAP
0C
18
10
00
78
CC
04
0C
78
C0
80
86
78
ENDCHAR
STARTCHAR char1108
ENCODING 1108
SWIDTH 56 0
DWIDTH 10 0
BBX 8 9 1 0
BITMAP
3C
63
C2
80
F8
80
C0
62
3C
ENDCHAR
STARTCHAR char1109
ENCODING 1109
SWIDTH 50 0
DWIDTH 9 0
BBX 7 9 1 0
BITMAP
7C
C6
C0
40
3C
06
02
C6
7C
ENDCHAR
STARTCHAR char1110
ENCODING 1110
SWIDTH 28 0
DWIDTH 5 0
BBX 2 13 1 0
BITMAP
40
C0
00
00
40
40
40
40
40
40
40
40
40
ENDCHAR
STARTCHAR char1111
ENCODING 1111
SWIDTH 28 0
DWIDTH 5 0
BBX 5 13 0 0
BITMAP
98
D8
00
00
20
20
20
20
20
20
20
20
20
ENDCHAR
STARTCHAR char1112
ENCODING 1112
SWIDTH 28 0
DWIDTH 5 0
BBX 5 17 -2 -4
BITMAP
08
18
00
00
08
08
08
08
08
08
08
08
08
08
18
30
E0
ENDCHAR
STARTCHAR char1113
ENCODING 1113
SWIDTH 16 0
DWIDTH 13 0
BBX 11 9 1 0
BITMAP
1000
1800
2800
2FC0
6460
4620
C220
8260
81C0
ENDCHAR
STARTCHAR char1114
ENCODING 1114
SWIDTH 27 0
DWIDTH 15 0
BBX 14 9 1 0
BITMAP
C100
C100
C100
C1F0
FF08
C10C
C10C
C188
C0F0
ENDCHAR
STARTCHAR char1115
ENCODING 1115
SWIDTH 4 0
DWIDTH 11 0
BBX 10 13 0 0
BITMAP
2000
2000
FE00
2000
2F00
3180
2080
20C0
2040
2040
2040
2040
2040
ENDCHAR
STARTCHAR char1116
ENCODING 1116
SWIDTH 50 0
DWIDTH 9 0
BBX 7 13 1 0
BITMAP
0C
18
10
00
C2
C6
CC
C8
F0
D8
CC
C6
C2
ENDCHAR
STARTCHAR char1117
ENCODING 1117
SWIDTH 4 0
DWIDTH 11 0
BBX 8 13 1 0
BITMAP
20
10
08
00
C1
C1
C1
C1
C1
C1
41
63
3D
ENDCHAR
STARTCHAR char1118
ENCODING 1118
SWIDTH 50 0
DWIDTH 9 0
BBX 8 17 0 -4
BITMAP
22
22
1C
00
81
41
43
22
22
14
14
1C
08
18
10
30
E0
ENDCHAR
STARTCHAR char1119
ENCODING 1119
SWIDTH 50 0
DWIDTH 9 0
BBX 7 11 1 -2
BITMAP
82
82
82
82
82
82
82
82
FE
10
10
ENDCHAR
STARTCHAR char1122
ENCODING 1122
SWIDTH 10 0
DWIDTH 12 0
BBX 12 13 0 0
BITMAP
1000
1000
FF80
1000
1000
1FC0
1060
1020
1030
1030
1020
1060
1FC0
ENDCHAR
STARTCHAR char1123
ENCODING 1123
SWIDTH 56 0
DWIDTH 10 0
BBX 9 13 0 0
BITMAP
2000
3000
3000
3000
FE00
3000
3000
3F00
3180
3080
3080
1180
0F00
ENDCHAR
STARTCHAR char1130
ENCODING 1130
SWIDTH 27 0
DWIDTH 15 0
BBX 14 13 0 0
BITMAP
3FF0
1030
0820
0C40
06C0
0280
0FE0
1930
3118
2108
6108
4104
C104
ENDCHAR
STARTCHAR char1131
ENCODING 1131
SWIDTH 10 0
DWIDTH 12 0
BBX 10 9 1 0
BITMAP
7F80
2100
3200
1E00
3F00
4980
C880
8840
8840
ENDCHAR
STARTCHAR char1138
ENCODING 1138
SWIDTH 27 0
DWIDTH 15 0
BBX 13 13 1 0
BITMAP
0F80
30E0
6030
4010
C010
8018
FFF8
8018
C010
4010
6030
30E0
0F80
ENDCHAR
STARTCHAR char1139
ENCODING 1139
SWIDTH 4 0
DWIDTH 11 0
BBX 9 9 1 0
BITMAP
3E00
6300
C100
8080
FF80
8080
C100
6300
3E00
ENDCHAR
STARTCHAR char1140
ENCODING 1140
SWIDTH 4 0
DWIDTH 11 0
BBX 11 13 0 0
BITMAP
C020
4040
40C0
6080
2080
2180
1100
1100
1200
0A00
0A00
0C00
0400
ENDCHAR
STARTCHAR char1141
ENCODING 1141
SWIDTH 50 0
DWIDTH 9 0
BBX 9 9 0 0
BITMAP
8180
4300
4200
6200
2400
3400
1C00
1800
0800
ENDCHAR
STARTCHAR char1168
ENCODING 1168
SWIDTH 56 0
DWIDTH 10 0
BBX 8 16 2 0
BITMAP
02
03
03
FF
80
80
80
80
80
80
80
80
80
80
80
80
ENDCHAR
STARTCHAR char1169
ENCODING 1169
SWIDTH 44 0
DWIDTH 8 0
BBX 6 12 1 0
BITMAP
04
04
04
FC
C0
C0
C0
C0
C0
C0
C0
C0
ENDCHAR
STARTCHAR char1170
ENCODING 1170
SWIDTH 56 0
DWIDTH 10 0
BBX 10 13 0 0
BITMAP
3FC0
2000
2000
2000
2000
2000
FC00
2000
2000
2000
2000
2000
2000
ENDCHAR
STARTCHAR char1171
ENCODING 1171
SWIDTH 44 0
DWIDTH 8 0
BBX 7 9 0 0
BITMAP
3E
20
20
20
FC
20
20
20
20
ENDCHAR
STARTCHAR char1172
ENCODING 1172
SWIDTH 4 0
DWIDTH 11 0
BBX 8 13 2 0
BITMAP
FF
80
80
80
BC
C6
83
81
81
81
83
86
9C
ENDCHAR
STARTCHAR char1173
ENCODING 1173
SWIDTH 50 0
DWIDTH 9 0
BBX 8 12 1 -3
BITMAP
FC
C0
C0
FC
C6
C2
C3
C3
C3
02
06
1C
ENDCHAR
STARTCHAR char1174
ENCODING 1174
SWIDTH 38 0
DWIDTH 17 0
BBX 17 16 0 -3
BITMAP
408300
608200
308400
108C00
188800
0C9000
07F000
0C9000
189800
108C00
208400
608200
C08380
000180
000180
000180
ENDCHAR
STARTCHAR char1175
ENCODING 1175
SWIDTH 16 0
DWIDTH 13 0
BBX 12 12 1 -3
BITMAP
8420
C440
44C0
2480
3F00
6480
4480
8440
8470
0010
0010
0010
ENDCHAR
STARTCHAR char1176
ENCODING 1176
SWIDTH 56 0
DWIDTH 10 0
BBX 8 15 1 -2
BITMAP
3C
46
83
03
03
02
1C
02
01
01
81
C3
7C
08
08
ENDCHAR
STARTCHAR char1177
ENCODING 1177
SWIDTH 44 0
DWIDTH 8 0
BBX 7 12 1 -3
BITMAP
78
CC
04
04
38
04
06
84
7C
10
10
10
ENDCHAR
STARTCHAR char1178
ENCODING 1178
SWIDTH 4 0
DWIDTH 11 0
BBX 9 16 2 -3
BITMAP
8100
8300
8600
8400
8800
9800
F000
9000
8800
8C00
8600
8200
8180
0080
0080
0080
ENDCHAR
STARTCHAR char1179
ENCODING 1179
SWIDTH 50 0
DWIDTH 9 0
BBX 8 12 1 -3
BITMAP
C2
C6
C4
C8
F0
C8
CC
C6
C3
01
01
01
ENDCHAR
STARTCHAR char1180
ENCODING 1180
SWIDTH 4 0
DWIDTH 11 0
BBX 9 13 2 0
BITMAP
8100
8300
8600
8400
A800
B800
F000
B800
A800
A400
8200
8300
8180
ENDCHAR
STARTCHAR char1181
ENCODING 1181
SWIDTH 50 0
DWIDTH 9 0
BBX 8 9 1 0
BITMAP
C3
C2
E4
E8
F0
E8
E4
C2
C3
ENDCHAR
STARTCHAR char1184
ENCODING 1184
SWIDTH 21 0
DWIDTH 14 0
BBX 13 13 0 0
BITMAP
FC18
0C10
0C20
0C60
0CC0
0C80
0F00
0C80
0C40
0C60
0C30
0C18
0C08
ENDCHAR
STARTCHAR char1185
ENCODING 1185
SWIDTH 4 0
DWIDTH 11 0
BBX 10 9 0 0
BITMAP
F040
1080
1180
1300
1E00
1300
1180
10C0
1040
ENDCHAR
STARTCHAR char1186
ENCODING 1186
SWIDTH 21 0
DWIDTH 14 0
BBX 11 16 2 -3
BITMAP
8040
8040
8040
8040
8040
8040
FFC0
8040
8040
8040
8040
8040
8060
0020
0020
0020
ENDCHAR
STARTCHAR char1187
ENCODING 1187
SWIDTH 4 0
DWIDTH 11 0
BBX 10 12 1 -3
BITMAP
C180
C180
C180
C180
FF80
C180
C180
C180
C1C0
0040
0040
0040
ENDCHAR
STARTCHAR char1188
ENCODING 1188
SWIDTH 44 0
DWIDTH 18 0
BBX 16 13 2 0
BITMAP
80FF
8080
8080
8080
8080
8080
FF80
8080
8080
8080
8080
8080
8080
ENDCHAR
STARTCHAR char1189
ENCODING 1189
SWIDTH 21 0
DWIDTH 14 0
BBX 13 9 1 0
BITMAP
C1F8
C100
C100
C100
FF00
C100
C100
C100
C100
ENDCHAR
STARTCHAR char1194
ENCODING 1194
SWIDTH 10 0
DWIDTH 12 0
BBX 10 16 1 -3
BITMAP
0F80
30C0
6000
4000
C000
8000
8000
8000
C000
4000
6000
30C0
1F80
0200
0200
0200
ENDCHAR
STARTCHAR char1195
ENCODING 1195
SWIDTH 56 0
DWIDTH 10 0
BBX 8 12 1 -3
BITMAP
3C
63
C0
80
80
80
C0
62
3E
08
08
08
ENDCHAR
STARTCHAR char1198
ENCODING 1198
SWIDTH 56 0
DWIDTH 10 0
BBX 10 13 0 0
BITMAP
8040
C0C0
6080
2180
3100
1200
0A00
0C00
0400
0400
0400
0400
0400
ENDCHAR
STARTCHAR char1199
ENCODING 1199
SWIDTH 50 0
DWIDTH 9 0
BBX 8 13 1 -4
BITMAP
81
82
C2
46
64
2C
28
18
10
10
10
10
10
ENDCHAR
STARTCHAR char1200
ENCODING 1200
SWIDTH 56 0
DWIDTH 10 0
BBX 10 13 0 0
BITMAP
8040
C040
4080
2180
3100
1300
1A00
0C00
3F00
0400
0400
0400
0400
ENDCHAR
STARTCHAR char1201
ENCODING 1201
SWIDTH 50 0
DWIDTH 9 0
BBX 8 13 1 -4
BITMAP
81
82
C2
46
64
2C
28
38
18
FE
10
10
10
ENDCHAR
STARTCHAR char1206
ENCODING 1206
SWIDTH 10 0
DWIDTH 12 0
BBX 11 16 1 -3
BITMAP
80C0
80C0
80C0
80C0
C0C0
C0C0
40C0
61C0
3EC0
00C0
00C0
00C0
00E0
0020
0020
0020
ENDCHAR
STARTCHAR char1207
ENCODING 1207
SWIDTH 50 0
DWIDTH 9 0
BBX 8 12 1 -3
BITMAP
82
82
82
82
C6
7A
02
02
03
01
01
01
ENDCHAR
STARTCHAR char1208
ENCODING 1208
SWIDTH 10 0
DWIDTH 12 0
BBX 10 13 1 0
BITMAP
80C0
80C0
80C0
80C0
C0C0
48C0
69C0
3FC0
08C0
08C0
08C0
00C0
00C0
ENDCHAR
STARTCHAR char1209
ENCODING 1209
SWIDTH 50 0
DWIDTH 9 0
BBX 7 9 1 0
BITMAP
82
82
82
92
D6
7E
12
12
02
ENDCHAR
STARTCHAR char1210
ENCODING 1210
SWIDTH 10 0
DWIDTH 12 0
BBX 9 13 2 0
BITMAP
8000
8000
8000
8000
8000
BE00
C300
8100
8180
8080
8080
8080
8080
ENDCHAR
STARTCHAR char1211
ENCODING 1211
SWIDTH 4 0
DWIDTH 11 0
BBX 9 13 1 0
BITMAP
C000
C000
C000
C000
DE00
E300
C100
C180
C180
C180
C180
C180
C180
ENDCHAR
STARTCHAR char1216
ENCODING 1216
SWIDTH 22 0
DWIDTH 4 0
BBX 1 13 2 0
BITMAP
80
80
80
80
80
80
80
80
80
80
80
80
80
ENDCHAR
STARTCHAR char1217
ENCODING 1217
SWIDTH 32 0
DWIDTH 16 0
BBX 16 17 0 0
BITMAP
0620
0220
03C0
0000
4083
6082
3084
108C
1888
0C90
07F0
0C90
1888
108C
2086
6082
C081
ENDCHAR
STARTCHAR char1218
ENCODING 1218
SWIDTH 16 0
DWIDTH 13 0
BBX 11 13 1 0
BITMAP
1100
1100
1E00
0000
8420
C440
44C0
2480
3F00
2480
44C0
C440
8420
ENDCHAR
STARTCHAR char1227
ENCODING 1227
SWIDTH 16 0
DWIDTH 13 0
BBX 10 16 1 -3
BITMAP
80C0
80C0
80C0
80C0
C0C0
40C0
61C0
3EC0
00C0
00C0
00C0
00C0
01C0
0100
0100
0100
ENDCHAR
STARTCHAR char1228
ENCODING 1228
SWIDTH 50 0
DWIDTH 9 0
BBX 7 12 1 -3
BITMAP
82
82
82
82
C6
7A
02
02
0E
08
08
08
ENDCHAR
STARTCHAR char1231
ENCODING 1231
SWIDTH 28 0
DWIDTH 5 0
BBX 3 13 1 0
BITMAP
80
80
80
80
80
80
80
80
80
80
80
C0
60
ENDCHAR
STARTCHAR char1232
ENCODING 1232
SWIDTH 4 0
DWIDTH 11 0
BBX 11 17 0 0
BITMAP
1100
1100
0F00
0000
0400
0600
0E00
0A00
1900
1100
1180
3080
20C0
7FC0
4040
4060
C020
ENDCHAR
STARTCHAR char1233
ENCODING 1233
SWIDTH 4 0
DWIDTH 11 0
BBX 9 13 1 0
BITMAP
2200
2200
3C00
0000
3E00
6300
C100
8080
8080
8080
C180
6380
3C80
ENDCHAR
STARTCHAR char1234
ENCODING 1234
SWIDTH 4 0
DWIDTH 11 0
BBX 11 17 0 0
BITMAP
1900
1B00
0000
0000
0400
0600
0E00
0A00
1900
1100
1180
3080
20C0
7FC0
4040
4060
C020
ENDCHAR
STARTCHAR char1235
ENCODING 1235
SWIDTH 4 0
DWIDTH 11 0
BBX 9 13 1 0
BITMAP
2600
3600
0000
0000
3E00
6300
C100
8080
8080
8080
C180
6380
3C80
ENDCHAR
STARTCHAR char1236
ENCODING 1236
SWIDTH 27 0
DWIDTH 15 0
BBX 15 13 0 0
BITMAP
01FE
0100
0300
0700
0500
0D00
09F8
1900
3100
3F00
6100
4100
C1FE
ENDCHAR
STARTCHAR char1237
ENCODING 1237
SWIDTH 44 0
DWIDTH 18 0
BBX 16 9 1 0
BITMAP
3C3C
6346
C183
8081
80FF
8080
C180
63C2
3CBC
ENDCHAR
STARTCHAR char1238
ENCODING 1238
SWIDTH 4 0
DWIDTH 11 0
BBX 8 17 2 0
BITMAP
42
66
3C
00
FF
80
80
80
80
80
FC
80
80
80
80
80
FF
ENDCHAR
STARTCHAR char1239
ENCODING 1239
SWIDTH 56 0
DWIDTH 10 0
BBX 8 13 1 0
BITMAP
62
22
3C
00
3C
62
C1
81
FF
80
C0
63
3C
ENDCHAR
STARTCHAR char1240
ENCODING 1240
SWIDTH 16 0
DWIDTH 13 0
BBX 11 13 1 0
BITMAP
1F00
3180
4040
4060
8020
8020
FFE0
0020
0020
0060
4040
6180
1F00
ENDCHAR
STARTCHAR char1241
ENCODING 1241
SWIDTH 56 0
DWIDTH 10 0
BBX 8 9 1 0
BITMAP
7C
C6
02
01
FF
81
82
46
3C
ENDCHAR
STARTCHAR char1244
ENCODING 1244
SWIDTH 32 0
DWIDTH 16 0
BBX 16 17 0 0
BITMAP
0260
0260
0000
0000
4083
6082
3084
108C
1888
0C90
07F0
0C90
1888
108C
2086
6082
C081
ENDCHAR
STARTCHAR char1245
ENCODING 1245
SWIDTH 16 0
DWIDTH 13 0
BBX 11 13 1 0
BITMAP
1300
1B00
0000
0000
8420
C440
44C0
2480
3F00
2480
44C0
C440
8420
ENDCHAR
STARTCHAR char1246
ENCODING 1246
SWIDTH 56 0
DWIDTH 10 0
BBX 8 17 1 0
BITMAP
26
26
00
00
3C
46
83
03
03
02
1C
02
01
01
81
C3
7C
ENDCHAR
STARTCHAR char1247
ENCODING 1247
SWIDTH 44 0
DWIDTH 8 0
BBX 7 13 1 0
BITMAP
4C
6C
00
00
78
CC
04
04
38
04
06
C4
78
ENDCHAR
STARTCHAR char1250
ENCODING 1250
SWIDTH 21 0
DWIDTH 14 0
BBX 10 16 2 0
BITMAP
3E00
0000
0000
8040
80C0
8140
8340
8240
8440
8840
9840
9040
A040
C040
C040
8040
ENDCHAR
STARTCHAR char1251
ENCODING 1251
SWIDTH 4 0
DWIDTH 11 0
BBX 8 12 1 0
BITMAP
3E
00
00
C1
C1
C1
C1
C1
C1
41
63
3D
ENDCHAR
STARTCHAR char1252
ENCODING 1252
SWIDTH 21 0
DWIDTH 14 0
BBX 10 17 2 0
BITMAP
3200
3200
0000
0000
8040
80C0
8140
8340
8240
8440
8840
9840
9040
A040
C040
C040
8040
ENDCHAR
STARTCHAR char1253
ENCODING 1253
SWIDTH 4 0
DWIDTH 11 0
BBX 8 13 1 0
BITMAP
26
36
00
00
C1
C1
C1
C1
C1
C1
41
63
3D
ENDCHAR
STARTCHAR char1254
ENCODING 1254
SWIDTH 27 0
DWIDTH 15 0
BBX 13 17 1 0
BITMAP
0980
0D80
0000
0000
0F80
30E0
6030
4010
C010
8018
8008
8018
C010
4010
6030
30E0
0F80
ENDCHAR
STARTCHAR char1255
ENCODING 1255
SWIDTH 4 0
DWIDTH 11 0
BBX 9 13 1 0
BITMAP
2600
3600
0000
0000
3E00
6300
C100
8080
8080
8080
C100
6300
3E00
ENDCHAR
STARTCHAR char1256
ENCODING 1256
SWIDTH 27 0
DWIDTH 15 0
BBX 13 13 1 0
BITMAP
0F80
30E0
6030
4010
C010
8018
FFF8
8018
C010
4010
6030
30E0
0F80
ENDCHAR
STARTCHAR char1257
ENCODING 1257
SWIDTH 4 0
DWIDTH 11 0
BBX 9 9 1 0
BITMAP
3E00
6300
C100
8080
FF80
8080
C100
6300
3E00
ENDCHAR
STARTCHAR char1262
ENCODING 1262
SWIDTH 4 0
DWIDTH 11 0
BBX 11 16 0 0
BITMAP
1F00
0000
0000
8060
C040
40C0
2080
2180
1100
1900
0A00
0E00
0400
0400
0800
7800
ENDCHAR
STARTCHAR char1263
ENCODING 1263
SWIDTH 50 0
DWIDTH 9 0
BBX 8 16 0 -4
BITMAP
3E
00
00
81
41
43
22
22
14
14
1C
08
18
10
30
E0
ENDCHAR
STARTCHAR char1264
ENCODING 1264
SWIDTH 4 0
DWIDTH 11 0
BBX 11 17 0 0
BITMAP
1900
1B00
0000
0000
8060
C040
40C0
2080
2180
1100
1900
0A00
0E00
0400
0400
0800
7800
ENDCHAR
STARTCHAR char1265
ENCODING 1265
SWIDTH 50 0
DWIDTH 9 0
BBX 8 17 0 -4
BITMAP
36
36
00
00
81
41
43
22
22
14
14
1C
08
18
10
30
E0
ENDCHAR
STARTCHAR char1266
ENCODING 1266
SWIDTH 4 0
DWIDTH 11 0
BBX 11 18 0 0
BITMAP
0500
0D00
0900
0A00
0000
8060
C040
40C0
2080
2180
1100
1900
0A00
0E00
0400
0400
0800
7800
ENDCHAR
STARTCHAR char1267
ENCODING 1267
SWIDTH 50 0
DWIDTH 9 0
BBX 8 18 0 -4
BITMAP
0A
1A
16
14
00
81
41
43
22
22
14
14
1C
08
18
10
30
E0
ENDCHAR
STARTCHAR char1268
ENCODING 1268
SWIDTH 10 0
DWIDTH 12 0
BBX 10 17 1 0
BITMAP
1200
3200
0000
0000
80C0
80C0
80C0
80C0
C0C0
C0C0
40C0
61C0
3EC0
00C0
00C0
00C0
00C0
ENDCHAR
STARTCHAR char1269
ENCODING 1269
SWIDTH 50 0
DWIDTH 9 0
BBX 7 13 1 0
BITMAP
4C
6C
00
00
82
82
82
82
C6
7A
02
02
02
ENDCHAR
STARTCHAR char1270
ENCODING 1270
SWIDTH 56 0
DWIDTH 10 0
BBX 8 16 2 -3
BITMAP
FF
80
80
80
80
80
80
80
80
80
80
80
C0
40
40
40
ENDCHAR
STARTCHAR char1271
ENCODING 1271
SWIDTH 50 0
DWIDTH 9 0
BBX 7 12 1 -3
BITMAP
78
CC
04
0C
38
C0
80
86
7C
30
30
30
ENDCHAR
STARTCHAR char1272
ENCODING 1272
SWIDTH 27 0
DWIDTH 15 0
BBX 11 17 2 0
BITMAP
1B00
1B00
0000
0000
8020
8020
8020
8020
8020
FC20
8620
8320
8120
8120
8320
8620
FC20
ENDCHAR
STARTCHAR char1273
ENCODING 1273
SWIDTH 10 0
DWIDTH 12 0
BBX 10 13 1 0
BITMAP
1200
1300
0000
0000
C040
C040
C040
FC40
C640
C240
4240
6640
3C40
ENDCHAR
STARTCHAR char1306
ENCODING 1306
SWIDTH 27 0
DWIDTH 15 0
BBX 13 13 1 0
BITMAP
0F80
30E0
6020
4010
C010
8018
8008
8018
C190
40D0
6070
30F0
0F90
ENDCHAR
STARTCHAR char1307
ENCODING 1307
SWIDTH 4 0
DWIDTH 11 0
BBX 9 13 1 -4
BITMAP
3E00
6300
C100
8080
8080
8080
C180
6380
3C80
0080
0080
0080
0080
ENDCHAR
STARTCHAR char1308
ENCODING 1308
SWIDTH 27 0
DWIDTH 15 0
BBX 15 13 0 0
BITMAP
C106
4104
4284
4284
628C
2288
2448
2448
1450
1450
1830
1830
0820
ENDCHAR
STARTCHAR char1309
ENCODING 1309
SWIDTH 10 0
DWIDTH 12 0
BBX 12 9 0 0
BITMAP
8630
4620
4620
4E60
2940
2940
2940
3080
1080
ENDCHAR
STARTCHAR char7808
ENCODING 7808
SWIDTH 27 0
DWIDTH 15 0
BBX 15 17 0 0
BITMAP
0400
0200
0100
0000
C106
4104
4284
4284
628C
2288
2448
2448
1450
1450
1830
1830
0820
ENDCHAR
STARTCHAR char7809
ENCODING 7809
SWIDTH 10 0
DWIDTH 12 0
BBX 12 13 0 0
BITMAP
0800
0C00
0600
0000
8630
4620
4620
4E60
2940
2940
2940
3080
1080
ENDCHAR
STARTCHAR char7810
ENCODING 7810
SWIDTH 27 0
DWIDTH 15 0
BBX 15 17 0 0
BITMAP
00C0
0180
0100
0000
C106
4104
4284
4284
628C
2288
2448
2448
1450
1450
1830
1830
0820
ENDCHAR
STARTCHAR char7811
ENCODING 7811
SWIDTH 10 0
DWIDTH 12 0
BBX 12 13 0 0
BITMAP
0100
0300
0600
0000
8630
4620
4620
4E60
2940
2940
2940
3080
1080
ENDCHAR
STARTCHAR char7812
ENCODING 7812
SWIDTH 27 0
DWIDTH 15 0
BBX 15 17 0 0
BITMAP
06C0
06C0
0000
0000
C106
4104
4284
4284
628C
2288
2448
2448
1450
1450
1830
1830
0820
ENDCHAR
STARTCHAR char7813
ENCODING 7813
SWIDTH 10 0
DWIDTH 12 0
BBX 12 13 0 0
BITMAP
0900
1980
0000
0000
8630
4620
4620
4E60
2940
2940
2940
3080
1080
ENDCHAR
STARTCHAR char7838
ENCODING 7838
SWIDTH 4 0
DWIDTH 11 0
BBX 8 13 2 0
BITMAP
7C
C6
82
84
88
9E
83
81
81
81
81
A2
BC
ENDCHAR
STARTCHAR char7840
ENCODING 7840
SWIDTH 4 0
DWIDTH 11 0
BBX 11 16 0 -3
BITMAP
0400
0600
0E00
0A00
1900
1100
1180
3080
20C0
7FC0
4040
4060
C020
0000
0400
0600
ENDCHAR
STARTCHAR char7841
ENCODING 7841
SWIDTH 4 0
DWIDTH 11 0
BBX 9 12 1 -3
BITMAP
3E00
6300
C100
8080
8080
8080
C180
6380
3C80
0000
0800
0800
ENDCHAR
STARTCHAR char7842
ENCODING 7842
SWIDTH 4 0
DWIDTH 11 0
BBX 11 18 0 0
BITMAP
0E00
0900
0200
0400
0000
0400
0600
0E00
0A00
1900
1100
1180
3080
20C0
7FC0
4040
4060
C020
ENDCHAR
STARTCHAR char7843
ENCODING 7843
SWIDTH 4 0
DWIDTH 11 0
BBX 9 14 1 0
BITMAP
1C00
1400
0400
0800
0000
3E00
6300
C100
8080
8080
8080
C180
6380
3C80
ENDCHAR
STARTCHAR char7844
ENCODING 7844
SWIDTH 4 0
DWIDTH 11 0
BBX 11 19 0 0
BITMAP
0080
0180
0300
0E00
1900
0000
0400
0600
0E00
0A00
1900
1100
1180
3080
20C0
7FC0
4040
4060
C020
ENDCHAR
STARTCHAR char7845
ENCODING 7845
SWIDTH 4 0
DWIDTH 11 0
BBX 9 16 1 0
BITMAP
0100
0300
0600
0800
1C00
2600
0000
3E00
6300
C100
8080
8080
8080
C180
6380
3C80
ENDCHAR
STARTCHAR char7846
ENCODING 7846
SWIDTH 4 0
DWIDTH 11 0
BBX 11 19 0 0
BITMAP
0400
0600
0300
0E00
1900
0000
0400
0600
0E00
0A00
1900
1100
1180
3080
20C0
7FC0
4040
4060
C020
ENDCHAR
STARTCHAR char7847
ENCODING 7847
SWIDTH 4 0
DWIDTH 11 0
BBX 9 16 1 0
BITMAP
0800
0C00
0600
0800
1C00
2600
0000
3E00
6300
C100
8080
8080
8080
C180
6380
3C80
ENDCHAR
STARTCHAR char7848
ENCODING 7848
SWIDTH 4 0
DWIDTH 11 0
BBX 11 20 0 0
BITMAP
0380
0280
0080
0500
0E00
1900
0000
0400
0600
0E00
0A00
1900
1100
1180
3080
20C0
7FC0
4040
4060
C020
ENDCHAR
STARTCHAR char7849
ENCODING 7849
SWIDTH 4 0
DWIDTH 11 0
BBX 9 17 1 0
BITMAP
0700
0500
0300
0600
0800
1C00
3600
0000
3E00
6300
C100
8080
8080
8080
C180
6380
3C80
ENDCHAR
STARTCHAR char7850
ENCODING 7850
SWIDTH 4 0
DWIDTH 11 0
BBX 11 19 0 0
BITMAP
0D00
1700
0400
0E00
1900
0000
0400
0600
0E00
0A00
1900
1100
1180
3080
20C0
7FC0
4040
4060
C020
ENDCHAR
STARTCHAR char7851
ENCODING 7851
SWIDTH 4 0
DWIDTH 11 0
BBX 9 16 1 0
BITMAP
3200
2C00
0000
0800
1C00
2600
0000
3E00
6300
C100
8080
8080
8080
C180
6380
3C80
ENDCHAR
STARTCHAR char7852
ENCODING 7852
SWIDTH 4 0
DWIDTH 11 0
BBX 11 20 0 -3
BITMAP
0400
0E00
1900
0000
0400
0600
0E00
0A00
1900
1100
1180
3080
20C0
7FC0
4040
4060
C020
0000
0400
0600
ENDCHAR
STARTCHAR char7853
ENCODING 7853
SWIDTH 4 0
DWIDTH 11 0
BBX 9 16 1 -3
BITMAP
0800
1C00
2600
0000
3E00
6300
C100
8080
8080
8080
C180
6380
3C80
0000
0800
0800
ENDCHAR
STARTCHAR char7854
ENCODING 7854
SWIDTH 4 0
DWIDTH 11 0
BBX 11 19 0 0
BITMAP
0100
0200
0400
1100
0F00
0000
0400
0600
0E00
0A00
1900
1100
1180
3080
20C0
7FC0
4040
4060
C020
ENDCHAR
STARTCHAR char7855
ENCODING 7855
SWIDTH 4 0
DWIDTH 11 0
BBX 9 16 1 0
BITMAP
0600
0C00
0800
0000
2200
1C00
0000
3E00
6300
C100
8080
8080
8080
C180
6380
3C80
ENDCHAR
STARTCHAR char7856
ENCODING 7856
SWIDTH 4 0
DWIDTH 11 0
BBX 11 19 0 0
BITMAP
1800
0C00
0400
1100
0F00
0000
0400
0600
0E00
0A00
1900
1100
1180
3080
20C0
7FC0
4040
4060
C020
ENDCHAR
STARTCHAR char7857
ENCODING 7857
SWIDTH 4 0
DWIDTH 11 0
BBX 9 16 1 0
BITMAP
2000
1000
0800
0000
2200
1C00
0000
3E00
6300
C100
8080
8080
8080
C180
6380
3C80
ENDCHAR
STARTCHAR char7858
ENCODING 7858
SWIDTH 4 0
DWIDTH 11 0
BBX 11 20 0 0
BITMAP
0E00
0900
0200
0400
1100
0F00
0000
0400
0600
0E00
0A00
1900
1100
1180
3080
20C0
7FC0
4040
4060
C020
ENDCHAR
STARTCHAR char7859
ENCODING 7859
SWIDTH 4 0
DWIDTH 11 0
BBX 9 17 1 0
BITMAP
1C00
1400
0400
0800
0000
2200
1C00
0000
3E00
6300
C100
8080
8080
8080
C180
6380
3C80
ENDCHAR
STARTCHAR char7860
ENCODING 7860
SWIDTH 4 0
DWIDTH 11 0
BBX 11 19 0 0
BITMAP
0D00
1700
0000
1100
0F00
0000
0400
0600
0E00
0A00
1900
1100
1180
3080
20C0
7FC0
4040
4060
C020
ENDCHAR
STARTCHAR char7861
ENCODING 7861
SWIDTH 4 0
DWIDTH 11 0
BBX 9 16 1 0
BITMAP
3A00
2E00
0000
0000
2200
1C00
0000
3E00
6300
C100
8080
8080
8080
C180
6380
3C80
ENDCHAR
STARTCHAR char7862
ENCODING 7862
SWIDTH 4 0
DWIDTH 11 0
BBX 11 19 0 -3
BITMAP
1100
0F00
0000
0400
0600
0E00
0A00
1900
1100
1180
3080
20C0
7FC0
4040
4060
C020
0000
0400
0600
ENDCHAR
STARTCHAR char7863
ENCODING 7863
SWIDTH 4 0
DWIDTH 11 0
BBX 9 15 1 -3
BITMAP
2200
1C00
0000
3E00
6300
C100
8080
8080
8080
C180
6380
3C80
0000
0800
0800
ENDCHAR
STARTCHAR char7864
ENCODING 7864
SWIDTH 4 0
DWIDTH 11 0
BBX 8 16 2 -3
BITMAP
FF
80
80
80
80
80
FC
80
80
80
80
80
FF
00
10
18
ENDCHAR
STARTCHAR char7865
ENCODING 7865
SWIDTH 56 0
DWIDTH 10 0
BBX 8 12 1 -3
BITMAP
3C
62
C1
81
FF
80
C0
63
3C
00
18
18
ENDCHAR
STARTCHAR char7866
ENCODING 7866
SWIDTH 4 0
DWIDTH 11 0
BBX 8 18 2 0
BITMAP
1C
14
0C
18
00
FF
80
80
80
80
80
FC
80
80
80
80
80
FF
ENDCHAR
STARTCHAR char7867
ENCODING 7867
SWIDTH 56 0
DWIDTH 10 0
BBX 8 14 1 0
BITMAP
1C
14
0C
18
00
3C
62
C1
81
FF
80
C0
63
3C
ENDCHAR
STARTCHAR char7868
ENCODING 7868
SWIDTH 4 0
DWIDTH 11 0
BBX 8 16 2 0
BITMAP
39
4E
00
FF
80
80
80
80
80
FC
80
80
80
80
80
FF
ENDCHAR
STARTCHAR char7869
ENCODING 7869
SWIDTH 56 0
DWIDTH 10 0
BBX 8 12 1 0
BITMAP
39
4E
00
3C
62
C1
81
FF
80
C0
63
3C
ENDCHAR
STARTCHAR char7870
ENCODING 7870
SWIDTH 4 0
DWIDTH 11 0
BBX 8 19 2 0
BITMAP
01
02
0C
3C
26
00
FF
80
80
80
80
80
FC
80
80
80
80
80
FF
ENDCHAR
STARTCHAR char7871
ENCODING 7871
SWIDTH 56 0
DWIDTH 10 0
BBX 8 16 1 0
BITMAP
03
06
04
08
3C
26
00
3C
62
C1
81
FF
80
C0
63
3C
ENDCHAR
STARTCHAR char7872
ENCODING 7872
SWIDTH 4 0
DWIDTH 11 0
BBX 8 19 2 0
BITMAP
18
0C
0C
3C
26
00
FF
80
80
80
80
80
FC
80
80
80
80
80
FF
ENDCHAR
STARTCHAR char7873
ENCODING 7873
SWIDTH 56 0
DWIDTH 10 0
BBX 8 16 1 0
BITMAP
18
0C
04
08
3C
26
00
3C
62
C1
81
FF
80
C0
63
3C
ENDCHAR
STARTCHAR char7874
ENCODING 7874
SWIDTH 4 0
DWIDTH 11 0
BBX 8 20 2 0
BITMAP
0E
09
02
0C
3C
26
00
FF
80
80
80
80
80
FC
80
80
80
80
80
FF
ENDCHAR
STARTCHAR char7875
ENCODING 7875
SWIDTH 56 0
DWIDTH 10 0
BBX 8 17 1 0
BITMAP
0E
09
02
04
08
3C
26
00
3C
62
C1
81
FF
80
C0
63
3C
ENDCHAR
STARTCHAR char7876
ENCODING 7876
SWIDTH 4 0
DWIDTH 11 0
BBX 8 19 2 0
BITMAP
34
6C
08
3C
26
00
FF
80
80
80
80
80
FC
80
80
80
80
80
FF
ENDCHAR
STARTCHAR char7877
ENCODING 7877
SWIDTH 56 0
DWIDTH 10 0
BBX 8 16 1 0
BITMAP
34
6C
00
08
3C
26
00
3C
62
C1
81
FF
80
C0
63
3C
ENDCHAR
STARTCHAR char7878
ENCODING 7878
SWIDTH 4 0
DWIDTH 11 0
BBX 8 20 2 -3
BITMAP
08
3C
26
00
FF
80
80
80
80
80
FC
80
80
80
80
80
FF
00
10
18
ENDCHAR
STARTCHAR char7879
ENCODING 7879
SWIDTH 56 0
DWIDTH 10 0
BBX 8 16 1 -3
BITMAP
08
3C
26
00
3C
62
C1
81
FF
80
C0
63
3C
00
18
18
ENDCHAR
STARTCHAR char7880
ENCODING 7880
SWIDTH 22 0
DWIDTH 4 0
BBX 3 18 1 0
BITMAP
E0
A0
20
40
00
40
40
40
40
40
40
40
40
40
40
40
40
40
ENDCHAR
STARTCHAR char7881
ENCODING 7881
SWIDTH 28 0
DWIDTH 5 0
BBX 3 14 1 0
BITMAP
E0
A0
20
40
00
40
40
40
40
40
40
40
40
40
ENDCHAR
STARTCHAR char7882
ENCODING 7882
SWIDTH 22 0
DWIDTH 4 0
BBX 2 16 1 -3
BITMAP
40
40
40
40
40
40
40
40
40
40
40
40
40
00
40
C0
ENDCHAR
STARTCHAR char7883
ENCODING 7883
SWIDTH 28 0
DWIDTH 5 0
BBX 2 16 1 -3
BITMAP
40
C0
00
00
40
40
40
40
40
40
40
40
40
00
40
C0
ENDCHAR
STARTCHAR char7884
ENCODING 7884
SWIDTH 27 0
DWIDTH 15 0
BBX 13 16 1 -3
BITMAP
0F80
30E0
6030
4010
C010
8018
8008
8018
C010
4010
6030
30E0
0F80
0000
0200
0600
ENDCHAR
STARTCHAR char7885
ENCODING 7885
SWIDTH 4 0
DWIDTH 11 0
BBX 9 12 1 -3
BITMAP
3E00
6300
C100
8080
8080
8080
C100
6300
3E00
0000
0800
0800
ENDCHAR
STARTCHAR char7886
ENCODING 7886
SWIDTH 27 0
DWIDTH 15 0
BBX 13 18 1 0
BITMAP
0700
0500
0100
0200
0000
0F80
30E0
6030
4010
C010
8018
8008
8018
C010
4010
6030
30E0
0F80
ENDCHAR
STARTCHAR char7887
ENCODING 7887
SWIDTH 4 0
DWIDTH 11 0
BBX 9 14 1 0
BITMAP
1C00
1400
0400
0800
0000
3E00
6300
C100
8080
8080
8080
C100
6300
3E00
ENDCHAR
STARTCHAR char7888
ENCODING 7888
SWIDTH 27 0
DWIDTH 15 0
BBX 13 19 1 0
BITMAP
0040
00C0
0380
0700
0980
0000
0F80
30E0
6030
4010
C010
8018
8008
8018
C010
4010
6030
30E0
0F80
ENDCHAR
STARTCHAR char7889
ENCODING 7889
SWIDTH 4 0
DWIDTH 11 0
BBX 9 16 1 0
BITMAP
0100
0300
0600
0800
1C00
2600
0000
3E00
6300
C100
8080
8080
8080
C100
6300
3E00
ENDCHAR
STARTCHAR char7890
ENCODING 7890
SWIDTH 27 0
DWIDTH 15 0
BBX 13 19 1 0
BITMAP
0600
0300
0380
0700
0980
0000
0F80
30E0
6030
4010
C010
8018
8008
8018
C010
4010
6030
30E0
0F80
ENDCHAR
STARTCHAR char7891
ENCODING 7891
SWIDTH 4 0
DWIDTH 11 0
BBX 9 16 1 0
BITMAP
0800
0C00
0600
0800
1C00
2600
0000
3E00
6300
C100
8080
8080
8080
C100
6300
3E00
ENDCHAR
STARTCHAR char7892
ENCODING 7892
SWIDTH 27 0
DWIDTH 15 0
BBX 13 20 1 0
BITMAP
0180
0140
00C0
0380
0700
0980
0000
0F80
30E0
6030
4010
C010
8018
8008
8018
C010
4010
6030
30E0
0F80
ENDCHAR
STARTCHAR char7893
ENCODING 7893
SWIDTH 4 0
DWIDTH 11 0
BBX 9 17 1 0
BITMAP
0700
0500
0300
0600
0800
1C00
3600
0000
3E00
6300
C100
8080
8080
8080
C100
6300
3E00
ENDCHAR
STARTCHAR char7894
ENCODING 7894
SWIDTH 27 0
DWIDTH 15 0
BBX 13 19 1 0
BITMAP
0C80
0B00
0200
0700
0980
0000
0F80
30E0
6030
4010
C010
8018
8008
8018
C010
4010
6030
30E0
0F80
ENDCHAR
STARTCHAR char7895
ENCODING 7895
SWIDTH 4 0
DWIDTH 11 0
BBX 9 16 1 0
BITMAP
3200
2C00
0000
0800
1C00
2600
0000
3E00
6300
C100
8080
8080
8080
C100
6300
3E00
ENDCHAR
STARTCHAR char7896
ENCODING 7896
SWIDTH 27 0
DWIDTH 15 0
BBX 13 20 1 -3
BITMAP
0200
0700
0980
0000
0F80
30E0
6030
4010
C010
8018
8008
8018
C010
4010
6030
30E0
0F80
0000
0200
0600
ENDCHAR
STARTCHAR char7897
ENCODING 7897
SWIDTH 4 0
DWIDTH 11 0
BBX 9 16 1 -3
BITMAP
0800
1C00
2600
0000
3E00
6300
C100
8080
8080
8080
C100
6300
3E00
0000
0800
0800
ENDCHAR
STARTCHAR char7898
ENCODING 7898
SWIDTH 27 0
DWIDTH 15 0
BBX 13 17 1 0
BITMAP
0180
0300
0200
0010
0F90
30E0
6020
4010
C010
8018
8008
8018
C010
4010
6030
30E0
0F80
ENDCHAR
STARTCHAR char7899
ENCODING 7899
SWIDTH 4 0
DWIDTH 11 0
BBX 9 13 1 0
BITMAP
0600
0C00
0880
0080
3F80
6300
C100
8080
8080
8080
C100
6300
3E00
ENDCHAR
STARTCHAR char7900
ENCODING 7900
SWIDTH 27 0
DWIDTH 15 0
BBX 13 17 1 0
BITMAP
0800
0400
0200
0010
0F90
30E0
6020
4010
C010
8018
8008
8018
C010
4010
6030
30E0
0F80
ENDCHAR
STARTCHAR char7901
ENCODING 7901
SWIDTH 4 0
DWIDTH 11 0
BBX 9 13 1 0
BITMAP
2000
1000
0880
0080
3F80
6300
C100
8080
8080
8080
C100
6300
3E00
ENDCHAR
STARTCHAR char7902
ENCODING 7902
SWIDTH 27 0
DWIDTH 15 0
BBX 13 18 1 0
BITMAP
0700
0500
0100
0200
0010
0F90
30E0
6020
4010
C010
8018
8008
8018
C010
4010
6030
30E0
0F80
ENDCHAR
STARTCHAR char7903
ENCODING 7903
SWIDTH 4 0
DWIDTH 11 0
BBX 9 14 1 0
BITMAP
1C00
1400
0400
0880
0080
3F80
6300
C100
8080
8080
8080
C100
6300
3E00
ENDCHAR
STARTCHAR char7904
ENCODING 7904
SWIDTH 27 0
DWIDTH 15 0
BBX 13 16 1 0
BITMAP
0E40
1BC0
0010
0F90
30E0
6020
4010
C010
8018
8008
8018
C010
4010
6030
30E0
0F80
ENDCHAR
STARTCHAR char7905
ENCODING 7905
SWIDTH 4 0
DWIDTH 11 0
BBX 9 12 1 0
BITMAP
3900
6F00
0080
3F80
6300
C100
8080
8080
8080
C100
6300
3E00
ENDCHAR
STARTCHAR char7906
ENCODING 7906
SWIDTH 27 0
DWIDTH 15 0
BBX 13 17 1 -3
BITMAP
0010
0F90
30E0
6020
4010
C010
8018
8008
8018
C010
4010
6030
30E0
0F80
0000
0200
0600
ENDCHAR
STARTCHAR char7907
ENCODING 7907
SWIDTH 4 0
DWIDTH 11 0
BBX 9 14 1 -3
BITMAP
0080
0080
3F80
6300
C100
8080
8080
8080
C100
6300
3E00
0000
0800
0800
ENDCHAR
STARTCHAR char7908
ENCODING 7908
SWIDTH 16 0
DWIDTH 13 0
BBX 10 16 2 -3
BITMAP
8080
80C0
80C0
80C0
80C0
80C0
80C0
80C0
80C0
8080
8080
6300
3E00
0000
0800
0800
ENDCHAR
STARTCHAR char7909
ENCODING 7909
SWIDTH 4 0
DWIDTH 11 0
BBX 8 12 1 -3
BITMAP
C1
C1
C1
C1
C1
C1
41
63
3D
00
08
08
ENDCHAR
STARTCHAR char7910
ENCODING 7910
SWIDTH 16 0
DWIDTH 13 0
BBX 10 18 2 0
BITMAP
1C00
1600
0400
0800
0000
8080
80C0
80C0
80C0
80C0
80C0
80C0
80C0
80C0
8080
8080
6300
3E00
ENDCHAR
STARTCHAR char7911
ENCODING 7911
SWIDTH 4 0
DWIDTH 11 0
BBX 8 14 1 0
BITMAP
1C
14
04
08
00
C1
C1
C1
C1
C1
C1
41
63
3D
ENDCHAR
STARTCHAR char7912
ENCODING 7912
SWIDTH 16 0
DWIDTH 13 0
BBX 11 17 2 0
BITMAP
0600
0C00
0820
0020
80E0
80C0
80C0
80C0
80C0
80C0
80C0
80C0
80C0
8080
8080
6300
3E00
ENDCHAR
STARTCHAR char7913
ENCODING 7913
SWIDTH 4 0
DWIDTH 11 0
BBX 10 13 1 0
BITMAP
0600
0C00
0840
0040
C1C0
C100
C100
C100
C100
C100
4100
6300
3D00
ENDCHAR
STARTCHAR char7914
ENCODING 7914
SWIDTH 16 0
DWIDTH 13 0
BBX 11 17 2 0
BITMAP
3000
1800
0820
0020
80E0
80C0
80C0
80C0
80C0
80C0
80C0
80C0
80C0
8080
8080
6300
3E00
ENDCHAR
STARTCHAR char7915
ENCODING 7915
SWIDTH 4 0
DWIDTH 11 0
BBX 10 13 1 0
BITMAP
2000
1000
0840
0040
C1C0
C100
C100
C100
C100
C100
4100
6300
3D00
ENDCHAR
STARTCHAR char7916
ENCODING 7916
SWIDTH 16 0
DWIDTH 13 0
BBX 11 18 2 0
BITMAP
1C00
1600
0400
0820
0020
80E0
80C0
80C0
80C0
80C0
80C0
80C0
80C0
80C0
8080
8080
6300
3E00
ENDCHAR
STARTCHAR char7917
ENCODING 7917
SWIDTH 4 0
DWIDTH 11 0
BBX 10 14 1 0
BITMAP
1C00
1400
0400
0840
0040
C1C0
C100
C100
C100
C100
C100
4100
6300
3D00
ENDCHAR
STARTCHAR char7918
ENCODING 7918
SWIDTH 16 0
DWIDTH 13 0
BBX 11 16 2 0
BITMAP
3900
2720
0020
80E0
80C0
80C0
80C0
80C0
80C0
80C0
80C0
80C0
8080
8080
6300
3E00
ENDCHAR
STARTCHAR char7919
ENCODING 7919
SWIDTH 4 0
DWIDTH 11 0
BBX 10 12 1 0
BITMAP
3900
6F40
0040
C1C0
C100
C100
C100
C100
C100
4100
6300
3D00
ENDCHAR
STARTCHAR char7920
ENCODING 7920
SWIDTH 16 0
DWIDTH 13 0
BBX 11 18 2 -3
BITMAP
0020
0020
80E0
80C0
80C0
80C0
80C0
80C0
80C0
80C0
80C0
8080
8080
6300
3E00
0000
0800
0800
ENDCHAR
STARTCHAR char7921
ENCODING 7921
SWIDTH 4 0
DWIDTH 11 0
BBX 10 14 1 -3
BITMAP
0040
0040
C1C0
C100
C100
C100
C100
C100
4100
6300
3D00
0000
0800
0800
ENDCHAR
STARTCHAR char7922
ENCODING 7922
SWIDTH 56 0
DWIDTH 10 0
BBX 10 17 0 0
BITMAP
1000
1800
0C00
0000
8040
C0C0
6080
2180
3100
1200
0A00
0C00
0400
0400
0400
0400
0400
ENDCHAR
STARTCHAR char7923
ENCODING 7923
SWIDTH 50 0
DWIDTH 9 0
BBX 9 17 0 -4
BITMAP
2000
1000
0800
0000
8180
4100
4100
2200
2200
1600
1400
1C00
0800
0800
1000
1000
2000
ENDCHAR
STARTCHAR char7924
ENCODING 7924
SWIDTH 56 0
DWIDTH 10 0
BBX 10 16 0 -3
BITMAP
8040
C0C0
6080
2180
3100
1200
0A00
0C00
0400
0400
0400
0400
0400
0000
0C00
0C00
ENDCHAR
STARTCHAR char7925
ENCODING 7925
SWIDTH 50 0
DWIDTH 9 0
BBX 9 13 0 -4
BITMAP
8180
4100
4100
2200
2200
1600
1400
1C00
0800
0800
1600
1600
2000
ENDCHAR
STARTCHAR char7926
ENCODING 7926
SWIDTH 56 0
DWIDTH 10 0
BBX 10 18 0 0
BITMAP
0E00
0A00
0200
0400
0000
8040
C0C0
6080
2180
3100
1200
0A00
0C00
0400
0400
0400
0400
0400
ENDCHAR
STARTCHAR char7927
ENCODING 7927
SWIDTH 50 0
DWIDTH 9 0
BBX 9 18 0 -4
BITMAP
1C00
1600
0400
0800
0000
8180
4100
4100
2200
2200
1600
1400
1C00
0800
0800
1000
1000
2000
ENDCHAR
STARTCHAR char7928
ENCODING 7928
SWIDTH 56 0
DWIDTH 10 0
BBX 10 16 0 0
BITMAP
1C80
3700
0000
8040
C0C0
6080
2180
3100
1200
0A00
0C00
0400
0400
0400
0400
0400
ENDCHAR
STARTCHAR char7929
ENCODING 7929
SWIDTH 50 0
DWIDTH 9 0
BBX 9 16 0 -4
BITMAP
3900
2700
0000
8180
4100
4100
2200
2200
1600
1400
1C00
0800
0800
1000
1000
2000
ENDCHAR
STARTCHAR char8211
ENCODING 8211
SWIDTH 33 0
DWIDTH 6 0
BBX 8 1 -1 4
BITMAP
FF
ENDCHAR
STARTCHAR char8212
ENCODING 8212
SWIDTH 27 0
DWIDTH 15 0
BBX 17 1 -1 4
BITMAP
FFFF80
ENDCHAR
STARTCHAR char8213
ENCODING 8213
SWIDTH 4 0
DWIDTH 11 0
BBX 13 1 -1 4
BITMAP
FFF8
ENDCHAR
STARTCHAR char8215
ENCODING 8215
SWIDTH 39 0
DWIDTH 7 0
BBX 9 3 -1 -3
BITMAP
FF80
0000
FF80
ENDCHAR
STARTCHAR char8216
ENCODING 8216
SWIDTH 16 0
DWIDTH 3 0
BBX 2 4 1 9
BITMAP
40
C0
C0
C0
ENDCHAR
STARTCHAR char8217
ENCODING 8217
SWIDTH 16 0
DWIDTH 3 0
BBX 2 4 0 9
BITMAP
C0
C0
C0
80
ENDCHAR
STARTCHAR char8218
ENCODING 8218
SWIDTH 22 0
DWIDTH 4 0
BBX 2 4 1 -3
BITMAP
C0
C0
80
80
ENDCHAR
STARTCHAR char8219
ENCODING 8219
SWIDTH 16 0
DWIDTH 3 0
BBX 2 4 1 9
BITMAP
C0
C0
C0
40
ENDCHAR
STARTCHAR char8220
ENCODING 8220
SWIDTH 28 0
DWIDTH 5 0
BBX 5 4 0 9
BITMAP
58
50
D0
D0
ENDCHAR
STARTCHAR char8221
ENCODING 8221
SWIDTH 22 0
DWIDTH 4 0
BBX 4 4 0 9
BITMAP
A0
D0
D0
F0
ENDCHAR
STARTCHAR char8222
ENCODING 8222
SWIDTH 28 0
DWIDTH 5 0
BBX 5 4 0 -3
BITMAP
50
58
50
D0
ENDCHAR
STARTCHAR char8224
ENCODING 8224
SWIDTH 50 0
DWIDTH 9 0
BBX 7 17 1 -4
BITMAP
10
10
10
10
FE
10
10
10
10
10
10
10
10
10
10
10
10
ENDCHAR
STARTCHAR char8225
ENCODING 8225
SWIDTH 50 0
DWIDTH 9 0
BBX 7 17 1 -4
BITMAP
10
10
10
10
FE
10
10
10
10
10
10
10
FE
10
10
10
10
ENDCHAR
STARTCHAR char8226
ENCODING 8226
SWIDTH 33 0
DWIDTH 6 0
BBX 4 4 1 4
BITMAP
60
F0
F0
60
ENDCHAR
STARTCHAR char8230
ENCODING 8230
SWIDTH 4 0
DWIDTH 11 0
BBX 9 2 1 0
BITMAP
8980
D980
ENDCHAR
STARTCHAR char8240
ENCODING 8240
SWIDTH 4 0
DWIDTH 21 0
BBX 19 13 1 0
BITMAP
702000
C86000
8CC000
858000
890000
7B0000
060000
0CE1C0
093260
1A1420
321420
633660
41E3C0
ENDCHAR
STARTCHAR char8242
ENCODING 8242
SWIDTH 16 0
DWIDTH 3 0
BBX 2 3 1 10
BITMAP
C0
80
80
ENDCHAR
STARTCHAR char8243
ENCODING 8243
SWIDTH 33 0
DWIDTH 6 0
BBX 4 3 1 10
BITMAP
D0
B0
A0
ENDCHAR
STARTCHAR char8249
ENCODING 8249
SWIDTH 22 0
DWIDTH 4 0
BBX 3 9 1 0
BITMAP
20
40
40
80
80
80
40
40
60
ENDCHAR
STARTCHAR char8250
ENCODING 8250
SWIDTH 22 0
DWIDTH 4 0
BBX 3 9 1 0
BITMAP
80
80
C0
40
60
40
C0
80
80
ENDCHAR
STARTCHAR char8252
ENCODING 8252
SWIDTH 33 0
DWIDTH 6 0
BBX 5 13 1 0
BITMAP
90
90
90
90
90
90
90
90
90
90
00
98
D8
ENDCHAR
STARTCHAR char8254
ENCODING 8254
SWIDTH 44 0
DWIDTH 8 0
BBX 9 1 -1 14
BITMAP
FF80
ENDCHAR
STARTCHAR char8260
ENCODING 8260
SWIDTH 28 0
DWIDTH 5 0
BBX 9 13 -2 0
BITMAP
0080
0100
0300
0200
0400
0400
0800
1800
1000
2000
6000
4000
8000
ENDCHAR
STARTCHAR char8308
ENCODING 8308
SWIDTH 33 0
DWIDTH 6 0
BBX 5 7 1 6
BITMAP
10
30
50
90
F8
10
10
ENDCHAR
STARTCHAR char8353
ENCODING 8353
SWIDTH 10 0
DWIDTH 12 0
BBX 10 15 1 -1
BITMAP
0080
0F80
31C0
6100
4100
C200
8200
8600
8400
C400
4800
6800
38C0
1F80
1000
ENDCHAR
STARTCHAR char8355
ENCODING 8355
SWIDTH 10 0
DWIDTH 12 0
BBX 10 13 1 0
BITMAP
3FC0
2000
2000
2000
2000
2000
3F00
2000
2000
FC00
2000
2000
2000
ENDCHAR
STARTCHAR char8356
ENCODING 8356
SWIDTH 50 0
DWIDTH 9 0
BBX 7 13 1 0
BITMAP
38
44
C0
80
40
F8
40
F8
40
40
42
42
FE
ENDCHAR
STARTCHAR char8358
ENCODING 8358
SWIDTH 16 0
DWIDTH 13 0
BBX 13 13 0 0
BITMAP
2030
3030
3030
2830
2C30
2430
FFF8
2330
21B0
20B0
2070
2030
2030
ENDCHAR
STARTCHAR char8359
ENCODING 8359
SWIDTH 4 0
DWIDTH 11 0
BBX 11 13 0 0
BITMAP
3E00
2180
2080
2080
FFE0
2080
2180
3F00
2000
2000
2000
2000
2000
ENDCHAR
STARTCHAR char8361
ENCODING 8361
SWIDTH 27 0
DWIDTH 15 0
BBX 13 13 1 0
BITMAP
8208
C218
4710
4510
4510
4530
FFF8
28A0
28A0
28A0
38C0
1040
1040
ENDCHAR
STARTCHAR char8363
ENCODING 8363
SWIDTH 56 0
DWIDTH 10 0
BBX 9 13 1 0
BITMAP
0100
1F80
0100
3900
4700
8300
8100
8100
8300
C600
3C00
0000
FF00
ENDCHAR
STARTCHAR char8364
ENCODING 8364
SWIDTH 16 0
DWIDTH 13 0
BBX 12 13 0 0
BITMAP
03E0
0C30
1800
1000
FFC0
2000
2000
FF80
3000
1000
1800
0E30
03E0
ENDCHAR
STARTCHAR char8365
ENCODING 8365
SWIDTH 4 0
DWIDTH 11 0
BBX 10 13 0 0
BITMAP
20C0
2180
2300
2600
2C00
FF80
3C00
2600
2200
2300
2180
2080
2040
ENDCHAR
STARTCHAR char8366
ENCODING 8366
SWIDTH 56 0
DWIDTH 10 0
BBX 10 13 0 0
BITMAP
FFC0
0400
0400
0400
0580
1E00
3400
0780
1E00
2400
0400
0400
0400
ENDCHAR
STARTCHAR char8369
ENCODING 8369
SWIDTH 4 0
DWIDTH 11 0
BBX 11 13 0 0
BITMAP
3E00
2100
2080
FFE0
2080
FFE0
2080
3F00
2000
2000
2000
2000
2000
ENDCHAR
STARTCHAR char8370
ENCODING 8370
SWIDTH 10 0
DWIDTH 12 0
BBX 10 17 1 -2
BITMAP
0600
0600
0F80
30C0
6040
4000
C000
8000
8000
83C0
C040
4040
6040
30C0
0F80
0600
0600
ENDCHAR
STARTCHAR char8372
ENCODING 8372
SWIDTH 4 0
DWIDTH 11 0
BBX 9 13 1 0
BITMAP
1E00
6300
4100
0180
0100
FF80
0000
FF80
4000
4000
4080
6100
3E00
ENDCHAR
STARTCHAR char8373
ENCODING 8373
SWIDTH 10 0
DWIDTH 12 0
BBX 10 17 1 -2
BITMAP
0600
0600
0F80
30C0
6000
4000
C000
8000
8000
8000
C000
4000
6000
30C0
0F80
0600
0600
ENDCHAR
STARTCHAR char8376
ENCODING 8376
SWIDTH 56 0
DWIDTH 10 0
BBX 10 13 0 0
BITMAP
FFC0
0000
0000
FFC0
0400
0400
0400
0400
0400
0400
0400
0400
0400
ENDCHAR
STARTCHAR char8377
ENCODING 8377
SWIDTH 50 0
DWIDTH 9 0
BBX 7 13 1 0
BITMAP
FE
FE
08
FE
FE
0C
F8
E0
30
10
08
0C
04
ENDCHAR
STARTCHAR char8378
ENCODING 8378
SWIDTH 50 0
DWIDTH 9 0
BBX 8 13 1 0
BITMAP
40
40
4C
70
CC
78
C0
40
41
43
42
46
78
ENDCHAR
STARTCHAR char8380
ENCODING 8380
SWIDTH 16 0
DWIDTH 13 0
BBX 9 13 2 0
BITMAP
0800
1C00
7F00
C980
8880
8880
8880
8880
8880
8880
8880
8080
8080
ENDCHAR
STARTCHAR char8381
ENCODING 8381
SWIDTH 56 0
DWIDTH 10 0
BBX 10 13 0 0
BITMAP
3F00
2180
2080
20C0
20C0
2080
2180
FF00
2000
2000
FC00
2000
2000
ENDCHAR
STARTCHAR char8453
ENCODING 8453
SWIDTH 27 0
DWIDTH 15 0
BBX 15 13 0 0
BITMAP
1010
7C30
C020
8040
C0C0
6880
3900
037C
0244
0482
0CC6
0844
1038
ENDCHAR
STARTCHAR char8467
ENCODING 8467
SWIDTH 33 0
DWIDTH 6 0
BBX 6 13 0 0
BITMAP
10
38
2C
28
38
30
30
20
60
E0
20
28
38
ENDCHAR
STARTCHAR char8470
ENCODING 8470
SWIDTH 55 0
DWIDTH 20 0
BBX 17 13 2 0
BITMAP
80CF00
C0D980
C0D080
A0D080
B0D980
98CF00
8CC000
84DF80
86C000
83C000
81C000
80C000
80C000
ENDCHAR
STARTCHAR char8482
ENCODING 8482
SWIDTH 10 0
DWIDTH 12 0
BBX 11 6 0 7
BITMAP
FA20
2220
2360
2360
22A0
2220
ENDCHAR
STARTCHAR char8486
ENCODING 8486
SWIDTH 21 0
DWIDTH 14 0
BBX 12 13 1 0
BITMAP
0F80
30C0
6020
4030
C010
8010
8010
8010
8010
C010
4030
2060
F9F0
ENDCHAR
STARTCHAR char8494
ENCODING 8494
SWIDTH 56 0
DWIDTH 10 0
BBX 8 9 1 0
BITMAP
18
7E
C3
C3
FF
C0
C0
66
3C
ENDCHAR
STARTCHAR char8539
ENCODING 8539
SWIDTH 16 0
DWIDTH 13 0
BBX 12 13 0 0
BITMAP
6020
A060
2040
2080
2080
2100
03E0
02B0
04A0
0C60
0990
1190
10E0
ENDCHAR
STARTCHAR char8540
ENCODING 8540
SWIDTH 16 0
DWIDTH 13 0
BBX 11 13 1 0
BITMAP
E040
9080
6080
1100
9200
9200
E4C0
0D20
0920
10C0
3120
2120
40E0
ENDCHAR
STARTCHAR char8541
ENCODING 8541
SWIDTH 16 0
DWIDTH 13 0
BBX 11 13 1 0
BITMAP
F080
8080
E100
1300
9200
E400
0DC0
0B40
1140
1180
2260
6260
41C0
ENDCHAR
STARTCHAR char8542
ENCODING 8542
SWIDTH 10 0
DWIDTH 12 0
BBX 11 13 0 0
BITMAP
F840
10C0
1080
3100
2100
2200
44E0
0520
0920
18C0
1120
2120
20E0
ENDCHAR
STARTCHAR char8592
ENCODING 8592
SWIDTH 27 0
DWIDTH 15 0
BBX 13 7 1 1
BITMAP
2000
6000
C000
FFF8
C000
6000
2000
ENDCHAR
STARTCHAR char8593
ENCODING 8593
SWIDTH 44 0
DWIDTH 8 0
BBX 6 14 1 -3
BITMAP
30
78
AC
20
20
20
20
20
20
20
20
20
20
20
ENDCHAR
STARTCHAR char8594
ENCODING 8594
SWIDTH 27 0
DWIDTH 15 0
BBX 13 7 1 1
BITMAP
0020
0030
0018
FFF8
0018
0030
0020
ENDCHAR
STARTCHAR char8595
ENCODING 8595
SWIDTH 44 0
DWIDTH 8 0
BBX 6 14 1 -3
BITMAP
20
20
20
20
20
20
20
20
20
20
AC
F8
70
20
ENDCHAR
STARTCHAR char8596
ENCODING 8596
SWIDTH 27 0
DWIDTH 15 0
BBX 13 7 1 1
BITMAP
2020
6030
C018
FFF8
C018
6030
2020
ENDCHAR
STARTCHAR char8597
ENCODING 8597
SWIDTH 44 0
DWIDTH 8 0
BBX 6 14 1 -3
BITMAP
30
78
AC
20
20
20
20
20
20
20
AC
F8
70
20
ENDCHAR
STARTCHAR char8616
ENCODING 8616
SWIDTH 44 0
DWIDTH 8 0
BBX 6 14 1 -3
BITMAP
30
78
AC
20
20
20
20
20
AC
F8
70
20
FC
FC
ENDCHAR
STARTCHAR char8706
ENCODING 8706
SWIDTH 56 0
DWIDTH 10 0
BBX 8 13 1 0
BITMAP
30
FC
06
03
3D
67
C3
81
81
81
C3
66
3C
ENDCHAR
STARTCHAR char8710
ENCODING 8710
SWIDTH 4 0
DWIDTH 11 0
BBX 11 13 0 0
BITMAP
0400
0600
0E00
0B00
1B00
1100
1180
3080
20C0
6040
4040
4060
FFE0
ENDCHAR
STARTCHAR char8719
ENCODING 8719
SWIDTH 4 0
DWIDTH 11 0
BBX 10 17 1 -4
BITMAP
FF80
FFC0
80C0
80C0
80C0
80C0
80C0
80C0
80C0
80C0
80C0
80C0
80C0
80C0
80C0
80C0
8040
ENDCHAR
STARTCHAR char8721
ENCODING 8721
SWIDTH 4 0
DWIDTH 11 0
BBX 10 17 1 -4
BITMAP
FF80
FFC0
4000
6000
3000
1800
0C00
0400
0200
0600
0C00
1800
3000
2000
4000
FF80
FFC0
ENDCHAR
STARTCHAR char8722
ENCODING 8722
SWIDTH 50 0
DWIDTH 9 0
BBX 7 1 1 5
BITMAP
FE
ENDCHAR
STARTCHAR char8725
ENCODING 8725
SWIDTH 44 0
DWIDTH 8 0
BBX 6 14 1 -1
BITMAP
04
0C
08
18
10
10
30
20
60
40
40
C0
80
80
ENDCHAR
STARTCHAR char8729
ENCODING 8729
SWIDTH 28 0
DWIDTH 5 0
BBX 3 4 1 3
BITMAP
E0
E0
E0
40
ENDCHAR
STARTCHAR char8730
ENCODING 8730
SWIDTH 16 0
DWIDTH 13 0
BBX 11 14 1 0
BITMAP
00E0
0080
0180
0100
0300
0200
0600
0400
8C00
C800
5800
7000
3000
2000
ENDCHAR
STARTCHAR char8734
ENCODING 8734
SWIDTH 16 0
DWIDTH 13 0
BBX 11 6 1 2
BITMAP
73C0
CE60
8420
8420
8C60
7BC0
ENDCHAR
STARTCHAR char8735
ENCODING 8735
SWIDTH 4 0
DWIDTH 11 0
BBX 10 10 1 0
BITMAP
8000
8000
8000
8000
8000
8000
8000
8000
8000
FFC0
ENDCHAR
STARTCHAR char8745
ENCODING 8745
SWIDTH 16 0
DWIDTH 13 0
BBX 10 13 2 0
BITMAP
1C00
7700
C180
8080
8080
80C0
80C0
80C0
80C0
80C0
80C0
80C0
8080
ENDCHAR
STARTCHAR char8747
ENCODING 8747
SWIDTH 50 0
DWIDTH 9 0
BBX 7 16 1 -2
BITMAP
0E
1A
10
10
10
10
10
10
10
10
30
30
30
A0
E0
40
ENDCHAR
STARTCHAR char8776
ENCODING 8776
SWIDTH 44 0
DWIDTH 8 0
BBX 6 5 1 4
BITMAP
E4
9C
00
E4
9C
ENDCHAR
STARTCHAR char8800
ENCODING 8800
SWIDTH 44 0
DWIDTH 8 0
BBX 6 11 1 0
BITMAP
08
08
18
FC
10
30
20
FC
60
40
40
ENDCHAR
STARTCHAR char8801
ENCODING 8801
SWIDTH 44 0
DWIDTH 8 0
BBX 6 7 1 2
BITMAP
FC
00
00
FC
00
00
FC
ENDCHAR
STARTCHAR char8804
ENCODING 8804
SWIDTH 50 0
DWIDTH 9 0
BBX 7 10 1 1
BITMAP
02
0C
38
60
80
60
38
0C
02
FE
ENDCHAR
STARTCHAR char8805
ENCODING 8805
SWIDTH 50 0
DWIDTH 9 0
BBX 7 10 1 1
BITMAP
80
60
38
0C
06
0C
38
E0
80
FE
ENDCHAR
STARTCHAR char64257
ENCODING 64257
SWIDTH 56 0
DWIDTH 10 0
BBX 8 13 0 0
BITMAP
1F
33
20
20
FD
21
21
21
21
21
21
21
21
ENDCHAR
STARTCHAR char64258
ENCODING 64258
SWIDTH 56 0
DWIDTH 10 0
BBX 10 13 0 0
BITMAP
1F00
3100
2100
2100
FD00
2100
2100
2100
2100
2100
2100
2100
20C0
ENDCHAR
ENDFONT
